<svg width="18" height="19" viewBox="0 0 18 19" fill="none" xmlns="http://www.w3.org/2000/svg">
  <path d="M8.49073 6.5971C8.28548 6.41237 7.96933 6.42901 7.7846 6.63427C7.59987 6.83952 7.61651 7.15567 7.82177 7.3404L8.49073 6.5971ZM10.9688 9.5L11.3032 9.87165C11.4086 9.77683 11.4688 9.64174 11.4688 9.5C11.4688 9.35826 11.4086 9.22317 11.3032 9.12835L10.9688 9.5ZM7.82177 11.6596C7.61651 11.8443 7.59987 12.1605 7.7846 12.3657C7.96933 12.571 8.28548 12.5876 8.49073 12.4029L7.82177 11.6596ZM15.25 9.5C15.25 12.9518 12.4518 15.75 9 15.75V16.75C13.0041 16.75 16.25 13.5041 16.25 9.5H15.25ZM9 15.75C5.54822 15.75 2.75 12.9518 2.75 9.5H1.75C1.75 13.5041 4.99594 16.75 9 16.75V15.75ZM2.75 9.5C2.75 6.04822 5.54822 3.25 9 3.25V2.25C4.99594 2.25 1.75 5.49594 1.75 9.5H2.75ZM9 3.25C12.4518 3.25 15.25 6.04822 15.25 9.5H16.25C16.25 5.49594 13.0041 2.25 9 2.25V3.25ZM7.82177 7.3404L10.6343 9.87165L11.3032 9.12835L8.49073 6.5971L7.82177 7.3404ZM10.6343 9.12835L7.82177 11.6596L8.49073 12.4029L11.3032 9.87165L10.6343 9.12835Z" fill="currentColor"/>
</svg>
