<svg xmlns="http://www.w3.org/2000/svg" width="16" height="17" viewBox="0 0 16 17" fill="none">
  <path
    d="M5.50009 13V13.625C5.50009 14.288 5.76348 14.9239 6.23232 15.3927C6.70116 15.8616 7.33704 16.125 8.00009 16.125C8.66313 16.125 9.29901 15.8616 9.76785 15.3927C10.2367 14.9239 10.5001 14.288 10.5001 13.625V13M2.39095 6.12495C2.38991 5.38371 2.5356 4.64959 2.81961 3.96491C3.10361 3.28024 3.52033 2.65854 4.04573 2.13567C4.57112 1.61279 5.19482 1.19907 5.88085 0.918365C6.56689 0.637656 7.3017 0.495506 8.04293 0.500108C11.1359 0.523102 13.6098 3.09396 13.6098 6.19557V6.74995C13.6098 9.54805 14.1953 11.1717 14.7109 12.0592C14.7664 12.154 14.796 12.2618 14.7965 12.3717C14.7971 12.4816 14.7687 12.5897 14.7142 12.6851C14.6597 12.7805 14.581 12.8599 14.486 12.9151C14.391 12.9704 14.2831 12.9997 14.1732 13H1.82693C1.71703 12.9997 1.60914 12.9704 1.51415 12.9151C1.41917 12.8598 1.34045 12.7805 1.28592 12.685C1.2314 12.5896 1.20302 12.4815 1.20362 12.3716C1.20423 12.2617 1.23381 12.1539 1.28938 12.059C1.80526 11.1716 2.39095 9.54791 2.39095 6.74995L2.39095 6.12495Z"
    stroke="currentColor" stroke-linecap="round" stroke-linejoin="round"/>
</svg>
