<svg width="32" height="32" viewBox="0 0 32 32" fill="none" xmlns="http://www.w3.org/2000/svg">
<path d="M17 16C17 15.4477 16.5523 15 16 15C15.4477 15 15 15.4477 15 16H17ZM15 27C15 27.5523 15.4477 28 16 28C16.5523 28 17 27.5523 17 27H15ZM30.5 17C31.0523 17 31.5 16.5523 31.5 16C31.5 15.4477 31.0523 15 30.5 15L30.5 17ZM1.5 15C0.947716 15 0.5 15.4477 0.5 16C0.5 16.5523 0.947715 17 1.5 17L1.5 15ZM26 18H27H26ZM16 28V29V28ZM16 4V3V4ZM28.4904 24.366C28.9687 24.6422 29.5803 24.4783 29.8564 24C30.1325 23.5217 29.9687 22.9101 29.4904 22.634L28.4904 24.366ZM25.8977 20.5598C25.4195 20.2836 24.8079 20.4475 24.5317 20.9258C24.2556 21.4041 24.4195 22.0157 24.8977 22.2918L25.8977 20.5598ZM2.50962 22.634C2.03133 22.9101 1.86745 23.5217 2.14359 24C2.41974 24.4783 3.03133 24.6422 3.50962 24.366L2.50962 22.634ZM7.10224 22.2918C7.58053 22.0157 7.7444 21.4041 7.46826 20.9258C7.19212 20.4475 6.58053 20.2836 6.10224 20.5598L7.10224 22.2918ZM29.4904 9.36603C29.9687 9.08989 30.1326 8.4783 29.8564 8.00001C29.5803 7.52171 28.9687 7.35784 28.4904 7.63398L29.4904 9.36603ZM24.8977 9.7082C24.4194 9.98434 24.2556 10.5959 24.5317 11.0742C24.8079 11.5525 25.4194 11.7164 25.8977 11.4402L24.8977 9.7082ZM3.50962 7.63397C3.03133 7.35783 2.41974 7.52171 2.14359 8C1.86745 8.47829 2.03133 9.08988 2.50962 9.36603L3.50962 7.63397ZM6.10227 11.4402C6.58056 11.7164 7.19215 11.5525 7.4683 11.0742C7.74444 10.5959 7.58056 9.98434 7.10227 9.70819L6.10227 11.4402ZM15 16V27H17V16H15ZM30.5 15L1.5 15L1.5 17L30.5 17L30.5 15ZM19.5 14C20.8807 14 22 12.8807 22 11.5H20C20 11.7761 19.7761 12 19.5 12V14ZM22 11.5C22 10.1193 20.8807 9 19.5 9V11C19.7761 11 20 11.2239 20 11.5H22ZM19.5 9C18.1193 9 17 10.1193 17 11.5H19C19 11.2239 19.2239 11 19.5 11V9ZM17 11.5C17 12.8807 18.1193 14 19.5 14V12C19.2239 12 19 11.7761 19 11.5H17ZM12.5 14C13.8807 14 15 12.8807 15 11.5H13C13 11.7761 12.7761 12 12.5 12V14ZM15 11.5C15 10.1193 13.8807 9 12.5 9V11C12.7761 11 13 11.2239 13 11.5H15ZM12.5 9C11.1193 9 10 10.1193 10 11.5H12C12 11.2239 12.2239 11 12.5 11V9ZM10 11.5C10 12.8807 11.1193 14 12.5 14V12C12.2239 12 12 11.7761 12 11.5H10ZM25 18C25 20.3869 24.0518 22.6761 22.364 24.364L23.7782 25.7782C25.8411 23.7153 27 20.9174 27 18H25ZM22.364 24.364C20.6761 26.0518 18.3869 27 16 27V29C18.9174 29 21.7153 27.8411 23.7782 25.7782L22.364 24.364ZM16 27C13.6131 27 11.3239 26.0518 9.63604 24.364L8.22183 25.7782C10.2847 27.8411 13.0826 29 16 29V27ZM9.63604 24.364C7.94821 22.6761 7 20.3869 7 18H5C5 20.9174 6.15893 23.7153 8.22183 25.7782L9.63604 24.364ZM7 18V14H5V18H7ZM7 14C7 11.6131 7.94821 9.32387 9.63604 7.63604L8.22183 6.22183C6.15893 8.28473 5 11.0826 5 14H7ZM9.63604 7.63604C11.3239 5.94821 13.6131 5 16 5V3C13.0826 3 10.2847 4.15893 8.22183 6.22183L9.63604 7.63604ZM16 5C18.3869 5 20.6761 5.94821 22.364 7.63604L23.7782 6.22183C21.7153 4.15893 18.9174 3 16 3V5ZM22.364 7.63604C24.0518 9.32387 25 11.6131 25 14H27C27 11.0826 25.8411 8.28473 23.7782 6.22183L22.364 7.63604ZM25 14V18H27V14H25ZM29.4904 22.634L25.8977 20.5598L24.8977 22.2918L28.4904 24.366L29.4904 22.634ZM3.50962 24.366L7.10224 22.2918L6.10224 20.5598L2.50962 22.634L3.50962 24.366ZM28.4904 7.63398L24.8977 9.7082L25.8977 11.4402L29.4904 9.36603L28.4904 7.63398ZM2.50962 9.36603L6.10227 11.4402L7.10227 9.70819L3.50962 7.63397L2.50962 9.36603Z" fill="white"/>
</svg>
