<svg width="45" height="43" viewBox="0 0 45 43" fill="none" xmlns="http://www.w3.org/2000/svg">
<path d="M38.8308 16.5525C41.3232 13.5914 40.942 9.15481 37.981 6.66234C35.0199 4.16987 30.5832 4.55109 28.0907 7.51214L22.2558 14.4441L14.5925 23.5482L5.74869 34.0548C4.87428 35.0936 5.00803 36.6502 6.04684 37.5248C7.08563 38.3992 8.64224 38.2654 9.51676 37.2266L18.2211 26.8859L24.2216 19.7573C24.9881 18.8467 26.3477 18.7298 27.2584 19.4964C28.1691 20.2629 28.2859 21.6225 27.5194 22.5332L21.0782 30.1852L12.8144 40.0023C10.4094 42.8595 6.12808 43.2274 3.27089 40.8223C0.413694 38.4173 0.0458324 34.136 2.45088 31.2788L11.4106 20.6348L19.0764 11.5278L24.7932 4.73631C28.8163 -0.0431369 35.9776 -0.658461 40.757 3.36464C45.5365 7.38775 46.1518 14.5491 42.1287 19.3285L34.4352 28.4683L31.9546 24.7214L38.8308 16.5525Z" fill="#323E8B"/>
</svg>
