<svg width="20" height="20" viewBox="0 0 20 20" fill="none" xmlns="http://www.w3.org/2000/svg">
<path d="M4.2625 19.375H13.2375C13.8707 19.375 14.478 19.1235 14.9257 18.6757C15.3735 18.228 15.625 17.6207 15.625 16.9875V16.875H15.7375C16.3707 16.875 16.978 16.6235 17.4257 16.1757C17.8735 15.728 18.125 15.1207 18.125 14.4875V3.0125C18.125 2.69897 18.0632 2.38851 17.9433 2.09884C17.8233 1.80918 17.6474 1.54598 17.4257 1.32428C17.204 1.10258 16.9408 0.926721 16.6512 0.806738C16.3615 0.686755 16.051 0.625 15.7375 0.625H6.7625C6.1293 0.625 5.52203 0.876539 5.07428 1.32428C4.62654 1.77203 4.375 2.3793 4.375 3.0125V3.125H4.2625C3.6293 3.125 3.02203 3.37654 2.57428 3.82428C2.12654 4.27203 1.875 4.8793 1.875 5.5125V9.8875C1.875 10.0533 1.94085 10.2122 2.05806 10.3294C2.17527 10.4467 2.33424 10.5125 2.5 10.5125C2.66576 10.5125 2.82473 10.4467 2.94194 10.3294C3.05915 10.2122 3.125 10.0533 3.125 9.8875V5.5125C3.12417 5.36289 3.15303 5.2146 3.2099 5.07622C3.26677 4.93784 3.35053 4.81211 3.45632 4.70632C3.56211 4.60053 3.68784 4.51677 3.82622 4.4599C3.9646 4.40303 4.11289 4.37417 4.2625 4.375H13.2375C13.5387 4.37664 13.8271 4.49701 14.04 4.70998C14.253 4.92295 14.3734 5.21132 14.375 5.5125V16.9875C14.3758 17.1371 14.347 17.2854 14.2901 17.4238C14.2332 17.5622 14.1495 17.6879 14.0437 17.7937C13.9379 17.8995 13.8122 17.9832 13.6738 18.0401C13.5354 18.097 13.3871 18.1258 13.2375 18.125H4.2625C4.11289 18.1258 3.9646 18.097 3.82622 18.0401C3.68784 17.9832 3.56211 17.8995 3.45632 17.7937C3.35053 17.6879 3.26677 17.5622 3.2099 17.4238C3.15303 17.2854 3.12417 17.1371 3.125 16.9875V15.4313C3.125 15.2655 3.05915 15.1065 2.94194 14.9893C2.82473 14.8721 2.66576 14.8063 2.5 14.8063C2.33424 14.8063 2.17527 14.8721 2.05806 14.9893C1.94085 15.1065 1.875 15.2655 1.875 15.4313V16.9875C1.875 17.6207 2.12654 18.228 2.57428 18.6757C3.02203 19.1235 3.6293 19.375 4.2625 19.375ZM5.625 3.125V3.0125C5.62664 2.71132 5.74701 2.42295 5.95998 2.20998C6.17295 1.99701 6.46132 1.87664 6.7625 1.875H15.7375C16.0387 1.87664 16.3271 1.99701 16.54 2.20998C16.753 2.42295 16.8734 2.71132 16.875 3.0125V14.4875C16.8734 14.7887 16.753 15.0771 16.54 15.29C16.3271 15.503 16.0387 15.6234 15.7375 15.625H15.625V5.5125C15.625 4.8793 15.3735 4.27203 14.9257 3.82428C14.478 3.37654 13.8707 3.125 13.2375 3.125H5.625Z" fill="#746ECC"/>
</svg>
