<svg width="49" height="49" viewBox="0 0 49 49" fill="none" xmlns="http://www.w3.org/2000/svg">
<circle cx="24.498" cy="24.498" r="24.498" fill="#746ECC"/>
<g clip-path="url(#clip0_1133_5313)">
<path d="M33.6875 17.5479V20.2189H15.3125V17.5479C15.3192 17.0321 15.5303 16.5399 15.8993 16.1795C16.2684 15.819 16.7654 15.6196 17.2812 15.6251H18.5938V16.9376C18.5938 17.4598 18.8012 17.9605 19.1704 18.3297C19.5396 18.6989 20.0404 18.9064 20.5625 18.9064C21.0846 18.9064 21.5854 18.6989 21.9546 18.3297C22.3238 17.9605 22.5312 17.4598 22.5312 16.9376V15.6251H26.4688V16.9376C26.4688 17.4598 26.6762 17.9605 27.0454 18.3297C27.4146 18.6989 27.9154 18.9064 28.4375 18.9064C28.9596 18.9064 29.4604 18.6989 29.8296 18.3297C30.1988 17.9605 30.4062 17.4598 30.4062 16.9376V15.6251H31.7188C32.2346 15.6196 32.7316 15.819 33.1007 16.1795C33.4697 16.5399 33.6808 17.0321 33.6875 17.5479Z" fill="#F8F8FF"/>
<path d="M15.3125 21.5312V32.0772C15.3192 32.593 15.5303 33.0852 15.8993 33.4456C16.2684 33.8061 16.7654 34.0055 17.2812 34H31.7188C32.2346 34.0055 32.7316 33.8061 33.1007 33.4456C33.4697 33.0852 33.6808 32.593 33.6875 32.0772V21.5312H15.3125ZM21.2188 30.7188C21.2182 30.8926 21.1489 31.0593 21.026 31.1822C20.903 31.3052 20.7364 31.3745 20.5625 31.375H19.25C19.0761 31.3745 18.9095 31.3052 18.7865 31.1822C18.6636 31.0593 18.5943 30.8926 18.5938 30.7188V29.4062C18.5943 29.2324 18.6636 29.0657 18.7865 28.9428C18.9095 28.8198 19.0761 28.7505 19.25 28.75H20.5625C20.7364 28.7505 20.903 28.8198 21.026 28.9428C21.1489 29.0657 21.2182 29.2324 21.2188 29.4062V30.7188ZM21.2188 26.125C21.2182 26.2989 21.1489 26.4655 21.026 26.5885C20.903 26.7114 20.7364 26.7807 20.5625 26.7812H19.25C19.0761 26.7807 18.9095 26.7114 18.7865 26.5885C18.6636 26.4655 18.5943 26.2989 18.5938 26.125V24.8125C18.5943 24.6386 18.6636 24.472 18.7865 24.349C18.9095 24.2261 19.0761 24.1568 19.25 24.1562H20.5625C20.7364 24.1568 20.903 24.2261 21.026 24.349C21.1489 24.472 21.2182 24.6386 21.2188 24.8125V26.125ZM25.8125 30.7188C25.812 30.8926 25.7427 31.0593 25.6197 31.1822C25.4968 31.3052 25.3301 31.3745 25.1562 31.375H23.8438C23.6699 31.3745 23.5032 31.3052 23.3803 31.1822C23.2573 31.0593 23.188 30.8926 23.1875 30.7188V29.4062C23.188 29.2324 23.2573 29.0657 23.3803 28.9428C23.5032 28.8198 23.6699 28.7505 23.8438 28.75H25.1562C25.3301 28.7505 25.4968 28.8198 25.6197 28.9428C25.7427 29.0657 25.812 29.2324 25.8125 29.4062V30.7188ZM25.8125 26.125C25.812 26.2989 25.7427 26.4655 25.6197 26.5885C25.4968 26.7114 25.3301 26.7807 25.1562 26.7812H23.8438C23.6699 26.7807 23.5032 26.7114 23.3803 26.5885C23.2573 26.4655 23.188 26.2989 23.1875 26.125V24.8125C23.188 24.6386 23.2573 24.472 23.3803 24.349C23.5032 24.2261 23.6699 24.1568 23.8438 24.1562H25.1562C25.3301 24.1568 25.4968 24.2261 25.6197 24.349C25.7427 24.472 25.812 24.6386 25.8125 24.8125V26.125ZM30.4062 26.125C30.4057 26.2989 30.3364 26.4655 30.2135 26.5885C30.0905 26.7114 29.9239 26.7807 29.75 26.7812H28.4375C28.2636 26.7807 28.097 26.7114 27.974 26.5885C27.8511 26.4655 27.7818 26.2989 27.7812 26.125V24.8125C27.7818 24.6386 27.8511 24.472 27.974 24.349C28.097 24.2261 28.2636 24.1568 28.4375 24.1562H29.75C29.9239 24.1568 30.0905 24.2261 30.2135 24.349C30.3364 24.472 30.4057 24.6386 30.4062 24.8125V26.125Z" fill="#F8F8FF"/>
<path d="M21.2188 15.625V16.9375C21.2188 17.1115 21.1496 17.2785 21.0265 17.4015C20.9035 17.5246 20.7365 17.5938 20.5625 17.5938C20.3885 17.5938 20.2215 17.5246 20.0985 17.4015C19.9754 17.2785 19.9062 17.1115 19.9062 16.9375V15.625C19.9062 15.451 19.9754 15.284 20.0985 15.161C20.2215 15.0379 20.3885 14.9688 20.5625 14.9688C20.7365 14.9688 20.9035 15.0379 21.0265 15.161C21.1496 15.284 21.2188 15.451 21.2188 15.625Z" fill="#F8F8FF"/>
<path d="M29.0938 15.625V16.9375C29.0938 17.1115 29.0246 17.2785 28.9015 17.4015C28.7785 17.5246 28.6115 17.5938 28.4375 17.5938C28.2635 17.5938 28.0965 17.5246 27.9735 17.4015C27.8504 17.2785 27.7812 17.1115 27.7812 16.9375V15.625C27.7812 15.451 27.8504 15.284 27.9735 15.161C28.0965 15.0379 28.2635 14.9688 28.4375 14.9688C28.6115 14.9688 28.7785 15.0379 28.9015 15.161C29.0246 15.284 29.0938 15.451 29.0938 15.625Z" fill="#F8F8FF"/>
</g>
<defs>
<clipPath id="clip0_1133_5313">
<rect width="21" height="21" fill="white" transform="translate(14 13)"/>
</clipPath>
</defs>
</svg>
