<svg width="49" height="49" viewBox="0 0 49 49" fill="none" xmlns="http://www.w3.org/2000/svg">
<circle cx="24.498" cy="24.498" r="24.498" fill="#746ECC"/>
<path d="M21.5391 20.0078H27.4453V22.4803H21.5391V20.0078Z" fill="#F8F8FF"/>
<path d="M14.7344 30.2504C14.5272 30.2504 14.3285 30.3261 14.1819 30.4609C14.0354 30.5957 13.9531 30.7785 13.9531 30.9691C13.9531 31.1598 14.0354 31.3426 14.1819 31.4774C14.3285 31.6122 14.5272 31.6879 14.7344 31.6879H15.8438V33.8441C15.8438 34.0348 15.9261 34.2176 16.0726 34.3524C16.2191 34.4872 16.4178 34.5629 16.625 34.5629H29.4453C30.3956 34.602 31.3241 34.2937 32.0281 33.7052C32.7321 33.1167 33.1546 32.2959 33.2031 31.4219V17.5788C33.1546 16.7048 32.7321 15.884 32.0281 15.2956C31.3241 14.7071 30.3956 14.3988 29.4453 14.4379H16.625C16.4178 14.4379 16.2191 14.5136 16.0726 14.6484C15.9261 14.7832 15.8438 14.966 15.8438 15.1566V17.8232H14.7344C14.5272 17.8232 14.3285 17.8989 14.1819 18.0337C14.0354 18.1685 13.9531 18.3513 13.9531 18.5419C13.9531 18.7326 14.0354 18.9154 14.1819 19.0502C14.3285 19.185 14.5272 19.2607 14.7344 19.2607H15.8438V20.461H14.7344C14.5272 20.461 14.3285 20.5367 14.1819 20.6715C14.0354 20.8063 13.9531 20.9891 13.9531 21.1798C13.9531 21.3704 14.0354 21.5532 14.1819 21.688C14.3285 21.8228 14.5272 21.8985 14.7344 21.8985H15.8438V23.9613H14.7344C14.5272 23.9613 14.3285 24.037 14.1819 24.1718C14.0354 24.3066 13.9531 24.4894 13.9531 24.6801C13.9531 24.8707 14.0354 25.0535 14.1819 25.1883C14.3285 25.3231 14.5272 25.3988 14.7344 25.3988H15.8438V27.2891H14.7344C14.5272 27.2891 14.3285 27.3649 14.1819 27.4997C14.0354 27.6344 13.9531 27.8173 13.9531 28.0079C13.9531 28.1985 14.0354 28.3813 14.1819 28.5161C14.3285 28.6509 14.5272 28.7266 14.7344 28.7266H15.8438V30.2504H14.7344ZM19.9766 19.2894C19.9766 19.0988 20.0589 18.916 20.2054 18.7812C20.3519 18.6464 20.5506 18.5707 20.7578 18.5707H28.2266C28.4338 18.5707 28.6325 18.6464 28.779 18.7812C28.9255 18.916 29.0078 19.0988 29.0078 19.2894V23.1994C29.0078 23.3901 28.9255 23.5729 28.779 23.7077C28.6325 23.8425 28.4338 23.9182 28.2266 23.9182H20.7578C20.5506 23.9182 20.3519 23.8425 20.2054 23.7077C20.0589 23.5729 19.9766 23.3901 19.9766 23.1994V19.2894Z" fill="#F8F8FF"/>
</svg>
