<svg width="49" height="49" viewBox="0 0 49 49" fill="none" xmlns="http://www.w3.org/2000/svg">
<circle cx="24.498" cy="24.498" r="24.498" fill="#746ECC"/>
<g clip-path="url(#clip0_1133_5333)">
<path d="M26.6934 29.9363L24.6096 30.9309C24.4032 31.0294 24.185 31.0794 23.9611 31.0794C23.6937 31.0794 23.4367 31.0079 23.2102 30.8767C23.199 30.8774 23.1878 30.8785 23.1764 30.8785H18.7539C18.4303 30.8785 18.168 30.6031 18.168 30.2633C18.168 29.9235 18.4303 29.6481 18.7539 29.6481H22.4123C22.3757 29.3503 22.4175 29.0428 22.5406 28.7584L22.6882 28.4176H18.7539C18.4303 28.4176 18.168 28.1421 18.168 27.8024C18.168 27.4626 18.4303 27.1871 18.7539 27.1871H23.2208L23.4906 26.5639C23.4913 26.5622 23.4921 26.5609 23.4929 26.5594C23.5503 26.4281 23.6296 26.3071 23.7288 26.2029L23.9634 25.9567H18.7539C18.4303 25.9567 18.168 25.6812 18.168 25.3414C18.168 25.0017 18.4303 24.7262 18.7539 24.7262H25.1353L26.3071 23.4958H18.7539C18.4303 23.4958 18.168 23.2203 18.168 22.8805C18.168 22.5408 18.4303 22.2653 18.7539 22.2653H27.479L30.5151 19.0774L30.5286 19.0633V15.7481C30.5286 15.4083 30.2663 15.1329 29.9427 15.1329H28.5755V13.6152C28.5755 13.2755 28.3131 13 27.9895 13C27.6659 13 27.4036 13.2755 27.4036 13.6152V15.1328H26.1759V13.6152C26.1759 13.2755 25.9136 13 25.59 13C25.2664 13 25.004 13.2755 25.004 13.6152V15.1328H23.7763V13.6152C23.7763 13.2755 23.5139 13 23.1904 13C22.8668 13 22.6044 13.2755 22.6044 13.6152V15.1328H21.3767V13.6152C21.3767 13.2755 21.1144 13 20.7908 13C20.4672 13 20.2048 13.2755 20.2048 13.6152V15.1328H18.9771V13.6152C18.9771 13.2755 18.7148 13 18.3912 13C18.0676 13 17.8053 13.2755 17.8053 13.6152V15.1328H16.4102C16.0866 15.1328 15.8242 15.4083 15.8242 15.748V32.1543C15.8242 33.172 16.6128 34 17.582 34H28.7708C29.74 34 30.5286 33.172 30.5286 32.1543V26.0238L27.0434 29.6832C26.9393 29.7926 26.8203 29.8767 26.6934 29.9363ZM23.1904 21.0348H18.7539C18.4303 21.0348 18.168 20.7594 18.168 20.4196C18.168 20.0798 18.4303 19.8044 18.7539 19.8044H23.1904C23.5139 19.8044 23.7763 20.0798 23.7763 20.4196C23.7763 20.7594 23.5139 21.0348 23.1904 21.0348Z" fill="#F8F8FF"/>
<path d="M30.5143 20.8174L24.5567 27.0728L23.6067 29.2674C23.4573 29.6124 23.7954 29.9673 24.1239 29.8105L26.214 28.813L32.1716 22.5575L30.5143 20.8174Z" fill="#F8F8FF"/>
<path d="M33.8296 19.0772C33.372 18.5967 32.63 18.5967 32.1724 19.0772L31.3438 19.9473L33.001 21.6874L33.8296 20.8173C34.2873 20.3368 34.2873 19.5577 33.8296 19.0772Z" fill="#F8F8FF"/>
</g>
<defs>
<clipPath id="clip0_1133_5333">
<rect width="20" height="21" fill="white" transform="translate(15 13)"/>
</clipPath>
</defs>
</svg>
