<svg width="49" height="49" viewBox="0 0 49 49" fill="none" xmlns="http://www.w3.org/2000/svg">
<circle cx="24.498" cy="24.498" r="24.498" fill="#746ECC"/>
<g clip-path="url(#clip0_1133_5342)">
<path d="M19.7742 30.418C21.2042 30.0037 22.683 29.7814 24.1717 29.7569V24.8252H18.9258C18.9396 26.7204 19.2253 28.6039 19.7742 30.418Z" fill="#F8F8FF"/>
<path d="M24.8281 30.4141V34.9925C25.4495 34.9741 26.0679 34.9005 26.6762 34.7726C27.6154 33.9738 28.4224 32.6727 29.015 31.041C27.6529 30.6495 26.2452 30.4387 24.8281 30.4141Z" fill="#F8F8FF"/>
<path d="M17.2852 32.1183C18.3877 33.1643 19.704 33.9587 21.1433 34.4467C20.3803 33.4784 19.784 32.3898 19.3787 31.2256C18.658 31.4665 17.9579 31.765 17.2852 32.1183Z" fill="#F8F8FF"/>
<path d="M19.1666 18.3871C18.3528 18.1138 17.5643 17.7703 16.81 17.3604C15.0817 19.215 14.0859 21.6342 14.0078 24.1681H18.2695C18.2848 22.2076 18.587 20.26 19.1666 18.3871Z" fill="#F8F8FF"/>
<path d="M26.6762 14.2287C26.0679 14.1008 25.4495 14.0272 24.8281 14.0088V18.5857C26.2446 18.5596 27.6515 18.3469 29.0124 17.953C28.42 16.3246 27.6139 15.0264 26.6762 14.2287Z" fill="#F8F8FF"/>
<path d="M31.7051 16.874C30.6043 15.832 29.291 15.0405 27.8555 14.5537C28.6162 15.519 29.2112 16.604 29.6162 17.7644C30.335 17.5235 31.0336 17.2258 31.7051 16.874Z" fill="#F8F8FF"/>
<path d="M18.9258 24.168H24.1716V19.2433C22.6832 19.2174 21.2049 18.9941 19.7753 18.5791C19.2263 20.3918 18.9402 22.274 18.9258 24.168Z" fill="#F8F8FF"/>
<path d="M22.3242 34.7717C22.9325 34.8997 23.5509 34.9732 24.1723 34.9916V30.4121C22.7549 30.4362 21.3469 30.6464 19.9844 31.0373C20.5771 32.6703 21.3845 33.9724 22.3242 34.7717Z" fill="#F8F8FF"/>
<path d="M18.2695 24.8242H14.0078C14.0839 27.3594 15.0787 29.7805 16.807 31.6368C17.5617 31.226 18.3507 30.8818 19.1652 30.6083C18.5859 28.7343 18.2842 26.7856 18.2695 24.8242Z" fill="#F8F8FF"/>
<path d="M21.1442 14.5537C19.708 15.0407 18.3942 15.8328 17.293 16.8756C17.9644 17.2284 18.663 17.5269 19.3821 17.7681C19.7872 16.6063 20.3827 15.5201 21.1442 14.5537Z" fill="#F8F8FF"/>
<path d="M30.7284 24.8243C30.7137 26.7863 30.4117 28.7356 29.832 30.6101C30.647 30.8826 31.4365 31.2259 32.1914 31.6361C33.9194 29.7799 34.914 27.3591 34.9901 24.8242L30.7284 24.8243Z" fill="#F8F8FF"/>
<path d="M30.7305 24.1683H34.9921C34.914 21.6325 33.9166 19.2115 32.1859 17.3564C31.4323 17.7659 30.6448 18.1094 29.832 18.3832C30.4125 20.2573 30.7152 22.2064 30.7305 24.1683Z" fill="#F8F8FF"/>
<path d="M30.074 24.8242H24.8281V29.7572C26.3166 29.7821 27.7951 30.0047 29.225 30.4188C29.7743 28.6042 30.0603 26.7201 30.074 24.8242Z" fill="#F8F8FF"/>
<path d="M27.8555 34.4467C29.2932 33.9592 30.6082 33.166 31.7101 32.1216C31.0381 31.7684 30.3387 31.4701 29.6186 31.2295C29.2135 32.3923 28.6176 33.4795 27.8555 34.4467Z" fill="#F8F8FF"/>
<path d="M19.9844 17.9579C21.3461 18.3503 22.7535 18.562 24.1704 18.5874V14.0088C23.549 14.0271 22.9306 14.1007 22.3223 14.2286C21.3835 15.0272 20.5769 16.3273 19.9844 17.9579Z" fill="#F8F8FF"/>
<path d="M29.2224 18.5732C27.7939 18.9902 26.3161 19.215 24.8281 19.2417V24.1681H30.0739C30.0595 22.272 29.7728 20.3878 29.2224 18.5732Z" fill="#F8F8FF"/>
</g>
<defs>
<clipPath id="clip0_1133_5342">
<rect width="21" height="21" fill="white" transform="translate(14 14)"/>
</clipPath>
</defs>
</svg>
