<svg width="49" height="49" viewBox="0 0 49 49" fill="none" xmlns="http://www.w3.org/2000/svg">
<circle cx="24.498" cy="24.498" r="24.498" fill="#746ECC"/>
<g clip-path="url(#clip0_1133_5145)">
<path d="M29.6095 24.6887L24.6455 29.6538C24.2999 29.9901 23.7093 30.0005 23.3527 29.6538L18.3888 24.6882C16.881 23.1821 16.881 20.7419 18.3877 19.2353C19.8954 17.7276 22.3345 17.7276 23.8422 19.2353L23.9991 19.3922L24.155 19.2358C25.6633 17.727 28.1034 17.7281 29.6101 19.2358C31.1178 20.7419 31.1167 23.1821 29.6095 24.6887Z" fill="#F8F8FF"/>
<path d="M24.8203 14.0452V10.8203C24.8203 10.3673 24.453 10 24 10C23.547 10 23.1797 10.3673 23.1797 10.8203V14.0452C23.1797 14.4982 23.547 14.8655 24 14.8655C24.453 14.8655 24.8203 14.4982 24.8203 14.0452Z" fill="#F8F8FF"/>
<path d="M10.8203 24.8203H14.0452C14.4983 24.8203 14.8655 24.453 14.8655 24C14.8655 23.547 14.4983 23.1797 14.0452 23.1797H10.8203C10.3673 23.1797 10 23.547 10 24C10 24.453 10.3673 24.8203 10.8203 24.8203Z" fill="#F8F8FF"/>
<path d="M24 33.1348C23.547 33.1348 23.1797 33.502 23.1797 33.9551V37.1799C23.1797 37.633 23.547 38.0003 24 38.0003C24.453 38.0003 24.8203 37.633 24.8203 37.1799V33.9551C24.8203 33.502 24.453 33.1348 24 33.1348Z" fill="#F8F8FF"/>
<path d="M37.9984 24C37.9984 23.547 37.6311 23.1797 37.178 23.1797H33.9531C33.5001 23.1797 33.1328 23.547 33.1328 24C33.1328 24.453 33.5001 24.8203 33.9531 24.8203H37.178C37.6311 24.8203 37.9984 24.453 37.9984 24Z" fill="#F8F8FF"/>
<path d="M17.5401 17.541C17.8605 17.2207 17.8605 16.7013 17.5401 16.381L15.2597 14.1006C14.9394 13.7803 14.42 13.7802 14.0996 14.1006C13.7793 14.421 13.7793 14.9403 14.0996 15.2607L16.38 17.541C16.7004 17.8614 17.2198 17.8615 17.5401 17.541Z" fill="#F8F8FF"/>
<path d="M14.0996 33.8994C14.4199 34.2197 14.9393 34.2197 15.2597 33.8994L17.5401 31.6191C17.8604 31.2987 17.8604 30.7794 17.5401 30.459C17.2198 30.1387 16.7004 30.1386 16.38 30.459L14.0996 32.7393C13.7793 33.0597 13.7793 33.579 14.0996 33.8994Z" fill="#F8F8FF"/>
<path d="M32.7394 33.8994C33.0597 34.2197 33.5791 34.2197 33.8995 33.8994C34.2198 33.579 34.2198 33.0597 33.8995 32.7393L31.6191 30.459C31.2988 30.1387 30.7794 30.1386 30.459 30.459C30.1387 30.7794 30.1387 31.2987 30.459 31.6191L32.7394 33.8994Z" fill="#F8F8FF"/>
<path d="M31.6191 17.541L33.8995 15.2607C34.2198 14.9403 34.2198 14.421 33.8995 14.1006C33.5792 13.7803 33.0597 13.7802 32.7394 14.1006L30.459 16.3809C30.1387 16.7013 30.1387 17.2206 30.459 17.541C30.7793 17.8613 31.2987 17.8613 31.6191 17.541Z" fill="#F8F8FF"/>
</g>
<defs>
<clipPath id="clip0_1133_5145">
<rect width="28" height="28" fill="white" transform="translate(10 10)"/>
</clipPath>
</defs>
</svg>
