<svg width="49" height="49" viewBox="0 0 49 49" fill="none" xmlns="http://www.w3.org/2000/svg">
<circle cx="24.498" cy="24.498" r="24.498" fill="#746ECC"/>
<path d="M29.9688 15.3438H19.0312C17.9956 15.345 17.0028 15.7569 16.2705 16.4892C15.5382 17.2215 15.1262 18.2144 15.125 19.25V27.0625C15.1262 28.0981 15.5382 29.091 16.2705 29.8233C17.0028 30.5556 17.9956 30.9675 19.0312 30.9688H20.5938V34.875C20.5939 35.0243 20.6368 35.1704 20.7174 35.2961C20.798 35.4217 20.9129 35.5216 21.0485 35.584C21.1841 35.6464 21.3348 35.6686 21.4826 35.6481C21.6305 35.6275 21.7694 35.565 21.8828 35.468L27.1328 30.9688H29.9688C31.0044 30.9675 31.9972 30.5556 32.7295 29.8233C33.4618 29.091 33.8738 28.0981 33.875 27.0625V19.25C33.8738 18.2144 33.4618 17.2215 32.7295 16.4892C31.9972 15.7569 31.0044 15.345 29.9688 15.3438ZM19.8125 24.7188C19.5035 24.7188 19.2014 24.6271 18.9444 24.4554C18.6875 24.2837 18.4872 24.0397 18.3689 23.7542C18.2507 23.4687 18.2197 23.1545 18.28 22.8514C18.3403 22.5483 18.4891 22.2699 18.7076 22.0514C18.9262 21.8329 19.2046 21.6841 19.5077 21.6238C19.8108 21.5635 20.1249 21.5944 20.4104 21.7127C20.696 21.8309 20.94 22.0312 21.1117 22.2882C21.2834 22.5451 21.375 22.8472 21.375 23.1562C21.375 23.5707 21.2104 23.9681 20.9174 24.2611C20.6243 24.5541 20.2269 24.7188 19.8125 24.7188ZM24.5 24.7188C24.191 24.7188 23.8889 24.6271 23.6319 24.4554C23.375 24.2837 23.1747 24.0397 23.0564 23.7542C22.9382 23.4687 22.9072 23.1545 22.9675 22.8514C23.0278 22.5483 23.1766 22.2699 23.3951 22.0514C23.6137 21.8329 23.8921 21.6841 24.1952 21.6238C24.4983 21.5635 24.8124 21.5944 25.0979 21.7127C25.3835 21.8309 25.6275 22.0312 25.7992 22.2882C25.9709 22.5451 26.0625 22.8472 26.0625 23.1562C26.0625 23.5707 25.8979 23.9681 25.6049 24.2611C25.3118 24.5541 24.9144 24.7188 24.5 24.7188ZM29.1875 24.7188C28.8785 24.7188 28.5764 24.6271 28.3194 24.4554C28.0625 24.2837 27.8622 24.0397 27.7439 23.7542C27.6257 23.4687 27.5947 23.1545 27.655 22.8514C27.7153 22.5483 27.8641 22.2699 28.0826 22.0514C28.3012 21.8329 28.5796 21.6841 28.8827 21.6238C29.1858 21.5635 29.4999 21.5944 29.7854 21.7127C30.071 21.8309 30.315 22.0312 30.4867 22.2882C30.6584 22.5451 30.75 22.8472 30.75 23.1562C30.75 23.5707 30.5854 23.9681 30.2924 24.2611C29.9993 24.5541 29.6019 24.7188 29.1875 24.7188Z" fill="#F8F8FF"/>
</svg>
