<svg width="32" height="32" viewBox="0 0 32 32" fill="none" xmlns="http://www.w3.org/2000/svg">
<path d="M16 22C19.3137 22 22 19.3137 22 16C22 12.6863 19.3137 10 16 10C12.6863 10 10 12.6863 10 16C10 19.3137 12.6863 22 16 22Z" stroke="currentColor" stroke-width="2" stroke-linecap="round" stroke-linejoin="round"/>
<path d="M15.3589 5.51928L13.0002 3.75079C12.8737 3.65559 12.7263 3.59183 12.5703 3.56475C12.4143 3.53768 12.254 3.54808 12.1028 3.59508C11.3723 3.82384 10.6636 4.11708 9.98497 4.47132C9.84449 4.545 9.72356 4.65104 9.63213 4.78067C9.54072 4.91029 9.48144 5.05981 9.4592 5.21687L9.04223 8.13573C8.88329 8.27661 8.72769 8.42315 8.57543 8.57533C8.42321 8.72755 8.27664 8.8832 8.13572 9.04225L5.21731 9.45964C5.06051 9.48181 4.91121 9.54093 4.78173 9.63212C4.65227 9.72331 4.54632 9.84396 4.47263 9.98413C4.11783 10.6624 3.82403 11.3709 3.59468 12.1013C3.54745 12.2527 3.53692 12.4132 3.56393 12.5695C3.59096 12.7258 3.65477 12.8734 3.75009 13.0002L5.5192 15.3589C5.50644 15.5711 5.50003 15.7847 5.49996 15.9999C5.49996 16.2152 5.50637 16.4289 5.51921 16.6411L3.75071 18.9997C3.65551 19.1263 3.59175 19.2737 3.56468 19.4297C3.5376 19.5857 3.548 19.746 3.59501 19.8972C3.82376 20.6277 4.117 21.3364 4.47124 22.0151C4.54492 22.1555 4.65096 22.2764 4.78059 22.3679C4.91021 22.4593 5.05973 22.5185 5.21679 22.5408L8.13565 22.9577C8.27653 23.1167 8.42307 23.2723 8.57525 23.4245C8.72747 23.5768 8.88311 23.7233 9.04217 23.8643L9.45956 26.7827C9.48173 26.9395 9.54084 27.0888 9.63204 27.2183C9.72323 27.3477 9.84388 27.4537 9.98405 27.5273C10.6623 27.8821 11.3708 28.176 12.1012 28.4053C12.2526 28.4525 12.4131 28.4631 12.5694 28.436C12.7257 28.4091 12.8733 28.3452 13.0001 28.2499L15.3589 26.4808C15.5709 26.4936 15.7845 26.5 15.9998 26.5C16.215 26.5 16.4288 26.4936 16.6409 26.4808L18.9997 28.2493C19.1262 28.3445 19.2736 28.4083 19.4297 28.4353C19.5857 28.4624 19.7458 28.452 19.8972 28.4049C20.6276 28.1763 21.3364 27.8831 22.0149 27.5288C22.1554 27.4551 22.2764 27.3491 22.3678 27.2195C22.4592 27.0897 22.5185 26.9403 22.5408 26.7832L22.9577 23.8644C23.1166 23.7235 23.2722 23.5769 23.4245 23.4248C23.5768 23.2725 23.7233 23.1169 23.8642 22.9579L26.7826 22.5404C26.9394 22.5183 27.0888 22.4592 27.2182 22.368C27.3477 22.2768 27.4536 22.1561 27.5273 22.016C27.8821 21.3376 28.1758 20.6292 28.4052 19.8988C28.4525 19.7475 28.463 19.5869 28.436 19.4307C28.4089 19.2743 28.3452 19.1267 28.2498 18.9999L26.4808 16.6411C26.4934 16.4291 26.4998 16.2155 26.5 16.0001C26.5 15.7849 26.4936 15.5712 26.4808 15.3591L28.2492 13.0003C28.3444 12.8738 28.4082 12.7264 28.4353 12.5704C28.4624 12.4143 28.452 12.2541 28.4049 12.1029C28.1761 11.3724 27.8829 10.6636 27.5286 9.98504C27.455 9.84457 27.3489 9.72364 27.2193 9.63221C27.0897 9.5408 26.9402 9.48152 26.7832 9.45928L23.8642 9.04231C23.7234 8.88337 23.5769 8.72777 23.4246 8.57551C23.2725 8.42328 23.1168 8.27672 22.9577 8.1358L22.5404 5.21739C22.5182 5.06059 22.459 4.91129 22.3678 4.78181C22.2766 4.65235 22.1561 4.54639 22.0158 4.47269C21.3376 4.11791 20.629 3.82411 19.8988 3.59476C19.7473 3.54753 19.5868 3.537 19.4305 3.56401C19.2742 3.59104 19.1266 3.65484 18.9998 3.75017L16.641 5.51928C16.429 5.50651 16.2153 5.50009 16.0001 5.50004C15.7848 5.50004 15.571 5.50644 15.3589 5.51928Z" stroke="currentColor" stroke-width="2" stroke-linecap="round" stroke-linejoin="round"/>
</svg>
