<svg width="134" height="135" viewBox="0 0 134 135" fill="none" xmlns="http://www.w3.org/2000/svg">
<g filter="url(#filter0_d_117_261)">
<circle cx="65" cy="66" r="64" fill="#50872B"/>
<g filter="url(#filter1_ii_117_261)">
<circle cx="65.509" cy="61.7333" r="59.7333" fill="url(#paint0_radial_117_261)"/>
</g>
<circle cx="65.509" cy="61.7333" r="60.2333" stroke="#528A28"/>
<ellipse cx="42.2904" cy="32.9675" rx="20.6452" ry="22.7097" fill="#D3F078"/>
</g>
<g filter="url(#filter2_d_117_261)">
<mask id="path-5-outside-1_117_261" maskUnits="userSpaceOnUse" x="23.358" y="15.966" width="87.6812" height="87.6812" fill="black">
<rect fill="white" x="23.358" y="15.966" width="87.6812" height="87.6812"/>
<path fill-rule="evenodd" clip-rule="evenodd" d="M104.226 59.8066C104.226 66.6478 98.6798 72.1937 91.8386 72.1937L79.4515 72.1937L79.4515 84.5808C79.4515 91.422 73.9056 96.9679 67.0644 96.9679C60.2232 96.9679 54.6773 91.422 54.6773 84.5808L54.6773 72.1937L42.2902 72.1937C35.449 72.1937 29.9031 66.6478 29.9031 59.8066C29.9031 52.9654 35.449 47.4195 42.2902 47.4195L54.6773 47.4195L54.6773 35.0325C54.6773 28.1912 60.2232 22.6454 67.0644 22.6453C73.9056 22.6454 79.4515 28.1912 79.4515 35.0324V47.4195L91.8386 47.4195C98.6798 47.4195 104.226 52.9654 104.226 59.8066Z"/>
</mask>
<path fill-rule="evenodd" clip-rule="evenodd" d="M104.226 59.8066C104.226 66.6478 98.6798 72.1937 91.8386 72.1937L79.4515 72.1937L79.4515 84.5808C79.4515 91.422 73.9056 96.9679 67.0644 96.9679C60.2232 96.9679 54.6773 91.422 54.6773 84.5808L54.6773 72.1937L42.2902 72.1937C35.449 72.1937 29.9031 66.6478 29.9031 59.8066C29.9031 52.9654 35.449 47.4195 42.2902 47.4195L54.6773 47.4195L54.6773 35.0325C54.6773 28.1912 60.2232 22.6454 67.0644 22.6453C73.9056 22.6454 79.4515 28.1912 79.4515 35.0324V47.4195L91.8386 47.4195C98.6798 47.4195 104.226 52.9654 104.226 59.8066Z" fill="white"/>
<path d="M91.8386 72.1937L91.8386 71.3937H91.8386L91.8386 72.1937ZM79.4515 72.1937L79.4515 71.3937L78.6515 71.3937L78.6515 72.1937L79.4515 72.1937ZM79.4515 84.5808L78.6515 84.5808L78.6515 84.5808L79.4515 84.5808ZM67.0644 96.9679L67.0644 97.7679L67.0644 97.7679L67.0644 96.9679ZM54.6773 84.5808L55.4773 84.5808L55.4773 84.5808L54.6773 84.5808ZM54.6773 72.1937L55.4773 72.1937L55.4773 71.3937L54.6773 71.3937L54.6773 72.1937ZM42.2902 72.1937L42.2902 72.9937H42.2902L42.2902 72.1937ZM29.9031 59.8066L29.1031 59.8066V59.8066L29.9031 59.8066ZM42.2902 47.4195L42.2902 46.6195H42.2902L42.2902 47.4195ZM54.6773 47.4195L54.6773 48.2195L55.4773 48.2195L55.4773 47.4195L54.6773 47.4195ZM54.6773 35.0325L53.8773 35.0325L53.8773 35.0325L54.6773 35.0325ZM67.0644 22.6453L67.0644 21.8453L67.0644 21.8453L67.0644 22.6453ZM79.4515 35.0324L78.6515 35.0324V35.0324H79.4515ZM79.4515 47.4195H78.6515V48.2195L79.4515 48.2195L79.4515 47.4195ZM91.8386 47.4195L91.8386 48.2195L91.8386 48.2195L91.8386 47.4195ZM91.8386 72.9937C99.1216 72.9937 105.026 67.0897 105.026 59.8066H103.426C103.426 66.206 98.238 71.3937 91.8386 71.3937V72.9937ZM79.4515 72.9937L91.8386 72.9937L91.8386 71.3937L79.4515 71.3937L79.4515 72.9937ZM78.6515 72.1937L78.6515 84.5808L80.2515 84.5808L80.2515 72.1937L78.6515 72.1937ZM78.6515 84.5808C78.6515 90.9802 73.4638 96.1679 67.0644 96.1679L67.0644 97.7679C74.3475 97.7679 80.2515 91.8639 80.2515 84.5808L78.6515 84.5808ZM67.0644 96.1679C60.6651 96.1679 55.4773 90.9802 55.4773 84.5808L53.8773 84.5808C53.8773 91.8639 59.7814 97.7679 67.0644 97.7679L67.0644 96.1679ZM55.4773 84.5808L55.4773 72.1937L53.8773 72.1937L53.8773 84.5808L55.4773 84.5808ZM42.2902 72.9937L54.6773 72.9937L54.6773 71.3937L42.2902 71.3937L42.2902 72.9937ZM29.1031 59.8066C29.1031 67.0897 35.0072 72.9937 42.2902 72.9937L42.2902 71.3937C35.8908 71.3937 30.7031 66.206 30.7031 59.8066L29.1031 59.8066ZM42.2902 46.6195C35.0072 46.6195 29.1031 52.5236 29.1031 59.8066L30.7031 59.8066C30.7031 53.4073 35.8908 48.2195 42.2902 48.2195L42.2902 46.6195ZM54.6773 46.6195L42.2902 46.6195L42.2902 48.2195L54.6773 48.2195L54.6773 46.6195ZM55.4773 47.4195L55.4773 35.0325L53.8773 35.0325L53.8773 47.4195L55.4773 47.4195ZM55.4773 35.0325C55.4773 28.6331 60.6651 23.4454 67.0644 23.4453L67.0644 21.8453C59.7814 21.8454 53.8773 27.7494 53.8773 35.0325L55.4773 35.0325ZM67.0644 23.4453C73.4638 23.4454 78.6515 28.6331 78.6515 35.0324L80.2515 35.0324C80.2515 27.7494 74.3475 21.8454 67.0644 21.8453L67.0644 23.4453ZM78.6515 35.0324V47.4195H80.2515V35.0324H78.6515ZM91.8386 46.6195L79.4515 46.6195L79.4515 48.2195L91.8386 48.2195L91.8386 46.6195ZM105.026 59.8066C105.026 52.5236 99.1216 46.6195 91.8386 46.6195L91.8386 48.2195C98.238 48.2195 103.426 53.4073 103.426 59.8066H105.026Z" fill="#51862E" mask="url(#path-5-outside-1_117_261)"/>
</g>
<defs>
<filter id="filter0_d_117_261" x="0" y="0" width="134" height="135" filterUnits="userSpaceOnUse" color-interpolation-filters="sRGB">
<feFlood flood-opacity="0" result="BackgroundImageFix"/>
<feColorMatrix in="SourceAlpha" type="matrix" values="0 0 0 0 0 0 0 0 0 0 0 0 0 0 0 0 0 0 127 0" result="hardAlpha"/>
<feOffset dx="2" dy="2"/>
<feGaussianBlur stdDeviation="1.5"/>
<feColorMatrix type="matrix" values="0 0 0 0 0.732731 0 0 0 0 0.711838 0 0 0 0 0.565589 0 0 0 1 0"/>
<feBlend mode="normal" in2="BackgroundImageFix" result="effect1_dropShadow_117_261"/>
<feBlend mode="normal" in="SourceGraphic" in2="effect1_dropShadow_117_261" result="shape"/>
</filter>
<filter id="filter1_ii_117_261" x="3.77563" y="0" width="123.467" height="124.467" filterUnits="userSpaceOnUse" color-interpolation-filters="sRGB">
<feFlood flood-opacity="0" result="BackgroundImageFix"/>
<feBlend mode="normal" in="SourceGraphic" in2="BackgroundImageFix" result="shape"/>
<feColorMatrix in="SourceAlpha" type="matrix" values="0 0 0 0 0 0 0 0 0 0 0 0 0 0 0 0 0 0 127 0" result="hardAlpha"/>
<feOffset dx="1" dy="2"/>
<feGaussianBlur stdDeviation="1"/>
<feComposite in2="hardAlpha" operator="arithmetic" k2="-1" k3="1"/>
<feColorMatrix type="matrix" values="0 0 0 0 0.841313 0 0 0 0 0.899398 0 0 0 0 0.173336 0 0 0 1 0"/>
<feBlend mode="normal" in2="shape" result="effect1_innerShadow_117_261"/>
<feColorMatrix in="SourceAlpha" type="matrix" values="0 0 0 0 0 0 0 0 0 0 0 0 0 0 0 0 0 0 127 0" result="hardAlpha"/>
<feOffset dx="-1" dy="-2"/>
<feGaussianBlur stdDeviation="0.5"/>
<feComposite in2="hardAlpha" operator="arithmetic" k2="-1" k3="1"/>
<feColorMatrix type="matrix" values="0 0 0 0 0.502558 0 0 0 0 0.836898 0 0 0 0 0.370515 0 0 0 1 0"/>
<feBlend mode="normal" in2="effect1_innerShadow_117_261" result="effect2_innerShadow_117_261"/>
</filter>
<filter id="filter2_d_117_261" x="27.103" y="20.8457" width="79.9226" height="79.9219" filterUnits="userSpaceOnUse" color-interpolation-filters="sRGB">
<feFlood flood-opacity="0" result="BackgroundImageFix"/>
<feColorMatrix in="SourceAlpha" type="matrix" values="0 0 0 0 0 0 0 0 0 0 0 0 0 0 0 0 0 0 127 0" result="hardAlpha"/>
<feOffset dy="1"/>
<feGaussianBlur stdDeviation="1"/>
<feColorMatrix type="matrix" values="0 0 0 0 0.317647 0 0 0 0 0.52549 0 0 0 0 0.180392 0 0 0 1 0"/>
<feBlend mode="normal" in2="BackgroundImageFix" result="effect1_dropShadow_117_261"/>
<feBlend mode="normal" in="SourceGraphic" in2="effect1_dropShadow_117_261" result="shape"/>
</filter>
<radialGradient id="paint0_radial_117_261" cx="0" cy="0" r="1" gradientUnits="userSpaceOnUse" gradientTransform="translate(54.6775 43.2901) rotate(63.435) scale(87.7116 143.225)">
<stop stop-color="#99E93F"/>
<stop offset="1" stop-color="#71B937"/>
</radialGradient>
</defs>
</svg>
