<svg width="32" height="32" viewBox="0 0 32 32" fill="none" xmlns="http://www.w3.org/2000/svg">
<path d="M10.9999 13V9C10.9999 7.67392 11.5267 6.40214 12.4644 5.46446C13.4021 4.52678 14.6738 4 15.9999 4C17.3259 4 18.5978 4.52678 19.5355 5.46446C20.4731 6.40214 20.9999 7.67392 20.9999 9V13M26.1048 9H5.89495C5.64887 9 5.41142 9.09075 5.22804 9.25488C5.04467 9.41899 4.92825 9.64498 4.90108 9.88957L3.12331 25.8896C3.10777 26.0293 3.1219 26.1709 3.16476 26.3048C3.20763 26.4387 3.27827 26.5621 3.37206 26.6669C3.46585 26.7717 3.5807 26.8555 3.7091 26.913C3.83748 26.9704 3.97654 27 4.11718 27H27.8827C28.0234 27 28.1624 26.9704 28.2907 26.913C28.4192 26.8555 28.5339 26.7717 28.6279 26.6669C28.7216 26.5621 28.7922 26.4387 28.835 26.3048C28.8779 26.1709 28.892 26.0293 28.8765 25.8896L27.0987 9.88957C27.0715 9.64498 26.9552 9.41899 26.7719 9.25488C26.5885 9.09075 26.351 9 26.1048 9Z" stroke="white" stroke-width="2" stroke-linecap="round" stroke-linejoin="round"/>
</svg>
