<svg width="32" height="32" viewBox="0 0 32 32" fill="none" xmlns="http://www.w3.org/2000/svg">
<path d="M4 16H9L11 13L15 19L17 16H20M3.51428 11.9992C3.50483 11.8334 3.50007 11.667 3.5 11.5C3.50025 9.99768 4.02081 8.5418 4.97319 7.37991C5.92555 6.21801 7.25093 5.42181 8.72399 5.12668C10.197 4.83156 11.7269 5.05572 13.0533 5.76105C14.3797 6.46639 15.4211 7.60936 16 8.99564C16.5789 7.60935 17.6203 6.46639 18.9467 5.76105C20.2732 5.05572 21.8029 4.83156 23.276 5.12668C24.7491 5.42181 26.0744 6.21801 27.0268 7.37991C27.9792 8.5418 28.4997 9.99768 28.5 11.5C28.5 20 16 27 16 27C16 27 11.0069 24.2039 7.33219 20.0001" stroke="white" stroke-width="2" stroke-linecap="round" stroke-linejoin="round"/>
</svg>
