<svg width="32" height="32" viewBox="0 0 32 32" fill="none" xmlns="http://www.w3.org/2000/svg">
<path d="M20 16C20 18.2091 18.2091 20 16 20V22C19.3137 22 22 19.3137 22 16H20ZM16 20C13.7909 20 12 18.2091 12 16H10C10 19.3137 12.6863 22 16 22V20ZM12 16C12 13.7909 13.7909 12 16 12V10C12.6863 10 10 12.6863 10 16H12ZM16 12C18.2091 12 20 13.7909 20 16H22C22 12.6863 19.3137 10 16 10V12ZM10.5 5.5H21.5V3.5H10.5V5.5ZM21.5 5.5C24.2614 5.5 26.5 7.73858 26.5 10.5H28.5C28.5 6.63401 25.366 3.5 21.5 3.5V5.5ZM26.5 10.5V21.5H28.5V10.5H26.5ZM26.5 21.5C26.5 24.2614 24.2614 26.5 21.5 26.5V28.5C25.366 28.5 28.5 25.366 28.5 21.5H26.5ZM21.5 26.5H10.5V28.5H21.5V26.5ZM10.5 26.5C7.73858 26.5 5.5 24.2614 5.5 21.5H3.5C3.5 25.366 6.63401 28.5 10.5 28.5V26.5ZM5.5 21.5V10.5H3.5V21.5H5.5ZM5.5 10.5C5.5 7.73858 7.73858 5.5 10.5 5.5V3.5C6.63401 3.5 3.5 6.63401 3.5 10.5H5.5ZM22.176 11.048C23.1123 11.048 23.88 10.2803 23.88 9.344H21.88C21.88 9.25345 21.918 9.1798 21.9649 9.13289C22.0118 9.08598 22.0854 9.048 22.176 9.048V11.048ZM23.88 9.344C23.88 8.40771 23.1123 7.64 22.176 7.64V9.64C22.0854 9.64 22.0118 9.60202 21.9649 9.55511C21.918 9.5082 21.88 9.43455 21.88 9.344H23.88ZM22.176 7.64C21.2397 7.64 20.472 8.40772 20.472 9.344H22.472C22.472 9.43455 22.434 9.5082 22.3871 9.55511C22.3402 9.60202 22.2666 9.64 22.176 9.64V7.64ZM20.472 9.344C20.472 10.2803 21.2397 11.048 22.176 11.048V9.048C22.2666 9.048 22.3402 9.08598 22.3871 9.13289C22.434 9.17981 22.472 9.25345 22.472 9.344H20.472Z" fill="white"/>
</svg>
