<svg width="26" height="26" viewBox="0 0 26 26" fill="none" xmlns="http://www.w3.org/2000/svg">
  <path d="M16.25 1.625C14.9676 1.62615 13.7036 1.93058 12.5613 2.51343C11.419 3.09628 10.4307 3.94103 9.67717 4.9787C8.92362 6.01637 8.42617 7.21755 8.22543 8.48416C8.02469 9.75077 8.12635 11.0469 8.52211 12.2667L2.67516 18.1127C2.59973 18.1882 2.53992 18.2778 2.49914 18.3764C2.45836 18.4751 2.43742 18.5808 2.4375 18.6875V22.75C2.4375 22.9655 2.5231 23.1722 2.67548 23.3245C2.82785 23.4769 3.03451 23.5625 3.25 23.5625H7.3125C7.52799 23.5625 7.73465 23.4769 7.88702 23.3245C8.0394 23.1722 8.125 22.9655 8.125 22.75V21.125H9.75C9.96549 21.125 10.1722 21.0394 10.3245 20.887C10.4769 20.7347 10.5625 20.528 10.5625 20.3125V18.6875H12.1875C12.2942 18.6876 12.3999 18.6666 12.4986 18.6259C12.5972 18.5851 12.6868 18.5253 12.7623 18.4498L13.7333 17.4779C14.85 17.8405 16.032 17.9567 17.1979 17.8186C18.3639 17.6805 19.486 17.2914 20.4871 16.678C21.4883 16.0646 22.3445 15.2415 22.997 14.2655C23.6495 13.2894 24.0827 12.1835 24.2668 11.0239C24.4509 9.86436 24.3815 8.67867 24.0634 7.54851C23.7453 6.41834 23.186 5.37055 22.4241 4.47727C21.6621 3.58399 20.7157 2.86645 19.6498 2.37405C18.584 1.88166 17.4241 1.62611 16.25 1.625ZM16.25 16.25C15.4275 16.2514 14.6123 16.0959 13.848 15.792C13.6985 15.7271 13.533 15.7086 13.3729 15.7391C13.2128 15.7695 13.0655 15.8474 12.9502 15.9626L11.8513 17.0625H9.75C9.53451 17.0625 9.32785 17.1481 9.17548 17.3005C9.0231 17.4528 8.9375 17.6595 8.9375 17.875V19.5H7.3125C7.09701 19.5 6.89035 19.5856 6.73798 19.738C6.5856 19.8903 6.5 20.097 6.5 20.3125V21.9375H4.0625V19.0237L10.0374 13.0498C10.1526 12.9345 10.2305 12.7872 10.2609 12.6271C10.2914 12.467 10.2729 12.3015 10.208 12.152C9.69423 10.8599 9.60828 9.43718 9.9628 8.09269C10.3173 6.74819 11.0936 5.55282 12.1777 4.68214C13.2618 3.81145 14.5966 3.31135 15.9859 3.25529C17.3752 3.19922 18.7459 3.59015 19.8966 4.37064C21.0473 5.15114 21.9174 6.28007 22.3792 7.59162C22.8409 8.90318 22.8698 10.3282 22.4618 11.6575C22.0538 12.9867 21.2302 14.15 20.1122 14.9767C18.9941 15.8033 17.6404 16.2496 16.25 16.25ZM19.5 7.71875C19.5 7.9598 19.4285 8.19543 19.2946 8.39585C19.1607 8.59627 18.9703 8.75248 18.7476 8.84473C18.5249 8.93697 18.2799 8.96111 18.0435 8.91408C17.8071 8.86706 17.5899 8.75098 17.4195 8.58054C17.249 8.41009 17.1329 8.19293 17.0859 7.95652C17.0389 7.7201 17.063 7.47505 17.1553 7.25235C17.2475 7.02966 17.4037 6.83931 17.6042 6.7054C17.8046 6.57148 18.0402 6.5 18.2813 6.5C18.6045 6.5 18.9145 6.6284 19.143 6.85696C19.3716 7.08552 19.5 7.39552 19.5 7.71875Z" fill="#746ECC"/>
</svg>