<svg width="157" height="130" viewBox="0 0 157 130" fill="none" xmlns="http://www.w3.org/2000/svg">
<path d="M56.1323 122.661C55.1257 122.661 54.2465 122.464 53.4947 122.069C52.7557 121.674 52.1823 121.107 51.7745 120.368C51.3668 119.629 51.1629 118.756 51.1629 117.749C51.1629 116.998 51.2776 116.322 51.5069 115.723C51.7363 115.125 52.0676 114.615 52.5008 114.194C52.9468 113.761 53.4756 113.436 54.0872 113.22C54.6988 112.99 55.3805 112.876 56.1323 112.876C57.1389 112.876 58.0117 113.073 58.7508 113.468C59.5026 113.863 60.0823 114.424 60.4901 115.15C60.9106 115.876 61.1208 116.743 61.1208 117.749C61.1208 118.514 60.9998 119.196 60.7577 119.794C60.5283 120.393 60.197 120.909 59.7638 121.343C59.3305 121.776 58.8018 122.107 58.1774 122.336C57.5658 122.553 56.8841 122.661 56.1323 122.661ZM56.1323 120.502C56.5528 120.502 56.9159 120.4 57.2217 120.196C57.5275 119.992 57.7696 119.693 57.948 119.298C58.1264 118.89 58.2156 118.374 58.2156 117.749C58.2156 116.819 58.0245 116.137 57.6422 115.704C57.26 115.258 56.7567 115.035 56.1323 115.035C55.7246 115.035 55.3614 115.131 55.0429 115.322C54.737 115.513 54.4949 115.813 54.3166 116.22C54.1509 116.615 54.0681 117.125 54.0681 117.749C54.0681 118.68 54.2592 119.374 54.6415 119.833C55.0237 120.279 55.5207 120.502 56.1323 120.502ZM66.2406 122.623C65.7691 122.623 65.406 122.496 65.1511 122.241C64.909 121.986 64.788 121.623 64.788 121.151V114.366C64.788 113.895 64.909 113.538 65.1511 113.296C65.406 113.041 65.7564 112.914 66.2023 112.914C66.661 112.914 67.0115 113.041 67.2536 113.296C67.4956 113.538 67.6167 113.895 67.6167 114.366V115.456L67.4065 114.825C67.6995 114.201 68.1328 113.723 68.7061 113.392C69.2923 113.048 69.9549 112.876 70.6939 112.876C71.4457 112.876 72.0637 113.022 72.5479 113.315C73.0321 113.595 73.3952 114.029 73.6373 114.615C73.8794 115.188 74.0005 115.921 74.0005 116.813V121.151C74.0005 121.623 73.873 121.986 73.6182 122.241C73.3761 122.496 73.0193 122.623 72.5479 122.623C72.0892 122.623 71.7324 122.496 71.4775 122.241C71.2354 121.986 71.1144 121.623 71.1144 121.151V116.947C71.1144 116.297 70.9933 115.832 70.7512 115.551C70.5219 115.258 70.1651 115.112 69.6809 115.112C69.0693 115.112 68.5787 115.303 68.2092 115.685C67.8524 116.067 67.674 116.577 67.674 117.214V121.151C67.674 122.133 67.1962 122.623 66.2406 122.623ZM81.4493 122.661C80.3153 122.661 79.4679 122.349 78.9073 121.725C78.3466 121.088 78.0663 120.145 78.0663 118.896V110.276C78.0663 109.792 78.1874 109.429 78.4295 109.187C78.6843 108.932 79.0474 108.804 79.5189 108.804C79.9776 108.804 80.328 108.932 80.5701 109.187C80.825 109.429 80.9524 109.792 80.9524 110.276V118.781C80.9524 119.304 81.0607 119.693 81.2773 119.947C81.5067 120.189 81.8061 120.311 82.1756 120.311C82.2775 120.311 82.3731 120.304 82.4623 120.291C82.5515 120.279 82.6471 120.272 82.749 120.272C82.9529 120.247 83.093 120.311 83.1695 120.463C83.2587 120.604 83.3033 120.89 83.3033 121.324C83.3033 121.706 83.2268 121.999 83.0739 122.203C82.921 122.394 82.6853 122.521 82.3667 122.585C82.2393 122.598 82.0928 122.61 81.9271 122.623C81.7615 122.649 81.6022 122.661 81.4493 122.661ZM87.795 122.604C87.3235 122.604 86.9604 122.47 86.7056 122.203C86.4635 121.922 86.3424 121.534 86.3424 121.037V114.5C86.3424 113.99 86.4635 113.602 86.7056 113.334C86.9604 113.054 87.3235 112.914 87.795 112.914C88.2537 112.914 88.6041 113.054 88.8462 113.334C89.1011 113.602 89.2285 113.99 89.2285 114.5V121.037C89.2285 121.534 89.1074 121.922 88.8653 122.203C88.6232 122.47 88.2665 122.604 87.795 122.604ZM87.795 111.346C87.2598 111.346 86.8457 111.225 86.5526 110.983C86.2723 110.729 86.1322 110.372 86.1322 109.913C86.1322 109.442 86.2723 109.085 86.5526 108.843C86.8457 108.588 87.2598 108.46 87.795 108.46C88.3302 108.46 88.7379 108.588 89.0182 108.843C89.2986 109.085 89.4387 109.442 89.4387 109.913C89.4387 110.372 89.2986 110.729 89.0182 110.983C88.7379 111.225 88.3302 111.346 87.795 111.346ZM94.8205 122.623C94.3491 122.623 93.9859 122.496 93.7311 122.241C93.489 121.986 93.3679 121.623 93.3679 121.151V114.366C93.3679 113.895 93.489 113.538 93.7311 113.296C93.9859 113.041 94.3363 112.914 94.7823 112.914C95.241 112.914 95.5914 113.041 95.8335 113.296C96.0756 113.538 96.1967 113.895 96.1967 114.366V115.456L95.9864 114.825C96.2795 114.201 96.7127 113.723 97.2861 113.392C97.8722 113.048 98.5348 112.876 99.2739 112.876C100.026 112.876 100.644 113.022 101.128 113.315C101.612 113.595 101.975 114.029 102.217 114.615C102.459 115.188 102.58 115.921 102.58 116.813V121.151C102.58 121.623 102.453 121.986 102.198 122.241C101.956 122.496 101.599 122.623 101.128 122.623C100.669 122.623 100.312 122.496 100.058 122.241C99.8154 121.986 99.6944 121.623 99.6944 121.151V116.947C99.6944 116.297 99.5733 115.832 99.3312 115.551C99.1019 115.258 98.7451 115.112 98.2609 115.112C97.6493 115.112 97.1587 115.303 96.7892 115.685C96.4324 116.067 96.254 116.577 96.254 117.214V121.151C96.254 122.133 95.7762 122.623 94.8205 122.623ZM111.52 122.661C110.412 122.661 109.456 122.464 108.653 122.069C107.863 121.661 107.252 121.094 106.818 120.368C106.398 119.629 106.188 118.762 106.188 117.768C106.188 116.8 106.391 115.953 106.799 115.226C107.207 114.487 107.774 113.914 108.5 113.506C109.239 113.086 110.074 112.876 111.004 112.876C111.679 112.876 112.291 112.99 112.839 113.22C113.387 113.436 113.858 113.755 114.253 114.175C114.648 114.583 114.948 115.086 115.152 115.685C115.355 116.271 115.457 116.928 115.457 117.654C115.457 117.896 115.381 118.081 115.228 118.208C115.075 118.323 114.852 118.38 114.559 118.38H108.558V116.889H113.374L113.068 117.157C113.068 116.634 112.992 116.201 112.839 115.857C112.686 115.5 112.463 115.233 112.17 115.054C111.89 114.876 111.539 114.787 111.119 114.787C110.647 114.787 110.246 114.895 109.915 115.112C109.583 115.328 109.328 115.641 109.15 116.048C108.972 116.456 108.883 116.947 108.883 117.52V117.673C108.883 118.641 109.105 119.355 109.551 119.814C110.01 120.272 110.686 120.502 111.577 120.502C111.883 120.502 112.234 120.463 112.629 120.387C113.024 120.311 113.393 120.189 113.737 120.024C114.03 119.884 114.292 119.839 114.521 119.89C114.75 119.928 114.929 120.03 115.056 120.196C115.183 120.361 115.254 120.553 115.266 120.769C115.292 120.986 115.247 121.202 115.132 121.419C115.018 121.623 114.827 121.795 114.559 121.935C114.126 122.177 113.635 122.356 113.087 122.47C112.552 122.598 112.03 122.661 111.52 122.661Z" fill="#4250AF"/>
<path d="M73.1363 40.3278C66.3569 42.893 63.1019 44.1648 62.9833 44.3157C62.757 44.5852 62.7354 45.0378 62.9402 45.3073C63.0264 45.4151 64.0504 45.8678 65.2144 46.3097C66.3784 46.7408 67.3808 47.1288 67.4454 47.1719C67.5101 47.215 67.2083 47.3875 66.7664 47.5599C66.3245 47.7324 65.9042 47.9479 65.8395 48.0449C65.7317 48.185 65.6994 49.8449 65.6994 55.4926V62.7678L64.3521 64.4384C62.8755 66.2598 62.7462 66.5509 63.2528 67.0251C63.5007 67.2622 63.5761 67.2622 66.5185 67.2622C69.5364 67.2622 69.5472 67.2622 69.7735 67.0143C70.2477 66.5185 70.1292 66.2491 68.6634 64.4168L67.3161 62.7354L67.3377 55.9345L67.37 49.1227L68.2861 48.7778C68.7927 48.5838 69.31 48.4006 69.4502 48.3575L69.6873 48.282V52.7334C69.6873 57.5835 69.7196 57.9176 70.3016 58.9847C71.4549 61.0972 74.4835 62.9186 78.2127 63.7378C80.1097 64.1581 81.3168 64.2875 83.4832 64.2875C84.5826 64.2875 85.9406 64.2228 86.501 64.1473C92.2026 63.3929 96.2983 60.957 97.1174 57.8314C97.2468 57.3033 97.2791 56.3764 97.2791 52.5933V48.0018L100.534 46.7731C102.323 46.0941 103.875 45.4474 103.983 45.3396C104.231 45.0702 104.231 44.6067 103.994 44.3157C103.757 44.0355 83.8712 36.534 83.4077 36.5555C83.2461 36.5663 78.6223 38.2584 73.1363 40.3278ZM92.2996 41.5565C96.9989 43.3241 100.804 44.8115 100.76 44.8546C100.717 44.8977 96.8049 46.3851 92.0841 48.1635L83.4832 51.3969L77.9972 49.3275C74.9685 48.1958 72.5327 47.2366 72.5758 47.2042C72.6189 47.1611 73.5997 46.7731 74.753 46.3528C75.9062 45.9216 76.9409 45.469 77.0487 45.3504C77.3289 45.0271 77.2858 44.4774 76.9517 44.2079C76.79 44.0786 76.5852 43.9816 76.4775 43.9816C76.3805 43.9816 74.8823 44.5097 73.1578 45.1564L70.0322 46.3312L68.1568 45.6306C67.1329 45.2534 66.2491 44.8977 66.206 44.8546C66.0982 44.7468 83.2569 38.2692 83.5371 38.3123C83.6556 38.3231 87.6004 39.7889 92.2996 41.5565ZM77.5876 50.955L83.4832 53.1753L89.5297 50.9011L95.5762 48.6269L95.5115 48.9718C95.2744 50.1574 93.9056 51.537 92.0302 52.4855C90.4135 53.2938 88.1824 53.9082 86.1023 54.113C84.1945 54.2962 84.1622 54.307 83.9143 54.6303C83.6341 54.986 83.688 55.471 84.0437 55.7728C84.2592 55.9452 84.4101 55.956 85.2616 55.9021C87.7729 55.7189 90.4782 55.0614 92.3751 54.1776C93.5068 53.6495 94.7031 52.8843 95.1774 52.3885C95.3498 52.2053 95.5331 52.0651 95.5869 52.0651C95.7378 52.0651 95.5654 53.3477 95.3498 53.8435C94.3044 56.2039 90.4243 58.0577 85.531 58.5428C84.3778 58.6613 84.1622 58.7044 83.9466 58.92C83.6233 59.2433 83.6341 59.6637 83.9682 59.987C84.2915 60.3104 84.8089 60.3319 86.6843 60.0948C90.0255 59.6529 92.8817 58.5859 94.8864 56.9907C95.2636 56.6997 95.5869 56.4841 95.6085 56.5057C95.6408 56.538 95.6193 56.8075 95.5546 57.1201C95.1666 59.1894 92.6877 61.0109 88.9584 61.9702C82.082 63.7378 73.5674 61.787 71.7136 58.0146L71.3579 57.2925L71.3255 52.9382C71.2932 48.7778 71.304 48.5946 71.4872 48.6593C71.595 48.7024 74.3326 49.7371 77.5876 50.955ZM67.3269 65.4515C67.4239 65.6347 67.3592 65.6455 66.5616 65.6455C66.012 65.6455 65.6994 65.6024 65.6994 65.5269C65.6994 65.4623 65.8826 65.1928 66.0982 64.9234L66.497 64.4384L66.8634 64.8479C67.0574 65.085 67.2622 65.3545 67.3269 65.4515Z" fill="#4250AF"/>
<path d="M73.8688 64.2659C73.4269 65.0635 73.0281 66.0335 72.7802 66.9065C72.5538 67.7365 72.5431 67.8442 72.5107 76.5098L72.4784 85.2724L77.7273 92.8709C81.6505 98.5617 83.0301 100.48 83.2241 100.523C83.8492 100.685 83.8061 100.75 89.2383 92.8709L94.4764 85.2831V76.8762C94.4764 67.9412 94.4656 67.661 93.9483 66.1521C93.7327 65.5377 93.0214 64.0504 92.8597 63.8779C92.8058 63.824 92.4717 63.9102 92.0729 64.0827L91.3831 64.3845L91.7064 64.9342C92.1699 65.7317 92.601 66.8634 92.795 67.8227C92.9459 68.534 92.9675 69.7627 92.9675 76.4236V84.1838H90.3269H87.6862V74.7961V65.3976L87.1258 65.4731C86.8132 65.5054 86.4683 65.5377 86.3713 65.5377C86.1881 65.5377 86.1773 66.0551 86.1773 74.8608V84.1838H83.4828H80.7883V74.8715V65.5701L80.2278 65.4946C79.9153 65.4623 79.5704 65.43 79.4734 65.43C79.2901 65.43 79.2793 65.9473 79.2793 74.8069V84.1838H76.6387H73.9981V76.4236C73.9981 69.7627 74.0197 68.534 74.1705 67.8227C74.3646 66.8634 74.7957 65.7317 75.2591 64.9342L75.5825 64.3845L74.925 64.1043C74.5693 63.9426 74.2352 63.8132 74.1921 63.8132C74.1598 63.8132 74.0089 64.018 73.8688 64.2659ZM92.1807 85.8328C92.1483 85.9083 90.6825 88.0746 88.9149 90.629L85.6923 95.2852H83.4828H81.2733L78.0506 90.629C76.283 88.0746 74.8172 85.9083 74.7849 85.8328C74.7418 85.7143 76.2938 85.6927 83.4828 85.6927C90.6718 85.6927 92.2238 85.7143 92.1807 85.8328ZM84.5606 96.848C84.5606 96.9558 83.5582 98.4108 83.4828 98.4108C83.4073 98.4108 82.405 96.9558 82.405 96.848C82.405 96.8157 82.89 96.7941 83.4828 96.7941C84.0756 96.7941 84.5606 96.8157 84.5606 96.848Z" fill="#4250AF"/>
<path d="M22.5998 86.8496C22.5523 87.5178 22.3332 88.0203 21.9424 88.3571C21.5529 88.6759 21.0203 88.8129 20.3447 88.7679L10.6221 88.121C9.94648 88.076 9.44742 87.8705 9.12487 87.5043C8.78535 87.1189 8.63802 86.6101 8.6829 85.9781C8.72906 85.328 8.9469 84.8436 9.33644 84.5248C9.70771 84.2048 10.2311 84.0672 10.9067 84.1122L12.6595 84.2288L11.5429 84.4539C10.7286 84.0368 10.0928 83.4321 9.63539 82.6396C9.178 81.8472 8.98585 80.9363 9.05894 79.907C9.13202 78.8777 9.43942 78.0364 9.98112 77.383C10.5228 76.7296 11.3152 76.2925 12.3582 76.0716L12.3312 76.4508C11.4283 75.9916 10.7409 75.338 10.2691 74.4902C9.7803 73.6231 9.57374 72.6568 9.64939 71.5914C9.72247 70.5621 9.99207 69.7364 10.4582 69.1143C10.9073 68.4729 11.5634 68.0176 12.4263 67.7484C13.271 67.4781 14.3325 67.3854 15.6106 67.4704L21.8276 67.8841C22.5032 67.929 23.0107 68.1442 23.3502 68.5297C23.6911 68.8971 23.8384 69.4058 23.7922 70.0559C23.7448 70.724 23.5257 71.2265 23.1348 71.5634C22.7453 71.8822 22.2128 72.0191 21.5372 71.9742L15.4571 71.5696C14.5624 71.5101 13.904 71.6114 13.4818 71.8736C13.0426 72.1166 12.7993 72.5721 12.7518 73.2402C12.6967 74.0167 12.9276 74.6399 13.4446 75.1097C13.9616 75.5795 14.7222 75.8479 15.7264 75.9147L21.2314 76.281C21.907 76.3259 22.4145 76.5411 22.754 76.9266C23.0948 77.2939 23.2422 77.8027 23.196 78.4528C23.1498 79.1028 22.9314 79.5963 22.5405 79.9332C22.1497 80.27 21.6165 80.416 20.941 80.371L14.8609 79.9665C13.9662 79.907 13.3078 80.0083 12.8855 80.2705C12.4464 80.5134 12.2031 80.969 12.1556 81.6371C12.1005 82.4136 12.3314 83.0367 12.8484 83.5066C13.3654 83.9764 14.126 84.2447 15.1302 84.3115L20.6352 84.6778C22.0411 84.7714 22.6959 85.4953 22.5998 86.8496Z" fill="#ED5181"/>
<path d="M27.8156 58.5523C27.1898 60.0019 26.3894 61.1422 25.4145 61.973C24.4299 62.78 23.3357 63.2655 22.1317 63.4294C20.9182 63.5696 19.655 63.3642 18.3422 62.8132C17.063 62.2763 16.0589 61.54 15.3297 60.6041C14.5837 59.6612 14.1464 58.6018 14.0179 57.426C13.8797 56.2264 14.0731 55.0184 14.5983 53.802C14.9795 52.9188 15.4763 52.1826 16.0885 51.5932C16.684 50.9968 17.3709 50.5569 18.1493 50.2734C18.9109 49.9829 19.7448 49.8703 20.6509 49.9357C21.5402 49.9941 22.4645 50.2246 23.4239 50.6272C23.7437 50.7614 23.9446 50.9638 24.0265 51.2344C24.0917 51.498 24.0416 51.8214 23.8761 52.2046L20.488 60.0529L18.5188 59.2265L21.2379 52.9278L21.4187 53.476C20.7287 53.1864 20.1133 53.0462 19.5725 53.0555C19.0149 53.0576 18.5356 53.2009 18.1345 53.4852C17.7406 53.7529 17.425 54.1617 17.1876 54.7116C16.9215 55.3281 16.8379 55.9131 16.937 56.4664C17.0361 57.0197 17.3046 57.5261 17.7425 57.9854C18.1804 58.4447 18.778 58.8333 19.5354 59.1512L19.7374 59.236C21.0165 59.7728 22.0849 59.8768 22.9426 59.5479C23.8074 59.2023 24.4916 58.4463 24.9952 57.2799C25.1678 56.88 25.3152 56.4006 25.4372 55.8416C25.5592 55.2827 25.6079 54.7324 25.5833 54.1906C25.5636 53.7297 25.6522 53.3634 25.849 53.0917C26.029 52.8129 26.2643 52.6362 26.555 52.5614C26.8458 52.4866 27.1378 52.5009 27.4311 52.6043C27.7316 52.6911 27.9926 52.8695 28.214 53.1395C28.4185 53.4025 28.5378 53.7478 28.5719 54.1754C28.6471 54.8762 28.6058 55.6166 28.448 56.3967C28.3141 57.1672 28.1034 57.8857 27.8156 58.5523Z" fill="#ED5181"/>
<path d="M38.9768 48.9947C38.3572 49.7579 37.6963 50.442 36.9943 51.0469C36.3037 51.6378 35.612 52.1 34.9193 52.4336C34.5128 52.6456 34.1381 52.7319 33.7952 52.6924C33.4638 52.6387 33.1754 52.503 32.9302 52.2854C32.6965 52.0537 32.5372 51.788 32.4523 51.4884C32.3788 51.1747 32.3911 50.8708 32.4892 50.5768C32.6014 50.2942 32.8179 50.0709 33.1385 49.9069C33.9286 49.5111 34.5787 49.0856 35.0888 48.6305C35.6104 48.1612 36.0261 47.7358 36.3359 47.3542C37.0703 46.4496 37.4143 45.6072 37.3679 44.8271C37.3215 44.047 36.8705 43.3178 36.0149 42.6396L34.3892 41.3508L34.5441 41.16C35.028 41.8921 35.207 42.7541 35.0813 43.7463C34.9556 44.7384 34.5657 45.6373 33.9116 46.4429C33.1543 47.3757 32.2806 48.0189 31.2906 48.3723C30.2863 48.7144 29.237 48.7654 28.1429 48.5253C27.0345 48.2739 25.9598 47.7355 24.9188 46.9103C24.1345 46.2886 23.5075 45.6173 23.0379 44.8966C22.5798 44.1618 22.2832 43.4156 22.1482 42.6581C22.0246 41.8865 22.0711 41.1219 22.2876 40.3644C22.5014 39.5814 22.8894 38.8436 23.4516 38.1511C24.1286 37.3172 24.9321 36.7461 25.862 36.4379C26.7891 36.1043 27.6667 36.0915 28.4948 36.3995L29.0071 37.1541L27.7879 36.1876C27.2602 35.7693 26.97 35.3185 26.917 34.8352C26.8613 34.3264 27.04 33.8176 27.4531 33.3088C27.8661 32.8 28.3243 32.5243 28.8275 32.4819C29.3165 32.4281 29.8248 32.6103 30.3524 33.0286L38.1814 39.2348C39.9354 40.6252 40.8643 42.1514 40.9682 43.8134C41.0979 45.4726 40.434 47.1996 38.9768 48.9947ZM32.269 43.5727C32.6591 43.0922 32.8778 42.5919 32.925 42.0718C32.9837 41.5376 32.8866 41.0076 32.6337 40.4819C32.3665 39.9449 31.9406 39.4446 31.3559 38.9812C30.4718 38.2803 29.6094 37.9567 28.7689 38.0105C27.9255 38.0389 27.217 38.4064 26.6433 39.1131C26.2532 39.5937 26.0287 40.1011 25.97 40.6353C25.8971 41.1582 25.9942 41.6882 26.2614 42.2252C26.5258 42.7368 26.9503 43.2243 27.535 43.6878C28.4191 44.3886 29.2829 44.7249 30.1262 44.6965C30.9695 44.6682 31.6838 44.2936 32.269 43.5727Z" fill="#ED5181"/>
<path d="M45.8093 35.0817C45.0022 35.6482 44.1664 36.0021 43.3018 36.1435C42.4372 36.2848 41.6354 36.2159 40.8964 35.9367C40.1573 35.6576 39.5501 35.1861 39.0746 34.5225C38.5041 33.726 38.2643 32.9524 38.3553 32.2015C38.4357 31.4358 38.8781 30.6266 39.6823 29.774C40.476 28.9067 41.6501 27.9275 43.2045 26.8365L44.3928 26.0025L45.6289 27.7281L44.4631 28.5463C43.7008 29.0813 43.1122 29.5609 42.6974 29.9851C42.2868 30.384 42.0456 30.7528 41.9737 31.0914C41.9168 31.4195 42.0098 31.7531 42.2528 32.0924C42.5486 32.5053 42.9336 32.7449 43.4078 32.811C43.8969 32.8667 44.4179 32.7005 44.971 32.3123C45.4044 32.0081 45.7169 31.6447 45.9083 31.2222C46.1042 30.7745 46.1778 30.3128 46.1291 29.8372C46.0698 29.3469 45.8817 28.8805 45.5647 28.438L43.7422 25.8939C43.2774 25.245 42.8004 24.8927 42.3113 24.8371C41.8116 24.7666 41.2031 24.9832 40.4856 25.4867C40.0821 25.77 39.6781 26.131 39.2738 26.57C38.8739 26.9837 38.4691 27.5004 38.0597 28.1203C37.8365 28.4986 37.5714 28.74 37.2645 28.8446C36.9471 28.9344 36.6471 28.9233 36.3647 28.8113C36.0717 28.6844 35.8354 28.4957 35.6558 28.2449C35.4656 27.9795 35.3607 27.6763 35.3411 27.3354C35.311 26.9798 35.4255 26.6224 35.6848 26.2631C36.1865 25.4898 36.7068 24.8365 37.2457 24.3032C37.7995 23.7594 38.3379 23.3039 38.861 22.9367C40.0119 22.129 41.075 21.6377 42.0504 21.4629C43.0302 21.2628 43.9552 21.3783 44.8254 21.8092C45.6851 22.2253 46.5005 22.9717 47.2718 24.0484L50.79 28.9596C51.1809 29.5053 51.3475 30.02 51.2898 30.5038C51.232 30.9876 50.9491 31.4078 50.4409 31.7645C49.9327 32.1212 49.431 32.2517 48.9357 32.156C48.4554 32.0499 48.0197 31.724 47.6288 31.1783L47.0425 30.3597L47.2945 30.3823C47.564 30.9467 47.6814 31.5182 47.6466 32.0967C47.6162 32.6499 47.4507 33.1872 47.1502 33.7084C46.8392 34.2148 46.3922 34.6726 45.8093 35.0817Z" fill="#ED5181"/>
<path d="M54.8688 22.5384C54.4418 22.7024 54.0187 22.7 53.5993 22.5313C53.1971 22.356 52.9137 22.0575 52.7491 21.6358C52.578 21.1972 52.5817 20.7788 52.7601 20.3805C52.9556 19.9757 53.2669 19.6913 53.6939 19.5274L58.9713 17.5009C59.3983 17.337 59.8129 17.3427 60.2151 17.5179C60.6344 17.6867 60.9297 17.9903 61.1008 18.4289C61.2654 18.8506 61.2499 19.2639 61.0543 19.6687C60.8759 20.0669 60.5732 20.348 60.1462 20.512L54.8688 22.5384Z" fill="#ED5181"/>
<path d="M72.2338 23.4155C71.2523 23.5337 70.3481 23.4512 69.5212 23.168C68.6942 22.8848 68.0238 22.4461 67.5098 21.8519C66.9959 21.2576 66.6903 20.5563 66.5931 19.7478C66.4764 18.7777 66.6391 17.9835 67.081 17.3653C67.5208 16.7291 68.2992 16.2253 69.4162 15.8538C70.531 15.4644 72.0336 15.1559 73.9239 14.9283L75.3688 14.7543L75.6215 16.8563L74.2038 17.0271C73.2769 17.1387 72.5291 17.2834 71.9604 17.4612C71.4078 17.6189 71.0183 17.8298 70.7919 18.094C70.5837 18.356 70.5044 18.6936 70.5541 19.1069C70.6146 19.6099 70.8369 20.0023 71.2211 20.2841C71.6235 20.5637 72.161 20.663 72.8335 20.5821C73.3606 20.5186 73.81 20.346 74.1818 20.0643C74.5696 19.7625 74.8568 19.3907 75.0434 18.949C75.2278 18.4894 75.2877 17.9901 75.2229 17.4511L74.8503 14.352C74.7552 13.5615 74.5065 13.0265 74.1041 12.7469C73.6996 12.4493 73.0611 12.353 72.1886 12.4581C71.6979 12.5172 71.1693 12.6446 70.6028 12.8404C70.0523 13.016 69.4479 13.2802 68.7896 13.6328C68.4114 13.8606 68.0623 13.9482 67.7426 13.8956C67.4206 13.825 67.1627 13.6738 66.9689 13.442C66.7729 13.1922 66.6566 12.9146 66.6199 12.6092C66.581 12.2858 66.6351 11.9694 66.7823 11.6601C66.9274 11.3328 67.2003 11.0721 67.601 10.878C68.4142 10.4338 69.1859 10.104 69.916 9.88849C70.6642 9.67081 71.3564 9.52367 71.9926 9.44707C73.3921 9.27855 74.562 9.34728 75.5023 9.65326C76.4586 9.93908 77.2147 10.4768 77.7706 11.2665C78.3244 12.0382 78.6801 13.0798 78.8378 14.3913L79.557 20.3739C79.637 21.0387 79.5349 21.5704 79.251 21.9691C78.967 22.3678 78.5161 22.6044 77.8981 22.6788C77.2801 22.7532 76.7769 22.6315 76.3883 22.3138C76.018 21.9939 75.7928 21.5015 75.7129 20.8368L75.593 19.8397L75.8033 19.9784C75.7677 20.6024 75.5951 21.1608 75.2856 21.6537C74.9921 22.1265 74.5878 22.5215 74.0728 22.8387C73.5556 23.1379 72.9426 23.3302 72.2338 23.4155Z" fill="#ED5181"/>
<path d="M90.2827 23.1141C88.8318 22.9237 87.6003 22.479 86.5883 21.78C85.5969 21.0654 84.8824 20.1497 84.4447 19.033C84.007 17.9162 83.8854 16.6491 84.0798 15.2318C84.2249 14.1732 84.5186 13.2437 84.9607 12.4433C85.4028 11.643 85.9728 10.9872 86.6707 10.4761C87.3867 9.9673 88.21 9.61874 89.1405 9.43037C90.0736 9.22406 91.0842 9.19232 92.1724 9.33514C92.7347 9.40893 93.3234 9.55925 93.9385 9.78609C94.5561 9.99499 95.1511 10.3014 95.7235 10.7053C96.0641 10.9143 96.2769 11.1797 96.3621 11.5014C96.4678 11.8075 96.4804 12.1196 96.3998 12.4378C96.3217 12.7381 96.1657 13.0007 95.9317 13.2257C95.7184 13.4351 95.4604 13.5656 95.1579 13.6173C94.8579 13.6509 94.5388 13.5543 94.2007 13.3272C93.8831 13.0847 93.54 12.8935 93.1715 12.7538C92.821 12.6165 92.4826 12.5264 92.1561 12.4836C91.612 12.4122 91.119 12.4388 90.6773 12.5635C90.238 12.6702 89.8511 12.866 89.5166 13.1508C89.2027 13.4201 88.9321 13.7773 88.7049 14.2224C88.4958 14.6698 88.3495 15.1985 88.2658 15.8085C88.1034 16.9927 88.2657 17.9637 88.7526 18.7216C89.2601 19.464 90.0489 19.9054 91.119 20.0459C91.4454 20.0887 91.795 20.0981 92.1676 20.0739C92.5426 20.0318 92.925 19.9359 93.3149 19.7861C93.7022 19.6543 94.0348 19.6523 94.3127 19.7801C94.5906 19.9079 94.794 20.1081 94.9228 20.3807C95.0722 20.6378 95.1338 20.9289 95.1076 21.2543C95.1021 21.564 95.0058 21.8619 94.8189 22.1478C94.6526 22.4182 94.386 22.6116 94.0193 22.7278C93.3608 22.9519 92.7146 23.0862 92.0807 23.1309C91.4443 23.1935 90.845 23.1879 90.2827 23.1141Z" fill="#ED5181"/>
<path d="M101.958 25.8036C101.043 25.4354 100.295 24.9287 99.7126 24.2835C99.1302 23.6383 98.7608 22.9321 98.6044 22.1649C98.448 21.3977 98.526 20.6369 98.8385 19.8824C99.2135 18.9771 99.7457 18.36 100.435 18.0312C101.132 17.6856 102.058 17.6186 103.216 17.8301C104.38 18.0249 105.842 18.4768 107.604 19.1859L108.95 19.7279L108.137 21.6894L106.817 21.1576C105.953 20.81 105.229 20.5773 104.646 20.4597C104.086 20.3322 103.642 20.3297 103.315 20.4522C103.005 20.5815 102.769 20.839 102.61 21.2246C102.415 21.694 102.416 22.1444 102.613 22.5757C102.827 23.0139 103.247 23.3591 103.874 23.6113C104.365 23.809 104.842 23.8739 105.305 23.8059C105.791 23.728 106.225 23.5406 106.605 23.2436C106.991 22.9298 107.289 22.5215 107.497 22.0185L108.695 19.1265C109.001 18.3888 109.047 17.8009 108.833 17.3628C108.626 16.9079 108.116 16.5168 107.304 16.1896C106.846 16.0055 106.322 15.8631 105.732 15.7623C105.165 15.6515 104.508 15.5923 103.76 15.5847C103.318 15.6024 102.971 15.5114 102.718 15.3117C102.471 15.0952 102.321 14.8389 102.265 14.5428C102.217 14.23 102.252 13.931 102.37 13.646C102.495 13.3442 102.698 13.0933 102.978 12.8933C103.266 12.6764 103.632 12.5793 104.077 12.602C105.005 12.6039 105.84 12.6859 106.583 12.8481C107.343 13.0171 108.019 13.2209 108.612 13.4595C109.916 13.9844 110.903 14.6068 111.573 15.3264C112.267 16.0361 112.663 16.8702 112.76 17.8286C112.864 18.7703 112.662 19.853 112.155 21.0769L109.843 26.6598C109.586 27.2801 109.235 27.6966 108.792 27.9092C108.348 28.1218 107.838 28.1122 107.262 27.8804C106.687 27.6486 106.307 27.3002 106.124 26.8354C105.958 26.3774 106.004 25.8382 106.261 25.2179L106.646 24.2874L106.762 24.5099C106.424 25.039 105.999 25.4449 105.487 25.7277C104.998 26.0006 104.451 26.1521 103.846 26.1823C103.248 26.1957 102.618 26.0695 101.958 25.8036Z" fill="#ED5181"/>
<path d="M116.596 33.2856C115.678 32.5687 115.044 31.7155 114.694 30.7259C114.358 29.7476 114.326 28.6949 114.598 27.568C114.87 26.441 115.456 25.316 116.354 24.193C117.252 23.0699 118.219 22.2545 119.254 21.7466C120.29 21.2388 121.328 21.0333 122.369 21.1303C123.424 21.2385 124.411 21.651 125.329 22.3679C126.161 23.0176 126.733 23.7879 127.046 24.6788C127.373 25.5809 127.395 26.4414 127.113 27.2604L126.877 27.0755L130.919 22.0219C131.351 21.4817 131.811 21.1829 132.3 21.1256C132.8 21.0542 133.315 21.2256 133.846 21.6401C134.362 22.0434 134.65 22.4991 134.709 23.0075C134.78 23.5016 134.6 24.0188 134.167 24.559L124.463 36.6921C124.042 37.2181 123.575 37.5112 123.06 37.5715C122.56 37.643 122.052 37.4771 121.536 37.0739C121.02 36.6706 120.732 36.2148 120.672 35.7065C120.627 35.2093 120.815 34.6978 121.236 34.1718L122.395 32.7218L121.967 33.7382C121.209 34.278 120.329 34.5034 119.329 34.4146C118.353 34.3228 117.443 33.9465 116.596 33.2856ZM119.492 31.6321C119.965 32.0018 120.465 32.2073 120.991 32.2487C121.517 32.2901 122.057 32.1688 122.61 31.885C123.175 31.5869 123.736 31.0895 124.293 30.393C125.123 29.3552 125.516 28.4267 125.472 27.6073C125.44 26.7737 125.073 26.0825 124.37 25.5336C123.911 25.1751 123.417 24.9625 122.888 24.8957C122.373 24.8401 121.833 24.9614 121.268 25.2594C120.729 25.5545 120.181 26.0503 119.624 26.7469C118.794 27.7847 118.39 28.7274 118.411 29.5752C118.443 30.4088 118.803 31.0945 119.492 31.6321Z" fill="#ED5181"/>
<path d="M130.022 46.4625C129.089 45.1896 128.514 43.9271 128.297 42.6751C128.107 41.4271 128.251 40.2507 128.732 39.146C129.238 38.0453 130.069 37.0795 131.226 36.2486C132.353 35.4389 133.51 34.9646 134.699 34.8256C135.902 34.6759 137.047 34.8476 138.133 35.3407C139.245 35.8377 140.192 36.6203 140.976 37.6884C141.544 38.4638 141.926 39.262 142.121 40.0829C142.33 40.8931 142.356 41.7008 142.2 42.5059C142.058 43.3004 141.724 44.065 141.199 44.7998C140.688 45.524 140.011 46.1896 139.165 46.7969C138.884 46.9993 138.604 47.066 138.327 46.9969C138.065 46.9172 137.81 46.7091 137.564 46.3726L132.51 39.4813L134.245 38.2349L138.301 43.7655L137.732 43.638C138.34 43.2013 138.78 42.7513 139.051 42.2881C139.338 41.8142 139.461 41.3345 139.422 40.8488C139.393 40.3778 139.202 39.9008 138.848 39.418C138.451 38.8767 137.987 38.5063 137.456 38.307C136.925 38.1077 136.347 38.0761 135.722 38.2121C135.098 38.3482 134.452 38.6559 133.784 39.1353L133.606 39.2632C132.479 40.0728 131.837 40.9254 131.678 41.821C131.531 42.7313 131.833 43.6985 132.584 44.7226C132.841 45.0738 133.181 45.4442 133.603 45.8338C134.024 46.2235 134.476 46.5466 134.959 46.8031C135.369 47.0225 135.64 47.2851 135.774 47.5911C135.923 47.8864 135.955 48.1765 135.869 48.4613C135.784 48.7461 135.62 48.9863 135.379 49.1821C135.148 49.3924 134.859 49.5223 134.51 49.5718C134.176 49.6105 133.815 49.5349 133.427 49.3448C132.78 49.0498 132.159 48.6356 131.564 48.1023C130.965 47.5944 130.451 47.0477 130.022 46.4625Z" fill="#ED5181"/>
<path d="M135.936 54.3445C135.739 53.7044 135.762 53.1582 136.006 52.7058C136.255 52.2708 136.703 51.9548 137.351 51.758L146.676 48.9257C147.324 48.7289 147.865 48.7444 148.298 48.972C148.755 49.2116 149.077 49.6341 149.263 50.2396C149.455 50.8624 149.427 51.3913 149.178 51.8264C148.946 52.2561 148.506 52.5694 147.858 52.7662L146.177 53.2768L147.14 52.6722C148.052 52.7736 148.865 53.113 149.579 53.6907C150.293 54.2683 150.802 55.0502 151.106 56.0363C151.41 57.0223 151.426 57.9159 151.156 58.7168C150.886 59.5178 150.303 60.2056 149.407 60.7803L149.296 60.417C150.306 60.5263 151.185 60.8931 151.932 61.5173C152.703 62.1535 153.245 62.982 153.559 64.0026C153.863 64.9887 153.909 65.8543 153.698 66.5994C153.51 67.3565 153.062 68.0131 152.352 68.5691C151.66 69.1199 150.701 69.5814 149.475 69.9537L143.513 71.7648C142.865 71.9616 142.312 71.9402 141.856 71.7006C141.404 71.4782 141.082 71.0557 140.891 70.4329C140.694 69.7928 140.717 69.2466 140.961 68.7943C141.209 68.3592 141.658 68.0433 142.306 67.8465L148.137 66.0753C148.995 65.8147 149.574 65.4874 149.874 65.0936C150.197 64.7118 150.26 64.2009 150.063 63.5608C149.834 62.8169 149.392 62.3172 148.739 62.0615C148.086 61.8059 147.278 61.8244 146.315 62.1169L141.035 63.7206C140.387 63.9174 139.835 63.896 139.378 63.6563C138.927 63.434 138.605 63.0115 138.413 62.3887C138.222 61.7659 138.247 61.2284 138.491 60.776C138.735 60.3236 139.181 59.999 139.828 59.8022L145.66 58.0311C146.518 57.7704 147.097 57.4432 147.397 57.0494C147.72 56.6676 147.782 56.1566 147.585 55.5166C147.356 54.7727 146.915 54.273 146.262 54.0173C145.609 53.7617 144.8 53.7802 143.837 54.0727L138.558 55.6763C137.209 56.0859 136.335 55.6419 135.936 54.3445Z" fill="#ED5181"/>
<path d="M136.572 79.2206C136.589 78.7503 136.731 78.3656 136.999 78.0663C137.266 77.7671 137.611 77.5972 138.033 77.5566C138.438 77.5153 138.865 77.6016 139.315 77.8154L143.31 79.7649L141.609 79.7098L152.922 75.268C153.404 75.1025 153.846 75.0534 154.246 75.1207C154.664 75.2067 154.986 75.4164 155.212 75.7497C155.456 76.1017 155.567 76.5761 155.546 77.1731C155.528 77.6614 155.395 78.0465 155.147 78.3282C154.916 78.6286 154.476 78.8951 153.827 79.1276L145.48 82.0627L145.511 81.1944L153.651 84.7722C154.263 85.0456 154.674 85.3396 154.882 85.6542C155.108 85.9875 155.212 86.4255 155.192 86.9682C155.175 87.4385 155.034 87.8052 154.768 88.0682C154.52 88.3499 154.193 88.5114 153.789 88.5526C153.384 88.612 152.947 88.5254 152.48 88.2929L138.085 81.4429C137.473 81.1514 137.064 80.8302 136.857 80.4794C136.649 80.1467 136.554 79.7271 136.572 79.2206Z" fill="#ED5181"/>
</svg>
