<svg width="352" height="65" viewBox="0 0 352 65" fill="none" xmlns="http://www.w3.org/2000/svg">
<path d="M45 47.6579C83.9764 45.2388 225.85 40.5338 342 47.6579C281.708 47.6579 203.154 48.3783 152.575 55.8828" stroke="#F4AD5C" stroke-width="10" stroke-linejoin="round"/>
<path d="M47.1067 44.36C46.2001 44.36 45.5067 44.1067 45.0267 43.6C44.5467 43.0933 44.3067 42.3867 44.3067 41.48V18.32C44.3067 17.4133 44.5601 16.7067 45.0667 16.2C45.6001 15.6933 46.3201 15.44 47.2267 15.44C48.0267 15.44 48.6534 15.6 49.1067 15.92C49.5867 16.2133 50.0267 16.7333 50.4267 17.48L59.6667 34.36H58.3067L67.5467 17.48C67.9467 16.7333 68.3734 16.2133 68.8267 15.92C69.3067 15.6 69.9334 15.44 70.7067 15.44C71.6134 15.44 72.3067 15.6933 72.7867 16.2C73.2934 16.7067 73.5467 17.4133 73.5467 18.32V41.48C73.5467 42.3867 73.3067 43.0933 72.8267 43.6C72.3467 44.1067 71.6534 44.36 70.7467 44.36C69.8401 44.36 69.1334 44.1067 68.6267 43.6C68.1467 43.0933 67.9067 42.3867 67.9067 41.48V25.28H68.7867L61.3467 38.6C61.0267 39.1067 60.6801 39.4933 60.3067 39.76C59.9601 40 59.4934 40.12 58.9067 40.12C58.3201 40.12 57.8401 39.9867 57.4667 39.72C57.0934 39.4533 56.7601 39.08 56.4667 38.6L48.9467 25.24H49.9067V41.48C49.9067 42.3867 49.6667 43.0933 49.1867 43.6C48.7334 44.1067 48.0401 44.36 47.1067 44.36ZM89.2658 44.44C86.9458 44.44 84.9458 44.0267 83.2658 43.2C81.6124 42.3467 80.3324 41.16 79.4258 39.64C78.5458 38.0933 78.1058 36.28 78.1058 34.2C78.1058 32.1733 78.5324 30.4 79.3858 28.88C80.2391 27.3333 81.4258 26.1333 82.9458 25.28C84.4924 24.4 86.2391 23.96 88.1858 23.96C89.5991 23.96 90.8791 24.2 92.0258 24.68C93.1724 25.1333 94.1591 25.8 94.9858 26.68C95.8124 27.5333 96.4391 28.5867 96.8658 29.84C97.2924 31.0667 97.5058 32.44 97.5058 33.96C97.5058 34.4667 97.3458 34.8533 97.0258 35.12C96.7058 35.36 96.2391 35.48 95.6258 35.48H83.0658V32.36H93.1458L92.5058 32.92C92.5058 31.8267 92.3458 30.92 92.0258 30.2C91.7058 29.4533 91.2391 28.8933 90.6258 28.52C90.0391 28.1467 89.3058 27.96 88.4258 27.96C87.4391 27.96 86.5991 28.1867 85.9058 28.64C85.2124 29.0933 84.6791 29.7467 84.3058 30.6C83.9324 31.4533 83.7458 32.48 83.7458 33.68V34C83.7458 36.0267 84.2124 37.52 85.1458 38.48C86.1058 39.44 87.5191 39.92 89.3858 39.92C90.0258 39.92 90.7591 39.84 91.5858 39.68C92.4124 39.52 93.1858 39.2667 93.9058 38.92C94.5191 38.6267 95.0658 38.5333 95.5458 38.64C96.0258 38.72 96.3991 38.9333 96.6658 39.28C96.9324 39.6267 97.0791 40.0267 97.1058 40.48C97.1591 40.9333 97.0658 41.3867 96.8258 41.84C96.5858 42.2667 96.1858 42.6267 95.6258 42.92C94.7191 43.4267 93.6924 43.8 92.5458 44.04C91.4258 44.3067 90.3324 44.44 89.2658 44.44ZM104.684 44.36C103.697 44.36 102.937 44.0933 102.404 43.56C101.897 43 101.644 42.2267 101.644 41.24V27.76C101.644 26.6667 101.924 25.8267 102.484 25.24C103.071 24.6533 103.911 24.36 105.004 24.36H114.964C115.791 24.36 116.417 24.56 116.844 24.96C117.271 25.36 117.484 25.9467 117.484 26.72C117.484 27.4933 117.271 28.08 116.844 28.48C116.417 28.88 115.791 29.08 114.964 29.08H107.684V41.24C107.684 43.32 106.684 44.36 104.684 44.36ZM127.073 44.44C125.633 44.44 124.34 44.16 123.193 43.6C122.046 43.04 121.153 42.28 120.513 41.32C119.873 40.36 119.553 39.28 119.553 38.08C119.553 36.64 119.926 35.5067 120.673 34.68C121.42 33.8267 122.633 33.2267 124.313 32.88C125.993 32.5067 128.22 32.32 130.993 32.32H133.113V35.44H131.033C129.673 35.44 128.566 35.52 127.713 35.68C126.886 35.8133 126.286 36.0533 125.913 36.4C125.566 36.7467 125.393 37.2267 125.393 37.84C125.393 38.5867 125.646 39.2 126.153 39.68C126.686 40.16 127.446 40.4 128.433 40.4C129.206 40.4 129.886 40.2267 130.473 39.88C131.086 39.5067 131.566 39.0133 131.913 38.4C132.26 37.76 132.433 37.04 132.433 36.24V31.64C132.433 30.4667 132.166 29.64 131.633 29.16C131.1 28.6533 130.193 28.4 128.913 28.4C128.193 28.4 127.406 28.4933 126.553 28.68C125.726 28.84 124.806 29.12 123.793 29.52C123.206 29.7867 122.686 29.8533 122.233 29.72C121.78 29.56 121.433 29.2933 121.193 28.92C120.953 28.52 120.833 28.0933 120.833 27.64C120.833 27.16 120.966 26.7067 121.233 26.28C121.5 25.8267 121.94 25.4933 122.553 25.28C123.806 24.7733 124.98 24.4267 126.073 24.24C127.193 24.0533 128.22 23.96 129.153 23.96C131.206 23.96 132.886 24.2667 134.193 24.88C135.526 25.4667 136.526 26.3867 137.193 27.64C137.86 28.8667 138.193 30.4533 138.193 32.4V41.28C138.193 42.2667 137.953 43.0267 137.473 43.56C136.993 44.0933 136.3 44.36 135.393 44.36C134.486 44.36 133.78 44.0933 133.273 43.56C132.793 43.0267 132.553 42.2667 132.553 41.28V39.8L132.833 40.04C132.673 40.9467 132.326 41.7333 131.793 42.4C131.286 43.04 130.633 43.5467 129.833 43.92C129.033 44.2667 128.113 44.44 127.073 44.44ZM145.403 35.64C144.736 35.64 144.163 35.4133 143.683 34.96C143.229 34.5067 143.003 33.9467 143.003 33.28C143.003 32.5867 143.229 32.0133 143.683 31.56C144.163 31.1067 144.736 30.88 145.403 30.88H153.643C154.309 30.88 154.869 31.1067 155.323 31.56C155.803 32.0133 156.043 32.5867 156.043 33.28C156.043 33.9467 155.803 34.5067 155.323 34.96C154.869 35.4133 154.309 35.64 153.643 35.64H145.403ZM167.62 44.44C166.18 44.44 164.887 44.16 163.74 43.6C162.593 43.04 161.7 42.28 161.06 41.32C160.42 40.36 160.1 39.28 160.1 38.08C160.1 36.64 160.473 35.5067 161.22 34.68C161.967 33.8267 163.18 33.2267 164.86 32.88C166.54 32.5067 168.767 32.32 171.54 32.32H173.66V35.44H171.58C170.22 35.44 169.113 35.52 168.26 35.68C167.433 35.8133 166.833 36.0533 166.46 36.4C166.113 36.7467 165.94 37.2267 165.94 37.84C165.94 38.5867 166.193 39.2 166.7 39.68C167.233 40.16 167.993 40.4 168.98 40.4C169.753 40.4 170.433 40.2267 171.02 39.88C171.633 39.5067 172.113 39.0133 172.46 38.4C172.807 37.76 172.98 37.04 172.98 36.24V31.64C172.98 30.4667 172.713 29.64 172.18 29.16C171.647 28.6533 170.74 28.4 169.46 28.4C168.74 28.4 167.953 28.4933 167.1 28.68C166.273 28.84 165.353 29.12 164.34 29.52C163.753 29.7867 163.233 29.8533 162.78 29.72C162.327 29.56 161.98 29.2933 161.74 28.92C161.5 28.52 161.38 28.0933 161.38 27.64C161.38 27.16 161.513 26.7067 161.78 26.28C162.047 25.8267 162.487 25.4933 163.1 25.28C164.353 24.7733 165.527 24.4267 166.62 24.24C167.74 24.0533 168.767 23.96 169.7 23.96C171.753 23.96 173.433 24.2667 174.74 24.88C176.073 25.4667 177.073 26.3867 177.74 27.64C178.407 28.8667 178.74 30.4533 178.74 32.4V41.28C178.74 42.2667 178.5 43.0267 178.02 43.56C177.54 44.0933 176.847 44.36 175.94 44.36C175.033 44.36 174.327 44.0933 173.82 43.56C173.34 43.0267 173.1 42.2667 173.1 41.28V39.8L173.38 40.04C173.22 40.9467 172.873 41.7333 172.34 42.4C171.833 43.04 171.18 43.5467 170.38 43.92C169.58 44.2667 168.66 44.44 167.62 44.44ZM186.95 44.36C185.963 44.36 185.203 44.0933 184.67 43.56C184.163 43.0267 183.91 42.2667 183.91 41.28V27.12C183.91 26.1333 184.163 25.3733 184.67 24.84C185.203 24.3067 185.963 24.04 186.95 24.04C187.91 24.04 188.643 24.3067 189.15 24.84C189.683 25.3733 189.95 26.1333 189.95 27.12V31.68H192.31L196.79 25.44C197.216 24.8267 197.71 24.4267 198.27 24.24C198.856 24.0533 199.416 24.04 199.95 24.2C200.483 24.36 200.923 24.6533 201.27 25.08C201.616 25.48 201.803 25.96 201.83 26.52C201.883 27.08 201.683 27.68 201.23 28.32L196.91 34.4L195.71 32.44C196.43 32.52 197.083 32.7333 197.67 33.08C198.256 33.4267 198.79 33.88 199.27 34.44C199.75 34.9733 200.203 35.6267 200.63 36.4L202.75 40.28C203.123 40.9467 203.243 41.5733 203.11 42.16C203.003 42.72 202.723 43.1867 202.27 43.56C201.843 43.9333 201.336 44.16 200.75 44.24C200.163 44.3467 199.59 44.28 199.03 44.04C198.47 43.8 198.003 43.3333 197.63 42.64L195.19 38.32C194.923 37.7867 194.643 37.3733 194.35 37.08C194.056 36.7867 193.723 36.5867 193.35 36.48C193.003 36.3733 192.59 36.32 192.11 36.32H189.95V41.28C189.95 42.2667 189.683 43.0267 189.15 43.56C188.643 44.0933 187.91 44.36 186.95 44.36ZM213.714 44.44C212.274 44.44 210.98 44.16 209.834 43.6C208.687 43.04 207.794 42.28 207.154 41.32C206.514 40.36 206.194 39.28 206.194 38.08C206.194 36.64 206.567 35.5067 207.314 34.68C208.06 33.8267 209.274 33.2267 210.954 32.88C212.634 32.5067 214.86 32.32 217.634 32.32H219.754V35.44H217.674C216.314 35.44 215.207 35.52 214.354 35.68C213.527 35.8133 212.927 36.0533 212.554 36.4C212.207 36.7467 212.034 37.2267 212.034 37.84C212.034 38.5867 212.287 39.2 212.794 39.68C213.327 40.16 214.087 40.4 215.074 40.4C215.847 40.4 216.527 40.2267 217.114 39.88C217.727 39.5067 218.207 39.0133 218.554 38.4C218.9 37.76 219.074 37.04 219.074 36.24V31.64C219.074 30.4667 218.807 29.64 218.274 29.16C217.74 28.6533 216.834 28.4 215.554 28.4C214.834 28.4 214.047 28.4933 213.194 28.68C212.367 28.84 211.447 29.12 210.434 29.52C209.847 29.7867 209.327 29.8533 208.874 29.72C208.42 29.56 208.074 29.2933 207.834 28.92C207.594 28.52 207.474 28.0933 207.474 27.64C207.474 27.16 207.607 26.7067 207.874 26.28C208.14 25.8267 208.58 25.4933 209.194 25.28C210.447 24.7733 211.62 24.4267 212.714 24.24C213.834 24.0533 214.86 23.96 215.794 23.96C217.847 23.96 219.527 24.2667 220.834 24.88C222.167 25.4667 223.167 26.3867 223.834 27.64C224.5 28.8667 224.834 30.4533 224.834 32.4V41.28C224.834 42.2667 224.594 43.0267 224.114 43.56C223.634 44.0933 222.94 44.36 222.034 44.36C221.127 44.36 220.42 44.0933 219.914 43.56C219.434 43.0267 219.194 42.2667 219.194 41.28V39.8L219.474 40.04C219.314 40.9467 218.967 41.7333 218.434 42.4C217.927 43.04 217.274 43.5467 216.474 43.92C215.674 44.2667 214.754 44.44 213.714 44.44ZM230.963 49.56C230.163 49.56 229.537 49.32 229.083 48.84C228.63 48.3867 228.403 47.7333 228.403 46.88V42.12C228.403 40.28 229.31 39.36 231.123 39.36H233.563L229.963 40.64C230.63 39.7333 231.15 38.8 231.523 37.84C231.923 36.8533 232.203 35.7333 232.363 34.48C232.55 33.2 232.643 31.6533 232.643 29.84V27.76C232.643 26.6667 232.923 25.8267 233.483 25.24C234.07 24.6533 234.91 24.36 236.003 24.36H245.363C246.457 24.36 247.297 24.6533 247.883 25.24C248.47 25.8267 248.763 26.6667 248.763 27.76V42.2L245.923 39.36H249.283C250.163 39.36 250.83 39.6 251.283 40.08C251.763 40.5333 252.003 41.2133 252.003 42.12V46.88C252.003 48.6667 251.15 49.56 249.443 49.56C248.617 49.56 247.977 49.32 247.523 48.84C247.097 48.3867 246.883 47.7333 246.883 46.88V44H233.483V46.88C233.483 48.6667 232.643 49.56 230.963 49.56ZM236.083 39.4H243.123V28.96H237.763V31.36C237.763 32.8267 237.617 34.28 237.323 35.72C237.03 37.16 236.617 38.3867 236.083 39.4ZM265.516 44.44C263.196 44.44 261.196 44.0267 259.516 43.2C257.862 42.3467 256.582 41.16 255.676 39.64C254.796 38.0933 254.356 36.28 254.356 34.2C254.356 32.1733 254.782 30.4 255.636 28.88C256.489 27.3333 257.676 26.1333 259.196 25.28C260.742 24.4 262.489 23.96 264.436 23.96C265.849 23.96 267.129 24.2 268.276 24.68C269.422 25.1333 270.409 25.8 271.236 26.68C272.062 27.5333 272.689 28.5867 273.116 29.84C273.542 31.0667 273.756 32.44 273.756 33.96C273.756 34.4667 273.596 34.8533 273.276 35.12C272.956 35.36 272.489 35.48 271.876 35.48H259.316V32.36H269.396L268.756 32.92C268.756 31.8267 268.596 30.92 268.276 30.2C267.956 29.4533 267.489 28.8933 266.876 28.52C266.289 28.1467 265.556 27.96 264.676 27.96C263.689 27.96 262.849 28.1867 262.156 28.64C261.462 29.0933 260.929 29.7467 260.556 30.6C260.182 31.4533 259.996 32.48 259.996 33.68V34C259.996 36.0267 260.462 37.52 261.396 38.48C262.356 39.44 263.769 39.92 265.636 39.92C266.276 39.92 267.009 39.84 267.836 39.68C268.662 39.52 269.436 39.2667 270.156 38.92C270.769 38.6267 271.316 38.5333 271.796 38.64C272.276 38.72 272.649 38.9333 272.916 39.28C273.182 39.6267 273.329 40.0267 273.356 40.48C273.409 40.9333 273.316 41.3867 273.076 41.84C272.836 42.2667 272.436 42.6267 271.876 42.92C270.969 43.4267 269.942 43.8 268.796 44.04C267.676 44.3067 266.582 44.44 265.516 44.44ZM280.534 44.36C279.681 44.36 279.027 44.12 278.574 43.64C278.121 43.1333 277.894 42.4267 277.894 41.52V27.36C277.894 26.64 277.987 26.04 278.174 25.56C278.361 25.0533 278.667 24.68 279.094 24.44C279.521 24.1733 280.041 24.04 280.654 24.04C281.241 24.04 281.734 24.1333 282.134 24.32C282.534 24.5067 282.881 24.76 283.174 25.08C283.467 25.4 283.734 25.7733 283.974 26.2L289.294 35.08L294.574 26.24C294.787 25.84 295.027 25.48 295.294 25.16C295.587 24.84 295.934 24.5733 296.334 24.36C296.761 24.1467 297.267 24.04 297.854 24.04C298.814 24.04 299.521 24.3333 299.974 24.92C300.427 25.48 300.654 26.2933 300.654 27.36V41.52C300.654 42.4267 300.427 43.1333 299.974 43.64C299.521 44.12 298.854 44.36 297.974 44.36C297.147 44.36 296.494 44.12 296.014 43.64C295.561 43.1333 295.334 42.4267 295.334 41.52V31.36H296.334L291.294 39.76C291.107 40.0533 290.867 40.3333 290.574 40.6C290.281 40.8667 289.854 41 289.294 41C288.734 41 288.307 40.8667 288.014 40.6C287.721 40.3333 287.467 40.0533 287.254 39.76L282.174 31.36H283.174V41.52C283.174 42.4267 282.947 43.1333 282.494 43.64C282.041 44.12 281.387 44.36 280.534 44.36ZM308.702 44.36C308.088 44.36 307.568 44.24 307.142 44C306.715 43.76 306.395 43.4133 306.182 42.96C305.995 42.48 305.902 41.8667 305.902 41.12V26.92C305.902 25.9867 306.142 25.28 306.622 24.8C307.102 24.2933 307.768 24.04 308.622 24.04C309.502 24.04 310.168 24.2933 310.622 24.8C311.102 25.28 311.342 25.9867 311.342 26.92V37.68H310.262L319.102 25.96C319.422 25.5333 319.835 25.1067 320.342 24.68C320.848 24.2533 321.568 24.04 322.502 24.04C323.115 24.04 323.622 24.16 324.022 24.4C324.448 24.6133 324.755 24.96 324.942 25.44C325.155 25.8933 325.262 26.4933 325.262 27.24V41.48C325.262 42.3867 325.022 43.0933 324.542 43.6C324.088 44.1067 323.435 44.36 322.582 44.36C321.675 44.36 320.982 44.1067 320.502 43.6C320.048 43.0933 319.822 42.3867 319.822 41.48V30.68H320.942L312.062 42.4C311.742 42.8533 311.328 43.2933 310.822 43.72C310.342 44.1467 309.635 44.36 308.702 44.36ZM345.47 44.36C344.59 44.36 343.897 44.12 343.39 43.64C342.91 43.1333 342.67 42.4267 342.67 41.52V37.64H340.91C340.297 37.64 339.75 37.8267 339.27 38.2C338.79 38.5467 338.363 39 337.99 39.56L335.83 42.84C335.377 43.5333 334.843 43.9867 334.23 44.2C333.617 44.4133 333.017 44.4267 332.43 44.24C331.87 44.0533 331.403 43.7467 331.03 43.32C330.657 42.8933 330.43 42.3867 330.35 41.8C330.297 41.2133 330.497 40.6267 330.95 40.04L332.03 38.36C332.403 37.7733 332.95 37.2533 333.67 36.8C334.39 36.32 335.15 36.08 335.95 36.08H337.03V36.56C334.657 36.56 332.843 36.0533 331.59 35.04C330.363 34.0267 329.75 32.5467 329.75 30.6C329.75 29.2933 330.043 28.1867 330.63 27.28C331.243 26.3467 332.123 25.6267 333.27 25.12C334.443 24.6133 335.883 24.36 337.59 24.36H345.27C346.23 24.36 346.963 24.6133 347.47 25.12C347.977 25.6267 348.23 26.36 348.23 27.32V41.52C348.23 42.4267 347.977 43.1333 347.47 43.64C346.963 44.12 346.297 44.36 345.47 44.36ZM338.87 33.76H342.67V28.24H338.87C337.723 28.24 336.857 28.48 336.27 28.96C335.71 29.44 335.43 30.1067 335.43 30.96C335.43 31.84 335.71 32.5333 336.27 33.04C336.857 33.52 337.723 33.76 338.87 33.76Z" fill="white"/>
<path d="M9.7369 3.81627C3.60473 6.4118 0.660514 7.69866 0.553274 7.85134C0.348544 8.12398 0.329046 8.58201 0.514278 8.85465C0.592271 8.96371 1.51843 9.42174 2.57133 9.86887C3.62423 10.3051 4.53089 10.6977 4.58939 10.7413C4.64788 10.7849 4.37491 10.9594 3.9752 11.1339C3.57549 11.3084 3.19527 11.5265 3.13678 11.6247C3.03929 11.7664 3.01004 13.4459 3.01004 19.1604V26.5217L1.79141 28.2121C0.455784 30.0551 0.338795 30.3496 0.797001 30.8294C1.02123 31.0693 1.08947 31.0693 3.75097 31.0693C6.48071 31.0693 6.49046 31.0693 6.69519 30.8185C7.12415 30.3169 7.01691 30.0442 5.69103 28.1903L4.4724 26.489L4.4919 19.6076L4.52115 12.7152L5.34982 12.3663C5.80802 12.17 6.27598 11.9846 6.40272 11.9409L6.6172 11.8646V16.3686C6.6172 21.2761 6.64644 21.6142 7.17289 22.6938C8.21604 24.8313 10.9555 26.6744 14.3287 27.5032C16.0445 27.9285 17.1364 28.0594 19.096 28.0594C20.0904 28.0594 21.3188 27.994 21.8257 27.9176C26.983 27.1542 30.6876 24.6896 31.4286 21.5269C31.5456 20.9926 31.5748 20.0547 31.5748 16.2268V11.581L34.519 10.3378C36.1374 9.65076 37.5412 8.99642 37.6387 8.88737C37.863 8.61473 37.863 8.14579 37.6485 7.85134C37.434 7.56779 19.447 -0.0224991 19.0278 -0.000686646C18.8815 0.0102177 14.6992 1.7224 9.7369 3.81627ZM27.0707 5.05951C31.3213 6.84802 34.7628 8.35299 34.7238 8.39662C34.6848 8.44024 31.1459 9.94521 26.8758 11.7446L19.096 15.0163L14.1337 12.9224C11.3942 11.7773 9.19095 10.8068 9.22995 10.774C9.26894 10.7304 10.1561 10.3378 11.1993 9.91249C12.2424 9.47627 13.1783 9.01823 13.2758 8.89827C13.5293 8.57111 13.4903 8.01492 13.1881 7.74228C13.0418 7.61141 12.8566 7.51326 12.7591 7.51326C12.6714 7.51326 11.3162 8.04764 9.7564 8.70197L6.92917 9.89068L5.23283 9.18182C4.30667 8.80012 3.50724 8.44024 3.46825 8.39662C3.37076 8.28756 18.8913 1.7333 19.1447 1.77692C19.252 1.78783 22.8201 3.27099 27.0707 5.05951ZM13.7633 14.5692L19.096 16.8157L24.5652 14.5147L30.0345 12.2136L29.976 12.5626C29.7615 13.7622 28.5234 15.1581 26.827 16.1178C25.3647 16.9357 23.3466 17.5573 21.465 17.7645C19.7394 17.9499 19.7102 17.9608 19.486 18.288C19.2325 18.6479 19.2812 19.1386 19.603 19.444C19.7979 19.6185 19.9344 19.6294 20.7046 19.5748C22.9761 19.3895 25.4231 18.7242 27.139 17.83C28.1626 17.2956 29.2448 16.5213 29.6737 16.0196C29.8297 15.8342 29.9955 15.6925 30.0442 15.6925C30.1807 15.6925 30.0247 16.9902 29.8297 17.4919C28.8841 19.8802 25.3744 21.756 20.9483 22.2467C19.9052 22.3667 19.7102 22.4103 19.5152 22.6284C19.2227 22.9556 19.2325 23.3809 19.5347 23.7081C19.8272 24.0352 20.2951 24.057 21.9915 23.8171C25.0137 23.37 27.5972 22.2903 29.4105 20.6763C29.7517 20.3819 30.0442 20.1637 30.0637 20.1856C30.093 20.2183 30.0735 20.4909 30.015 20.8072C29.664 22.901 27.4217 24.7441 24.0485 25.7147C17.8286 27.5032 10.1269 25.5293 8.45002 21.7123L8.1283 20.9817L8.09905 16.5758C8.06981 12.3663 8.07956 12.1809 8.24529 12.2463C8.34278 12.2899 10.819 13.3368 13.7633 14.5692ZM4.48215 29.2372C4.56989 29.4226 4.5114 29.4335 3.78997 29.4335C3.29276 29.4335 3.01004 29.3899 3.01004 29.3135C3.01004 29.2481 3.17577 28.9755 3.37076 28.7028L3.73147 28.2121L4.06294 28.6265C4.23842 28.8664 4.42365 29.139 4.48215 29.2372Z" fill="white"/>
<path d="M10.3992 28.0378C9.99952 28.8449 9.6388 29.8264 9.41458 30.7097C9.20985 31.5494 9.2001 31.6585 9.17085 40.4266L9.1416 49.2928L13.8894 56.9813C17.4381 62.7394 18.6859 64.6806 18.8614 64.7242C19.4269 64.8878 19.3879 64.9533 24.3014 56.9813L29.0395 49.3037V40.7974C29.0395 31.7567 29.0297 31.4731 28.5617 29.9463C28.3668 29.3247 27.7233 27.8197 27.5771 27.6452C27.5283 27.5907 27.2261 27.678 26.8654 27.8525L26.2415 28.1578L26.5339 28.714C26.9531 29.521 27.3431 30.6661 27.5186 31.6367C27.6551 32.3565 27.6746 33.5997 27.6746 40.3393V48.1914H25.2861H22.8975V38.6926V29.1829L22.3906 29.2593C22.1079 29.292 21.7959 29.3247 21.7082 29.3247C21.5424 29.3247 21.5327 29.8482 21.5327 38.758V48.1914H19.0954H16.6581V38.7689V29.3574L16.1512 29.2811C15.8685 29.2484 15.5565 29.2157 15.4687 29.2157C15.303 29.2157 15.2933 29.7391 15.2933 38.7035V48.1914H12.9047H10.5162V40.3393C10.5162 33.5997 10.5357 32.3565 10.6722 31.6367C10.8477 30.6661 11.2377 29.521 11.6569 28.714L11.9493 28.1578L11.3546 27.8743C11.0329 27.7107 10.7307 27.5798 10.6917 27.5798C10.6625 27.5798 10.526 27.787 10.3992 28.0378ZM26.9629 49.8599C26.9337 49.9363 25.6078 52.1283 24.0089 54.7129L21.094 59.4241H19.0954H17.0968L14.1819 54.7129C12.583 52.1283 11.2571 49.9363 11.2279 49.8599C11.1889 49.74 12.5928 49.7182 19.0954 49.7182C25.598 49.7182 27.0019 49.74 26.9629 49.8599ZM20.0703 61.0054C20.0703 61.1145 19.1636 62.5867 19.0954 62.5867C19.0272 62.5867 18.1205 61.1145 18.1205 61.0054C18.1205 60.9727 18.5592 60.9509 19.0954 60.9509C19.6316 60.9509 20.0703 60.9727 20.0703 61.0054Z" fill="white"/>
</svg>
