<svg width="65" height="52" viewBox="0 0 65 52" fill="none" xmlns="http://www.w3.org/2000/svg">
<path d="M23.2405 49.5896C22.8237 49.5896 22.4597 49.5078 22.1485 49.3443C21.8425 49.1808 21.6051 48.946 21.4363 48.64C21.2675 48.3341 21.1831 47.9727 21.1831 47.556C21.1831 47.2447 21.2306 46.9651 21.3255 46.7172C21.4205 46.4692 21.5577 46.2582 21.737 46.0841C21.9217 45.9048 22.1406 45.7702 22.3938 45.6806C22.647 45.5856 22.9293 45.5381 23.2405 45.5381C23.6573 45.5381 24.0186 45.6199 24.3246 45.7834C24.6358 45.947 24.8759 46.1791 25.0447 46.4798C25.2188 46.7805 25.3058 47.1392 25.3058 47.556C25.3058 47.8725 25.2557 48.1547 25.1555 48.4027C25.0605 48.6506 24.9233 48.8642 24.744 49.0436C24.5646 49.223 24.3457 49.3601 24.0872 49.4551C23.834 49.5448 23.5517 49.5896 23.2405 49.5896ZM23.2405 48.6954C23.4146 48.6954 23.5649 48.6532 23.6915 48.5688C23.8181 48.4844 23.9184 48.3604 23.9922 48.1969C24.0661 48.0281 24.103 47.8144 24.103 47.556C24.103 47.1709 24.0239 46.8886 23.8656 46.7093C23.7074 46.5246 23.499 46.4323 23.2405 46.4323C23.0717 46.4323 22.9213 46.4719 22.7895 46.551C22.6628 46.6301 22.5626 46.7541 22.4888 46.9229C22.4202 47.0864 22.3859 47.2975 22.3859 47.556C22.3859 47.9411 22.465 48.2286 22.6233 48.4185C22.7815 48.6031 22.9873 48.6954 23.2405 48.6954ZM27.4254 49.5738C27.2303 49.5738 27.0799 49.521 26.9744 49.4155C26.8742 49.31 26.8241 49.1597 26.8241 48.9645V46.1553C26.8241 45.9602 26.8742 45.8124 26.9744 45.7122C27.0799 45.6067 27.225 45.554 27.4096 45.554C27.5995 45.554 27.7446 45.6067 27.8448 45.7122C27.9451 45.8124 27.9952 45.9602 27.9952 46.1553V46.6064L27.9081 46.3453C28.0295 46.0868 28.2088 45.8889 28.4462 45.7518C28.6889 45.6093 28.9632 45.5381 29.2692 45.5381C29.5804 45.5381 29.8363 45.5988 30.0368 45.7201C30.2372 45.8362 30.3876 46.0155 30.4878 46.2582C30.588 46.4956 30.6381 46.7989 30.6381 47.1682V48.9645C30.6381 49.1597 30.5854 49.31 30.4799 49.4155C30.3797 49.521 30.2319 49.5738 30.0368 49.5738C29.8468 49.5738 29.6991 49.521 29.5936 49.4155C29.4934 49.31 29.4433 49.1597 29.4433 48.9645V47.2236C29.4433 46.9546 29.3932 46.762 29.2929 46.646C29.198 46.5246 29.0503 46.464 28.8498 46.464C28.5966 46.464 28.3935 46.5431 28.2405 46.7013C28.0928 46.8596 28.0189 47.0706 28.0189 47.3344V48.9645C28.0189 49.3707 27.8211 49.5738 27.4254 49.5738ZM33.7221 49.5896C33.2526 49.5896 32.9017 49.4604 32.6696 49.2019C32.4375 48.9381 32.3215 48.5477 32.3215 48.0307V44.462C32.3215 44.2615 32.3716 44.1111 32.4718 44.0109C32.5773 43.9054 32.7277 43.8526 32.9228 43.8526C33.1128 43.8526 33.2578 43.9054 33.3581 44.0109C33.4636 44.1111 33.5163 44.2615 33.5163 44.462V47.9833C33.5163 48.1995 33.5612 48.3604 33.6508 48.466C33.7458 48.5662 33.8698 48.6163 34.0228 48.6163C34.065 48.6163 34.1045 48.6137 34.1415 48.6084C34.1784 48.6031 34.218 48.6005 34.2602 48.6005C34.3446 48.5899 34.4026 48.6163 34.4342 48.6796C34.4712 48.7376 34.4896 48.8563 34.4896 49.0357C34.4896 49.194 34.458 49.3153 34.3947 49.3997C34.3314 49.4788 34.2338 49.5316 34.1019 49.558C34.0491 49.5632 33.9885 49.5685 33.9199 49.5738C33.8513 49.5843 33.7854 49.5896 33.7221 49.5896ZM36.3493 49.5659C36.1541 49.5659 36.0037 49.5105 35.8982 49.3997C35.798 49.2836 35.7479 49.1227 35.7479 48.917V46.2107C35.7479 45.9997 35.798 45.8388 35.8982 45.728C36.0037 45.612 36.1541 45.554 36.3493 45.554C36.5392 45.554 36.6842 45.612 36.7845 45.728C36.89 45.8388 36.9427 45.9997 36.9427 46.2107V48.917C36.9427 49.1227 36.8926 49.2836 36.7924 49.3997C36.6922 49.5105 36.5444 49.5659 36.3493 49.5659ZM36.3493 44.9051C36.1277 44.9051 35.9562 44.855 35.8349 44.7547C35.7189 44.6492 35.6608 44.5015 35.6608 44.3116C35.6608 44.1164 35.7189 43.9687 35.8349 43.8685C35.9562 43.763 36.1277 43.7102 36.3493 43.7102C36.5708 43.7102 36.7396 43.763 36.8557 43.8685C36.9718 43.9687 37.0298 44.1164 37.0298 44.3116C37.0298 44.5015 36.9718 44.6492 36.8557 44.7547C36.7396 44.855 36.5708 44.9051 36.3493 44.9051ZM39.2579 49.5738C39.0627 49.5738 38.9124 49.521 38.8069 49.4155C38.7066 49.31 38.6565 49.1597 38.6565 48.9645V46.1553C38.6565 45.9602 38.7066 45.8124 38.8069 45.7122C38.9124 45.6067 39.0575 45.554 39.2421 45.554C39.432 45.554 39.5771 45.6067 39.6773 45.7122C39.7775 45.8124 39.8277 45.9602 39.8277 46.1553V46.6064L39.7406 46.3453C39.8619 46.0868 40.0413 45.8889 40.2787 45.7518C40.5214 45.6093 40.7957 45.5381 41.1017 45.5381C41.4129 45.5381 41.6688 45.5988 41.8692 45.7201C42.0697 45.8362 42.22 46.0155 42.3203 46.2582C42.4205 46.4956 42.4706 46.7989 42.4706 47.1682V48.9645C42.4706 49.1597 42.4179 49.31 42.3124 49.4155C42.2121 49.521 42.0644 49.5738 41.8692 49.5738C41.6793 49.5738 41.5316 49.521 41.4261 49.4155C41.3259 49.31 41.2757 49.1597 41.2757 48.9645V47.2236C41.2757 46.9546 41.2256 46.762 41.1254 46.646C41.0304 46.5246 40.8827 46.464 40.6823 46.464C40.4291 46.464 40.2259 46.5431 40.073 46.7013C39.9253 46.8596 39.8514 47.0706 39.8514 47.3344V48.9645C39.8514 49.3707 39.6536 49.5738 39.2579 49.5738ZM46.1718 49.5896C45.7128 49.5896 45.3171 49.5078 44.9848 49.3443C44.6577 49.1755 44.4045 48.9407 44.2251 48.64C44.0511 48.3341 43.964 47.9753 43.964 47.5639C43.964 47.1629 44.0484 46.8121 44.2172 46.5114C44.386 46.2055 44.6208 45.9681 44.9215 45.7993C45.2275 45.6252 45.573 45.5381 45.9581 45.5381C46.2377 45.5381 46.4909 45.5856 46.7178 45.6806C46.9446 45.7702 47.1398 45.9021 47.3033 46.0762C47.4669 46.245 47.5908 46.4534 47.6752 46.7013C47.7596 46.944 47.8018 47.2157 47.8018 47.5164C47.8018 47.6166 47.7702 47.6931 47.7069 47.7459C47.6436 47.7933 47.5513 47.8171 47.4299 47.8171H44.9452V47.1999H46.9393L46.8127 47.3107C46.8127 47.0944 46.7811 46.915 46.7178 46.7726C46.6545 46.6249 46.5621 46.5141 46.4408 46.4402C46.3247 46.3664 46.1797 46.3294 46.0056 46.3294C45.8104 46.3294 45.6442 46.3743 45.5071 46.464C45.3699 46.5536 45.2644 46.6829 45.1905 46.8517C45.1167 47.0205 45.0798 47.2236 45.0798 47.461V47.5243C45.0798 47.9252 45.1721 48.2207 45.3567 48.4106C45.5466 48.6005 45.8262 48.6954 46.1955 48.6954C46.3221 48.6954 46.4672 48.6796 46.6307 48.648C46.7943 48.6163 46.9472 48.5662 47.0897 48.4976C47.211 48.4396 47.3191 48.4211 47.4141 48.4422C47.5091 48.458 47.5829 48.5002 47.6357 48.5688C47.6884 48.6374 47.7174 48.7165 47.7227 48.8062C47.7333 48.8959 47.7148 48.9856 47.6673 49.0753C47.6198 49.1597 47.5407 49.2309 47.4299 49.2889C47.2506 49.3891 47.0475 49.463 46.8206 49.5105C46.5991 49.5632 46.3828 49.5896 46.1718 49.5896Z" fill="#F5F5F5"/>
<path d="M30.2777 16.1787C27.471 17.2078 26.1234 17.718 26.0743 17.7785C25.9806 17.8866 25.9716 18.0682 26.0564 18.1763C26.0921 18.2196 26.516 18.4012 26.998 18.5785C27.4799 18.7514 27.8949 18.9071 27.9217 18.9244C27.9484 18.9417 27.8235 19.0109 27.6405 19.08C27.4576 19.1492 27.2836 19.2357 27.2568 19.2746C27.2122 19.3308 27.1988 19.9967 27.1988 22.2625V25.1811L26.641 25.8513C26.0297 26.5821 25.9761 26.6988 26.1858 26.8891C26.2885 26.9842 26.3197 26.9842 27.5379 26.9842C28.7873 26.9842 28.7918 26.9842 28.8855 26.8847C29.0818 26.6858 29.0328 26.5777 28.4259 25.8427L27.8681 25.1681L27.877 22.4397L27.8904 19.707L28.2697 19.5686C28.4794 19.4908 28.6936 19.4173 28.7516 19.4L28.8498 19.3697V21.1555C28.8498 23.1013 28.8632 23.2353 29.1042 23.6634C29.5816 24.5109 30.8355 25.2416 32.3794 25.5703C33.1648 25.7389 33.6646 25.7908 34.5615 25.7908C35.0166 25.7908 35.5789 25.7648 35.8109 25.7346C38.1714 25.4319 39.8671 24.4547 40.2062 23.2008C40.2598 22.9889 40.2732 22.617 40.2732 21.0993V19.2573L41.6208 18.7644C42.3615 18.492 43.0041 18.2326 43.0487 18.1893C43.1513 18.0812 43.1513 17.8953 43.0532 17.7785C42.955 17.6661 34.7221 14.6567 34.5303 14.6653C34.4633 14.6696 32.549 15.3485 30.2777 16.1787ZM38.2116 16.6716C40.1572 17.3807 41.7323 17.9774 41.7145 17.9947C41.6966 18.012 40.0768 18.6087 38.1224 19.3222L34.5615 20.6194L32.2902 19.7892C31.0363 19.3352 30.0278 18.9503 30.0457 18.9374C30.0635 18.9201 30.4696 18.7644 30.9471 18.5958C31.4245 18.4228 31.8529 18.2412 31.8975 18.1936C32.0135 18.0639 31.9957 17.8434 31.8574 17.7353C31.7904 17.6834 31.7056 17.6445 31.661 17.6445C31.6209 17.6445 31.0006 17.8564 30.2866 18.1158L28.9926 18.5871L28.2162 18.3061C27.7922 18.1547 27.4263 18.012 27.4085 17.9947C27.3639 17.9515 34.4678 15.3528 34.5838 15.3701C34.6329 15.3744 36.2661 15.9625 38.2116 16.6716ZM32.1206 20.4421L34.5615 21.3328L37.0648 20.4205L39.5681 19.5081L39.5414 19.6465C39.4432 20.1221 38.8765 20.6756 38.1001 21.0561C37.4307 21.3804 36.507 21.6268 35.6458 21.709C34.856 21.7825 34.8426 21.7868 34.74 21.9165C34.624 22.0592 34.6463 22.2538 34.7935 22.3749C34.8828 22.4441 34.9452 22.4484 35.2978 22.4268C36.3375 22.3533 37.4575 22.0895 38.2428 21.7349C38.7114 21.5231 39.2067 21.2161 39.403 21.0172C39.4744 20.9437 39.5503 20.8874 39.5726 20.8874C39.6351 20.8874 39.5637 21.402 39.4744 21.6009C39.0416 22.5478 37.4352 23.2916 35.4093 23.4861C34.9319 23.5337 34.8426 23.551 34.7534 23.6375C34.6195 23.7672 34.624 23.9358 34.7623 24.0655C34.8962 24.1953 35.1103 24.2039 35.8868 24.1088C37.2701 23.9315 38.4526 23.5034 39.2825 22.8635C39.4387 22.7467 39.5726 22.6603 39.5815 22.6689C39.5949 22.6819 39.586 22.79 39.5592 22.9154C39.3986 23.7456 38.3722 24.4763 36.8283 24.8611C33.9814 25.5703 30.4562 24.7876 29.6887 23.2743L29.5415 22.9846L29.5281 21.2377C29.5147 19.5686 29.5191 19.4951 29.595 19.5211C29.6396 19.5384 30.773 19.9535 32.1206 20.4421ZM27.8726 26.2578C27.9127 26.3313 27.886 26.3356 27.5557 26.3356C27.3282 26.3356 27.1988 26.3183 27.1988 26.288C27.1988 26.2621 27.2746 26.154 27.3639 26.0459L27.529 25.8513L27.6807 26.0156C27.761 26.1108 27.8458 26.2189 27.8726 26.2578Z" fill="white"/>
<path d="M30.5815 25.7823C30.3985 26.1023 30.2334 26.4914 30.1308 26.8417C30.0371 27.1746 30.0326 27.2179 30.0192 30.6943L30.0059 34.2096L32.179 37.258C33.8032 39.5411 34.3744 40.3107 34.4547 40.328C34.7135 40.3929 34.6957 40.4188 36.9447 37.258L39.1133 34.214V30.8413C39.1133 27.2568 39.1089 27.1443 38.8947 26.539C38.8054 26.2925 38.5109 25.6958 38.444 25.6266C38.4217 25.605 38.2833 25.6396 38.1182 25.7088L37.8327 25.8299L37.9665 26.0504C38.1584 26.3704 38.3369 26.8244 38.4172 27.2092C38.4797 27.4946 38.4886 27.9875 38.4886 30.6597V33.7729H37.3953H36.3021V30.0068V26.2363L36.0701 26.2666C35.9407 26.2796 35.7979 26.2925 35.7577 26.2925C35.6818 26.2925 35.6774 26.5001 35.6774 30.0327V33.7729H34.5618H33.4463V30.0371V26.3055L33.2142 26.2752C33.0848 26.2623 32.942 26.2493 32.9019 26.2493C32.826 26.2493 32.8215 26.4568 32.8215 30.0111V33.7729H31.7283H30.635V30.6597C30.635 27.9875 30.644 27.4946 30.7064 27.2092C30.7868 26.8244 30.9652 26.3704 31.1571 26.0504L31.291 25.8299L31.0188 25.7174C30.8715 25.6526 30.7332 25.6007 30.7154 25.6007C30.702 25.6007 30.6395 25.6829 30.5815 25.7823ZM38.1629 34.4345C38.1495 34.4648 37.5426 35.3339 36.8108 36.3586L35.4766 38.2266H34.5618H33.6471L32.3128 36.3586C31.581 35.3339 30.9742 34.4648 30.9608 34.4345C30.9429 34.3869 31.5855 34.3783 34.5618 34.3783C37.5381 34.3783 38.1807 34.3869 38.1629 34.4345ZM35.008 38.8536C35.008 38.8968 34.5931 39.4805 34.5618 39.4805C34.5306 39.4805 34.1156 38.8968 34.1156 38.8536C34.1156 38.8406 34.3164 38.8319 34.5618 38.8319C34.8072 38.8319 35.008 38.8406 35.008 38.8536Z" fill="white"/>
<path d="M9.3566 34.8423C9.33696 35.1104 9.24623 35.312 9.08443 35.4471C8.92316 35.575 8.70268 35.6299 8.42298 35.6119L4.39766 35.3524C4.11797 35.3343 3.91135 35.2519 3.77781 35.105C3.63725 34.9503 3.57625 34.7462 3.59483 34.4927C3.61394 34.2319 3.70413 34.0375 3.8654 33.9096C4.01912 33.7813 4.23582 33.7261 4.51551 33.7441L5.2412 33.7909L4.77889 33.8812C4.44178 33.7139 4.17854 33.4713 3.98918 33.1534C3.79981 32.8355 3.72026 32.47 3.75052 32.0571C3.78077 31.6442 3.90804 31.3066 4.13231 31.0445C4.35659 30.7824 4.68463 30.607 5.11644 30.5184L5.10529 30.6705C4.73145 30.4863 4.44686 30.2241 4.25153 29.884C4.04917 29.5361 3.96365 29.1485 3.99497 28.7211C4.02523 28.3081 4.13684 27.9769 4.32982 27.7273C4.51576 27.47 4.78738 27.2873 5.14466 27.1793C5.49438 27.0709 5.93382 27.0337 6.46297 27.0678L9.03691 27.2337C9.3166 27.2518 9.52673 27.3381 9.6673 27.4928C9.8084 27.6401 9.86939 27.8442 9.85028 28.105C9.83064 28.3731 9.73992 28.5747 9.57812 28.7098C9.41685 28.8377 9.19636 28.8926 8.91667 28.8746L6.39943 28.7123C6.02902 28.6884 5.75642 28.7291 5.58162 28.8343C5.3998 28.9317 5.29906 29.1145 5.27942 29.3825C5.2566 29.694 5.3522 29.944 5.56624 30.1325C5.78028 30.321 6.09518 30.4286 6.51094 30.4555L8.79006 30.6024C9.06976 30.6204 9.27989 30.7068 9.42046 30.8614C9.56156 31.0088 9.62255 31.2129 9.60344 31.4737C9.58433 31.7345 9.49387 31.9325 9.33207 32.0676C9.17027 32.2027 8.94952 32.2613 8.66983 32.2433L6.15258 32.081C5.78218 32.0571 5.50958 32.0977 5.33478 32.2029C5.15295 32.3004 5.05222 32.4831 5.03258 32.7512C5.00975 33.0627 5.10536 33.3127 5.3194 33.5012C5.53344 33.6896 5.84834 33.7973 6.2641 33.8241L8.54322 33.971C9.12529 34.0086 9.39641 34.299 9.3566 34.8423Z" fill="white"/>
<path d="M11.516 23.49C11.2569 24.0716 10.9256 24.529 10.5219 24.8623C10.1143 25.1861 9.66126 25.3809 9.16282 25.4466C8.66039 25.5029 8.13741 25.4205 7.5939 25.1994C7.06432 24.984 6.64859 24.6886 6.3467 24.3132C6.03785 23.9349 5.85681 23.5099 5.80358 23.0382C5.74637 22.5569 5.82646 22.0723 6.04387 21.5843C6.20171 21.23 6.40737 20.9346 6.66086 20.6982C6.90738 20.4589 7.19178 20.2824 7.51405 20.1687C7.82935 20.0522 8.17458 20.007 8.54973 20.0332C8.91792 20.0566 9.3006 20.1491 9.69779 20.3106C9.83018 20.3645 9.91335 20.4457 9.9473 20.5543C9.97427 20.66 9.95351 20.7897 9.88501 20.9435L8.48231 24.0921L7.66703 23.7605L8.79277 21.2336L8.86763 21.4535C8.58193 21.3374 8.32715 21.2811 8.10327 21.2848C7.87242 21.2857 7.67397 21.3432 7.50792 21.4572C7.34485 21.5646 7.21417 21.7286 7.11589 21.9492C7.0057 22.1966 6.97112 22.4312 7.01215 22.6532C7.05317 22.8752 7.16433 23.0783 7.34562 23.2626C7.5269 23.4469 7.77433 23.6028 8.0879 23.7303L8.17152 23.7643C8.7011 23.9797 9.14343 24.0214 9.49852 23.8894C9.85659 23.7508 10.1399 23.4475 10.3483 22.9796C10.4198 22.8191 10.4808 22.6268 10.5313 22.4026C10.5818 22.1783 10.602 21.9576 10.5918 21.7402C10.5837 21.5553 10.6203 21.4083 10.7018 21.2993C10.7763 21.1875 10.8738 21.1166 10.9941 21.0866C11.1145 21.0566 11.2354 21.0623 11.3568 21.1038C11.4812 21.1386 11.5893 21.2102 11.6809 21.3185C11.7656 21.424 11.815 21.5626 11.8291 21.7341C11.8603 22.0153 11.8432 22.3123 11.7778 22.6253C11.7224 22.9344 11.6352 23.2226 11.516 23.49Z" fill="white"/>
<path d="M16.1369 19.6557C15.8804 19.9619 15.6068 20.2363 15.3161 20.479C15.0302 20.7161 14.7438 20.9015 14.457 21.0353C14.2887 21.1204 14.1336 21.155 13.9916 21.1391C13.8544 21.1176 13.7351 21.0632 13.6335 20.9759C13.5368 20.8829 13.4708 20.7763 13.4356 20.6561C13.4052 20.5303 13.4103 20.4084 13.4509 20.2904C13.4974 20.177 13.587 20.0875 13.7198 20.0217C14.0469 19.8629 14.316 19.6922 14.5272 19.5096C14.7432 19.3213 14.9153 19.1507 15.0435 18.9976C15.3476 18.6347 15.49 18.2967 15.4708 17.9838C15.4516 17.6708 15.2649 17.3783 14.9106 17.1062L14.2376 16.5892L14.3017 16.5126C14.502 16.8063 14.5762 17.1521 14.5241 17.5502C14.472 17.9482 14.3106 18.3088 14.0398 18.632C13.7263 19.0062 13.3646 19.2642 12.9547 19.406C12.5389 19.5433 12.1045 19.5637 11.6515 19.4674C11.1926 19.3665 10.7477 19.1506 10.3167 18.8195C9.99199 18.5701 9.73242 18.3008 9.53799 18.0117C9.34832 17.7169 9.22553 17.4175 9.16962 17.1136C9.11846 16.8041 9.1377 16.4973 9.22736 16.1934C9.31586 15.8793 9.47649 15.5833 9.70927 15.3055C9.98955 14.9709 10.3222 14.7418 10.7072 14.6182C11.091 14.4844 11.4544 14.4792 11.7972 14.6028L12.0093 14.9055L11.5045 14.5178C11.2861 14.35 11.1659 14.1691 11.144 13.9752C11.1209 13.7711 11.1949 13.567 11.3659 13.3629C11.5369 13.1587 11.7266 13.0481 11.935 13.0311C12.1374 13.0095 12.3478 13.0827 12.5663 13.2505L15.8076 15.7402C16.5338 16.2981 16.9184 16.9103 16.9614 17.5771C17.015 18.2427 16.7402 18.9356 16.1369 19.6557ZM13.3598 17.4805C13.5213 17.2878 13.6118 17.087 13.6314 16.8784C13.6557 16.6641 13.6155 16.4515 13.5108 16.2406C13.4002 16.0251 13.2238 15.8244 12.9818 15.6385C12.6157 15.3573 12.2587 15.2275 11.9107 15.2491C11.5615 15.2605 11.2682 15.4079 11.0307 15.6914C10.8691 15.8842 10.7762 16.0878 10.7519 16.3021C10.7217 16.5119 10.7619 16.7245 10.8725 16.9399C10.982 17.1452 11.1578 17.3408 11.3998 17.5267C11.7659 17.8079 12.1235 17.9428 12.4726 17.9314C12.8218 17.92 13.1175 17.7697 13.3598 17.4805Z" fill="white"/>
<path d="M18.9656 14.0741C18.6315 14.3014 18.2854 14.4434 17.9275 14.5001C17.5696 14.5568 17.2376 14.5291 16.9316 14.4171C16.6256 14.3051 16.3742 14.116 16.1774 13.8498C15.9412 13.5303 15.8419 13.2199 15.8796 12.9186C15.9129 12.6114 16.096 12.2868 16.429 11.9448C16.7576 11.5968 17.2437 11.204 17.8872 10.7663L18.3792 10.4317L18.891 11.124L18.4083 11.4523C18.0927 11.6669 17.849 11.8593 17.6772 12.0295C17.5073 12.1895 17.4074 12.3375 17.3777 12.4733C17.3541 12.6049 17.3926 12.7388 17.4932 12.8749C17.6157 13.0405 17.7751 13.1366 17.9714 13.1632C18.1739 13.1855 18.3896 13.1188 18.6185 12.9631C18.798 12.8411 18.9274 12.6953 19.0066 12.5258C19.0877 12.3461 19.1182 12.1609 19.098 11.9701C19.0735 11.7734 18.9956 11.5863 18.8644 11.4088L18.1098 10.3882C17.9174 10.1278 17.7199 9.98651 17.5174 9.96418C17.3105 9.93593 17.0586 10.0228 16.7616 10.2248C16.5945 10.3384 16.4273 10.4833 16.2599 10.6594C16.0943 10.8254 15.9267 11.0327 15.7572 11.2813C15.6648 11.4331 15.5551 11.53 15.428 11.5719C15.2966 11.608 15.1724 11.6035 15.0554 11.5585C14.9341 11.5077 14.8363 11.4319 14.7619 11.3314C14.6832 11.2249 14.6398 11.1032 14.6317 10.9665C14.6192 10.8238 14.6666 10.6804 14.774 10.5363C14.9817 10.2261 15.1971 9.96397 15.4202 9.75001C15.6495 9.53183 15.8724 9.3491 16.089 9.2018C16.5654 8.87775 17.0056 8.68066 17.4094 8.61053C17.815 8.53027 18.198 8.57658 18.5583 8.74946C18.9142 8.91642 19.2518 9.21586 19.5711 9.64778L21.0277 11.618C21.1895 11.837 21.2585 12.0435 21.2346 12.2376C21.2107 12.4316 21.0936 12.6002 20.8832 12.7433C20.6728 12.8864 20.4651 12.9388 20.26 12.9004C20.0611 12.8578 19.8808 12.7271 19.7189 12.5081L19.4762 12.1798L19.5805 12.1888C19.6921 12.4152 19.7407 12.6445 19.7263 12.8766C19.7137 13.0985 19.6452 13.3141 19.5208 13.5232C19.392 13.7263 19.207 13.91 18.9656 14.0741Z" fill="white"/>
<path d="M22.7164 9.04202C22.5396 9.1078 22.3644 9.10684 22.1908 9.03915C22.0243 8.96883 21.9069 8.84908 21.8388 8.6799C21.768 8.50395 21.7695 8.33609 21.8434 8.17632C21.9243 8.01391 22.0532 7.89983 22.2299 7.83405L24.4149 7.02109C24.5916 6.95531 24.7633 6.95758 24.9298 7.0279C25.1034 7.09559 25.2257 7.21741 25.2965 7.39336C25.3646 7.56254 25.3582 7.72834 25.2773 7.89074C25.2034 8.05051 25.0781 8.16328 24.9013 8.22906L22.7164 9.04202Z" fill="white"/>
<path d="M29.9057 9.39388C29.4994 9.44129 29.125 9.4082 28.7826 9.29459C28.4403 9.18099 28.1627 9.00499 27.9499 8.76659C27.7371 8.52819 27.6106 8.24683 27.5704 7.92249C27.5221 7.53328 27.5894 7.21467 27.7724 6.96666C27.9545 6.71143 28.2768 6.50931 28.7392 6.3603C29.2008 6.20408 29.8228 6.08032 30.6054 5.98901L31.2037 5.91921L31.3083 6.76248L30.7213 6.83097C30.3376 6.87575 30.028 6.93381 29.7925 7.00515C29.5637 7.0684 29.4025 7.15302 29.3087 7.25901C29.2225 7.36412 29.1897 7.49957 29.2103 7.66534C29.2353 7.86715 29.3274 8.02458 29.4865 8.13763C29.6531 8.24981 29.8756 8.28965 30.154 8.25717C30.3722 8.23171 30.5583 8.16247 30.7122 8.04945C30.8728 7.92836 30.9917 7.77921 31.0689 7.60203C31.1453 7.41763 31.1701 7.21732 31.1432 7.0011L30.989 5.7578C30.9496 5.44067 30.8466 5.22602 30.68 5.11385C30.5126 4.99446 30.2482 4.95584 29.887 4.99799C29.6838 5.02169 29.465 5.07282 29.2305 5.15137C29.0025 5.22183 28.7523 5.3278 28.4798 5.46928C28.3232 5.56067 28.1787 5.59581 28.0463 5.5747C27.913 5.54638 27.8062 5.48572 27.726 5.39272C27.6448 5.29251 27.5967 5.18114 27.5815 5.05861C27.5654 4.92887 27.5878 4.80196 27.6487 4.67786C27.7088 4.54655 27.8218 4.44197 27.9877 4.36411C28.3244 4.18591 28.6438 4.05358 28.9461 3.96713C29.2559 3.8798 29.5425 3.82077 29.8058 3.79004C30.3853 3.72243 30.8696 3.75 31.2589 3.87276C31.6548 3.98742 31.9679 4.20315 32.198 4.51996C32.4273 4.82955 32.5746 5.24742 32.6398 5.77357L32.9376 8.17367C32.9707 8.44035 32.9285 8.65366 32.8109 8.81361C32.6934 8.97357 32.5066 9.06847 32.2508 9.09832C31.995 9.12818 31.7866 9.07937 31.6257 8.9519C31.4724 8.82355 31.3792 8.62604 31.3461 8.35936L31.2965 7.95935L31.3835 8.015C31.3688 8.26532 31.2973 8.48935 31.1692 8.6871C31.0477 8.87676 30.8803 9.03522 30.6671 9.16246C30.453 9.2825 30.1992 9.35964 29.9057 9.39388Z" fill="white"/>
<path d="M37.3782 9.27297C36.7775 9.19658 36.2676 9.01817 35.8487 8.73774C35.4382 8.45107 35.1424 8.08373 34.9612 7.6357C34.78 7.18768 34.7296 6.67935 34.8101 6.11073C34.8702 5.68607 34.9918 5.31319 35.1748 4.99208C35.3579 4.67098 35.5938 4.4079 35.8828 4.20284C36.1792 3.99874 36.5201 3.85891 36.9053 3.78334C37.2916 3.70057 37.71 3.68784 38.1606 3.74513C38.3934 3.77474 38.6371 3.83504 38.8917 3.92605C39.1474 4.00985 39.3938 4.13277 39.6307 4.2948C39.7718 4.37867 39.8599 4.48514 39.8951 4.61418C39.9389 4.73699 39.9441 4.86221 39.9108 4.98986C39.8784 5.11031 39.8138 5.21567 39.717 5.30593C39.6286 5.38995 39.5218 5.44232 39.3966 5.46303C39.2724 5.47654 39.1403 5.43776 39.0003 5.34668C38.8688 5.24936 38.7268 5.17268 38.5742 5.11664C38.4291 5.06155 38.289 5.02541 38.1538 5.00822C37.9285 4.97958 37.7244 4.99026 37.5415 5.04027C37.3597 5.08309 37.1995 5.16163 37.061 5.27592C36.931 5.38395 36.819 5.52724 36.725 5.70579C36.6384 5.88529 36.5778 6.0974 36.5432 6.34212C36.4759 6.81717 36.5431 7.20673 36.7447 7.5108C36.9548 7.80863 37.2814 7.98572 37.7244 8.04206C37.8596 8.05925 38.0043 8.063 38.1585 8.0533C38.3138 8.03641 38.4722 7.99793 38.6335 7.93786C38.7939 7.88498 38.9316 7.88417 39.0467 7.93544C39.1617 7.98671 39.2459 8.06702 39.2992 8.17639C39.3611 8.27951 39.3866 8.39632 39.3758 8.52683C39.3735 8.65111 39.3336 8.7706 39.2562 8.88532C39.1874 8.9938 39.077 9.07136 38.9252 9.118C38.6525 9.20789 38.385 9.26179 38.1226 9.27971C37.8591 9.30482 37.611 9.30258 37.3782 9.27297Z" fill="white"/>
<path d="M42.2119 10.3519C41.8332 10.2042 41.5234 10.001 41.2823 9.7421C41.0412 9.48325 40.8882 9.19993 40.8235 8.89216C40.7587 8.58438 40.791 8.27916 40.9204 7.97649C41.0756 7.61329 41.296 7.36573 41.5814 7.23381C41.8698 7.09516 42.2535 7.06827 42.7326 7.15315C43.2145 7.23129 43.8201 7.41259 44.5493 7.69704L45.1067 7.91448L44.7703 8.70141L44.2234 8.48808C43.8658 8.34859 43.5662 8.25526 43.3246 8.20809C43.0929 8.15694 42.9093 8.15593 42.7737 8.20508C42.6452 8.25696 42.5479 8.36025 42.4817 8.51494C42.4012 8.70327 42.4017 8.88395 42.4832 9.05698C42.5717 9.23275 42.7456 9.37123 43.005 9.47243C43.2083 9.55175 43.4058 9.57777 43.5974 9.55051C43.799 9.51925 43.9784 9.44405 44.1356 9.32491C44.2958 9.19905 44.419 9.03523 44.5052 8.83345L45.0012 7.67322C45.1277 7.37728 45.1467 7.14143 45.0582 6.96566C44.9726 6.78316 44.7616 6.62627 44.425 6.49499C44.2357 6.42114 44.0188 6.364 43.7743 6.32356C43.5397 6.27913 43.2677 6.25539 42.9581 6.25234C42.7751 6.25943 42.6312 6.22291 42.5264 6.14279C42.4244 6.05593 42.362 5.95312 42.3392 5.83434C42.3192 5.70884 42.3337 5.58891 42.3826 5.47457C42.4343 5.3535 42.5182 5.25284 42.6343 5.17257C42.7533 5.08558 42.905 5.04664 43.0892 5.05574C43.4734 5.05649 43.8193 5.0894 44.1268 5.15446C44.4414 5.22225 44.7214 5.30401 44.9668 5.39974C45.5067 5.61034 45.9154 5.86 46.1928 6.14871C46.4801 6.43344 46.6438 6.76805 46.684 7.15254C46.727 7.53031 46.6436 7.9647 46.4337 8.45569L45.4763 10.6954C45.3699 10.9443 45.2248 11.1114 45.0411 11.1966C44.8574 11.2819 44.6464 11.2781 44.408 11.1851C44.1696 11.0921 44.0126 10.9524 43.9369 10.7659C43.8682 10.5821 43.887 10.3658 43.9934 10.117L44.153 9.74367L44.2007 9.83292C44.0609 10.0452 43.8849 10.208 43.6728 10.3215C43.4706 10.431 43.2442 10.4917 42.9936 10.5038C42.7459 10.5092 42.4853 10.4586 42.2119 10.3519Z" fill="white"/>
<path d="M48.2724 13.3536C47.8923 13.066 47.6298 12.7237 47.4847 12.3267C47.3456 11.9342 47.3324 11.5119 47.4451 11.0598C47.5578 10.6077 47.8001 10.1563 48.172 9.70579C48.5439 9.25525 48.9442 8.9281 49.3728 8.72436C49.8015 8.52062 50.2313 8.4382 50.6623 8.47711C51.0992 8.52051 51.5077 8.68601 51.8877 8.97362C52.2322 9.23426 52.4691 9.54328 52.5986 9.90069C52.734 10.2626 52.7433 10.6078 52.6265 10.9364L52.5285 10.8622L54.202 8.83478C54.3809 8.61806 54.5715 8.49822 54.7737 8.47524C54.9807 8.44656 55.1941 8.51535 55.4138 8.68163C55.6276 8.8434 55.7468 9.02626 55.7714 9.23019C55.8007 9.42843 55.7259 9.6359 55.547 9.85262L51.5292 14.7202C51.355 14.9312 51.1615 15.0488 50.9486 15.073C50.7416 15.1016 50.5312 15.0351 50.3174 14.8733C50.1036 14.7115 49.9844 14.5287 49.9598 14.3248C49.9411 14.1253 50.0189 13.9201 50.1931 13.7091L50.6732 13.1274L50.4958 13.5351C50.182 13.7517 49.8179 13.8421 49.4035 13.8065C48.9998 13.7697 48.6227 13.6187 48.2724 13.3536ZM49.4711 12.6902C49.6671 12.8385 49.874 12.921 50.0918 12.9376C50.3097 12.9542 50.5331 12.9055 50.7622 12.7916C50.996 12.6721 51.2282 12.4725 51.4589 12.1931C51.8025 11.7768 51.9653 11.4043 51.9472 11.0755C51.9338 10.7411 51.7816 10.4638 51.4907 10.2436C51.3006 10.0998 51.0961 10.0145 50.877 9.98771C50.6639 9.96541 50.4404 10.014 50.2066 10.1336C49.9835 10.252 49.7566 10.4509 49.5259 10.7304C49.1823 11.1467 49.0148 11.5249 49.0235 11.865C49.0369 12.1995 49.1861 12.4745 49.4711 12.6902Z" fill="white"/>
<path d="M53.8308 18.6399C53.4443 18.1292 53.2063 17.6227 53.1168 17.1204C53.0378 16.6198 53.0977 16.1478 53.2966 15.7046C53.5061 15.2631 53.8502 14.8756 54.3291 14.5422C54.7957 14.2174 55.275 14.0271 55.7671 13.9714C56.2653 13.9113 56.7393 13.9802 57.1889 14.178C57.6492 14.3774 58.0415 14.6914 58.3658 15.1199C58.6012 15.4309 58.7592 15.7512 58.8397 16.0805C58.9264 16.4055 58.9373 16.7296 58.8724 17.0526C58.8137 17.3713 58.6756 17.678 58.4581 17.9728C58.2468 18.2633 57.9662 18.5304 57.6162 18.774C57.4996 18.8552 57.3839 18.8819 57.2692 18.8542C57.1607 18.8223 57.0553 18.7388 56.9531 18.6038L54.8607 15.8391L55.579 15.3391L57.2582 17.5579L57.0227 17.5067C57.2744 17.3315 57.4565 17.151 57.5689 16.9652C57.6875 16.7751 57.7387 16.5826 57.7225 16.3878C57.7107 16.1988 57.6315 16.0075 57.4849 15.8138C57.3205 15.5966 57.1284 15.448 56.9085 15.368C56.6887 15.2881 56.4494 15.2754 56.1908 15.33C55.9321 15.3846 55.6647 15.508 55.3884 15.7003L55.3147 15.7516C54.8481 16.0764 54.5821 16.4185 54.5166 16.7778C54.4555 17.143 54.5804 17.531 54.8914 17.9419C54.998 18.0827 55.1386 18.2313 55.3132 18.3876C55.4877 18.544 55.6749 18.6736 55.8746 18.7765C56.0443 18.8645 56.1569 18.9699 56.2123 19.0926C56.2738 19.2111 56.2869 19.3275 56.2515 19.4417C56.2162 19.556 56.1485 19.6524 56.0486 19.7309C55.9531 19.8153 55.8332 19.8674 55.6888 19.8872C55.5506 19.9028 55.4011 19.8724 55.2403 19.7962C54.9726 19.6778 54.7156 19.5117 54.4693 19.2977C54.2214 19.0939 54.0085 18.8746 53.8308 18.6399Z" fill="white"/>
<path d="M56.2792 21.8019C56.1976 21.5452 56.2072 21.326 56.3081 21.1445C56.4112 20.97 56.5969 20.8433 56.8651 20.7643L60.7256 19.6281C60.9938 19.5491 61.2178 19.5553 61.3975 19.6466C61.5866 19.7427 61.7197 19.9123 61.7969 20.1552C61.8763 20.405 61.8645 20.6172 61.7614 20.7917C61.6656 20.9641 61.4835 21.0898 61.2153 21.1688L60.5193 21.3736L60.9179 21.1311C61.2955 21.1717 61.6321 21.3079 61.9278 21.5397C62.2234 21.7714 62.4341 22.0851 62.5598 22.4806C62.6855 22.8762 62.6924 23.2347 62.5805 23.556C62.4686 23.8774 62.2273 24.1533 61.8566 24.3839L61.8102 24.2381C62.2285 24.282 62.5924 24.4291 62.9019 24.6795C63.2209 24.9348 63.4454 25.2671 63.5755 25.6766C63.7013 26.0722 63.7205 26.4194 63.6331 26.7184C63.5552 27.0221 63.3694 27.2855 63.0756 27.5086C62.7891 27.7295 62.3921 27.9147 61.8846 28.064L59.416 28.7906C59.1478 28.8696 58.9191 28.861 58.73 28.7648C58.5431 28.6756 58.41 28.5061 58.3305 28.2563C58.2489 27.9995 58.2586 27.7804 58.3594 27.5989C58.4625 27.4243 58.6482 27.2976 58.9164 27.2187L61.3306 26.5081C61.6859 26.4035 61.9256 26.2723 62.0498 26.1143C62.1834 25.9611 62.2095 25.7561 62.1279 25.4993C62.033 25.2009 61.8504 25.0004 61.5799 24.8979C61.3095 24.7953 60.9749 24.8027 60.5762 24.9201L58.3904 25.5634C58.1221 25.6424 57.8935 25.6338 57.7043 25.5377C57.5174 25.4485 57.3843 25.279 57.3049 25.0291C57.2255 24.7793 57.2362 24.5636 57.3371 24.3821C57.438 24.2006 57.6225 24.0704 57.8908 23.9915L60.3049 23.2809C60.6602 23.1764 60.8999 23.0451 61.0241 22.8871C61.1578 22.7339 61.1838 22.5289 61.1022 22.2722C61.0073 21.9737 60.8247 21.7732 60.5543 21.6707C60.2838 21.5681 59.9492 21.5756 59.5505 21.6929L57.3647 22.3363C56.8065 22.5006 56.4446 22.3225 56.2792 21.8019Z" fill="white"/>
<path d="M56.5427 31.7817C56.5498 31.5931 56.6086 31.4387 56.7192 31.3187C56.8298 31.1986 56.9726 31.1304 57.1476 31.1141C57.315 31.0976 57.4919 31.1322 57.6783 31.218L59.3323 32.0001L58.628 31.978L63.3118 30.196C63.5114 30.1296 63.6941 30.1099 63.8599 30.1369C64.033 30.1714 64.1663 30.2555 64.2599 30.3893C64.3608 30.5305 64.4068 30.7208 64.3979 30.9603C64.3906 31.1562 64.3355 31.3107 64.2328 31.4237C64.1373 31.5442 63.9551 31.6511 63.6863 31.7444L60.2306 32.9219L60.2435 32.5736L63.6133 34.0089C63.867 34.1186 64.037 34.2365 64.1233 34.3628C64.2169 34.4965 64.2596 34.6722 64.2515 34.8899C64.2445 35.0786 64.1859 35.2257 64.0758 35.3312C63.9731 35.4442 63.838 35.509 63.6706 35.5255C63.5029 35.5493 63.3222 35.5146 63.1285 35.4213L57.1691 32.6732C56.9157 32.5563 56.7461 32.4275 56.6604 32.2867C56.5744 32.1533 56.5352 31.9849 56.5427 31.7817Z" fill="white"/>
</svg>
