<svg width="32" height="32" viewBox="0 0 32 32" fill="none" xmlns="http://www.w3.org/2000/svg">
<path d="M16 28C22.6274 28 28 22.6274 28 16C28 9.37258 22.6274 4 16 4C9.37258 4 4 9.37258 4 16C4 22.6274 9.37258 28 16 28ZM16 28V24M16 24C16 23.2043 16.316 22.4413 16.8787 21.8787C17.4413 21.316 18.2043 21 19 21C19.7957 21 20.5587 21.316 21.1213 21.8787C21.684 22.4413 22 23.2043 22 24M16 24C16 23.2043 15.6839 22.4413 15.1213 21.8787C14.5587 21.316 13.7956 21 13 21C12.2044 21 11.4413 21.316 10.8787 21.8787C10.3161 22.4413 10 23.2043 10 24M22 26.3952V22L16 9L10 22V26.3955M12.7692 16H19.2307" stroke="white" stroke-width="2" stroke-linecap="round" stroke-linejoin="round"/>
</svg>
