<svg width="32" height="32" viewBox="0 0 32 32" fill="none" xmlns="http://www.w3.org/2000/svg">
  <path d="M20 16L20.5547 16.8321C20.8329 16.6466 21 16.3344 21 16C21 15.6656 20.8329 15.3534 20.5547 15.1679L20 16ZM14 12L14.5547 11.1679C14.2478 10.9634 13.8533 10.9443 13.5281 11.1183C13.203 11.2923 13 11.6312 13 12H14ZM14 20H13C13 20.3688 13.203 20.7077 13.5281 20.8817C13.8533 21.0557 14.2478 21.0366 14.5547 20.8321L14 20ZM27 16C27 22.0751 22.0751 27 16 27V29C23.1797 29 29 23.1797 29 16H27ZM16 27C9.92487 27 5 22.0751 5 16H3C3 23.1797 8.8203 29 16 29V27ZM5 16C5 9.92487 9.92487 5 16 5V3C8.8203 3 3 8.8203 3 16H5ZM16 5C22.0751 5 27 9.92487 27 16H29C29 8.8203 23.1797 3 16 3V5ZM20.5547 15.1679L14.5547 11.1679L13.4453 12.8321L19.4453 16.8321L20.5547 15.1679ZM13 12V20H15V12H13ZM14.5547 20.8321L20.5547 16.8321L19.4453 15.1679L13.4453 19.1679L14.5547 20.8321Z" fill="currentColor"/>
</svg>
