<svg width="32" height="32" viewBox="0 0 32 32" fill="none" xmlns="http://www.w3.org/2000/svg">
<path d="M15.9995 15.037C14.4133 13.8634 12.0332 11.8095 5.21143 11.8095V26.5055C12.0332 26.5055 14.4133 28.5594 15.9995 29.7331V15.037Z" stroke="white" stroke-width="2" stroke-linecap="round" stroke-linejoin="round"/>
<path d="M16.0005 15.037C17.5867 13.8634 19.9668 11.8095 26.7885 11.8095V26.5055C19.9668 26.5055 17.5867 28.5594 16.0005 29.7331V15.037Z" stroke="white" stroke-width="2" stroke-linecap="round" stroke-linejoin="round"/>
<path d="M23.9869 2.24916H9.81547C9.41957 2.24916 9.03154 2.3599 8.69526 2.56887L4.96484 4.88694L8.69526 7.205C9.03154 7.41397 9.41957 7.5247 9.81547 7.5247H23.9869C25.4438 7.5247 26.6247 6.34375 26.6247 4.88694C26.6247 3.43014 25.4438 2.24916 23.9869 2.24916Z" stroke="white" stroke-width="2" stroke-linecap="round" stroke-linejoin="round"/>
<path d="M20.2148 2.36264V7.52479" stroke="white" stroke-width="2" stroke-linecap="round" stroke-linejoin="round"/>
</svg>
