<svg width="32" height="32" viewBox="0 0 32 32" fill="none" xmlns="http://www.w3.org/2000/svg">
<path d="M5.3335 28V18.6667H26.6668V28H5.3335ZM12.0002 17.3333C10.1557 17.3333 8.58327 16.6831 7.28283 15.3827C5.98239 14.0822 5.33261 12.5102 5.3335 10.6667C5.3335 8.82222 5.98372 7.24978 7.28416 5.94933C8.58461 4.64889 10.1566 3.99911 12.0002 4H20.0002C21.8446 4 23.4171 4.65022 24.7175 5.95067C26.0179 7.25111 26.6677 8.82311 26.6668 10.6667C26.6668 12.5111 26.0166 14.0836 24.7162 15.384C23.4157 16.6844 21.8437 17.3342 20.0002 17.3333H12.0002ZM8.00016 25.3333H24.0002V21.3333H8.00016V25.3333ZM12.0002 14.6667H20.0002C21.1113 14.6667 22.0557 14.2778 22.8335 13.5C23.6113 12.7222 24.0002 11.7778 24.0002 10.6667C24.0002 9.55555 23.6113 8.61111 22.8335 7.83333C22.0557 7.05555 21.1113 6.66667 20.0002 6.66667H12.0002C10.8891 6.66667 9.94461 7.05555 9.16683 7.83333C8.38905 8.61111 8.00016 9.55555 8.00016 10.6667C8.00016 11.7778 8.38905 12.7222 9.16683 13.5C9.94461 14.2778 10.8891 14.6667 12.0002 14.6667ZM12.0002 12C12.3779 12 12.6948 11.872 12.9508 11.616C13.2068 11.36 13.3344 11.0436 13.3335 10.6667C13.3335 10.2889 13.2055 9.972 12.9495 9.716C12.6935 9.46 12.3771 9.33244 12.0002 9.33333C11.6224 9.33333 11.3055 9.46133 11.0495 9.71733C10.7935 9.97333 10.6659 10.2898 10.6668 10.6667C10.6668 11.0444 10.7948 11.3613 11.0508 11.6173C11.3068 11.8733 11.6233 12.0009 12.0002 12ZM20.0002 12C20.3779 12 20.6948 11.872 20.9508 11.616C21.2068 11.36 21.3344 11.0436 21.3335 10.6667C21.3335 10.2889 21.2055 9.972 20.9495 9.716C20.6935 9.46 20.3771 9.33244 20.0002 9.33333C19.6224 9.33333 19.3055 9.46133 19.0495 9.71733C18.7935 9.97333 18.6659 10.2898 18.6668 10.6667C18.6668 11.0444 18.7948 11.3613 19.0508 11.6173C19.3068 11.8733 19.6233 12.0009 20.0002 12Z" fill="#F8F8F8"/>
</svg>
