<svg width="34" height="34" fill="none" xmlns="http://www.w3.org/2000/svg"><g fill="currentColor"><path d="M23.172 25.25a.75.75 0 1 0 1.299-.75l-1.299.75ZM9.53 24.5a.75.75 0 1 0 1.299.75l-1.299-.75ZM32 17c0 8.284-6.716 15-15 15v1.5c9.113 0 16.5-7.387 16.5-16.5H32ZM17 32C8.716 32 2 25.284 2 17H.5c0 9.113 7.387 16.5 16.5 16.5V32ZM2 17C2 8.716 8.716 2 17 2V.5C7.887.5.5 7.887.5 17H2ZM17 2c8.284 0 15 6.716 15 15h1.5C33.5 7.887 26.113.5 17 .5V2Zm7.47 22.5a8.63 8.63 0 0 0-3.157-3.156l-.75 1.3a7.13 7.13 0 0 1 2.61 2.606l1.298-.75Zm-3.157-3.156A8.63 8.63 0 0 0 17 20.19v1.5c1.25 0 2.48.33 3.563.954l.75-1.299ZM17 20.19a8.63 8.63 0 0 0-4.312 1.155l.75 1.3A7.13 7.13 0 0 1 17 21.688v-1.5Zm-4.312 1.155a8.63 8.63 0 0 0-3.159 3.155l1.299.751a7.13 7.13 0 0 1 2.61-2.607l-.75-1.299ZM22.906 15.688a1.969 1.969 0 1 0 0-3.938 1.969 1.969 0 0 0 0 3.938ZM11.094 15.688a1.969 1.969 0 1 0 0-3.938 1.969 1.969 0 0 0 0 3.938Z"/></g></svg>
