<svg width="307" height="296" viewBox="0 0 307 296" fill="none" xmlns="http://www.w3.org/2000/svg">
<path d="M75.2072 162.858C58.2594 171.712 38.9386 179.105 20.8183 182.066L84.3569 180.79L76.3455 166.173C75.7805 165.142 75.4166 164.029 75.2072 162.858Z" fill="#323E8B"/>
<path d="M199.424 98.714L207.436 113.331L242.695 60.4583C230.449 74.1422 213.823 86.4511 197.241 95.9721C198.118 96.7796 198.86 97.685 199.424 98.714Z" fill="#323E8B"/>
<path d="M92.6803 132.348C80.433 143.714 73.7712 154.852 75.2007 162.861C75.4101 164.033 75.7722 165.146 76.3362 166.175L84.3477 180.793L98.9008 207.346L99.7968 206.427C103.538 202.568 107.669 199.256 112.063 196.451C108.215 189.429 102.626 179.232 95.3865 166.023C88.3139 153.123 89.4954 141.26 92.6803 132.348Z" fill="#747EBF"/>
<path d="M197.234 95.9781C187.193 86.7261 157.468 91.9322 125.977 109.024L125.973 109.016L125.251 109.412L124.53 109.808L124.534 109.815C111.863 116.828 100.988 124.64 92.6804 132.349C89.4973 141.259 88.3158 153.123 95.3866 166.024C102.626 179.232 108.215 189.43 112.063 196.451C128.429 185.997 148.644 182.987 167.798 188.754L168.918 189.084L169.242 187.963C176.149 163.545 195.846 145.231 220.727 140.15L221.983 139.892L207.429 113.337L199.417 98.7201C198.853 97.6892 198.11 96.7838 197.234 95.9781Z" fill="#323E8B"/>
<path d="M240.07 57.5982L104.318 71.2081L19.8086 178.324L17.644 181.569C17.4833 181.811 17.6597 182.133 17.9489 182.126L20.8156 182.067C38.9387 179.107 58.2575 171.715 75.2044 162.859C72.8071 149.418 93.1879 127.162 124.539 109.811L124.535 109.804L125.257 109.409L125.979 109.013L125.983 109.02C157.471 91.9296 187.199 86.7225 197.239 95.9746C213.82 86.4518 230.447 74.1429 242.694 60.4609L244.283 58.0767C244.444 57.8349 244.267 57.5131 243.978 57.5203L240.07 57.5982Z" fill="#4250AF"/>
<path d="M240.072 57.5977L171.845 58.9653L105.41 60.6846C100.638 60.8081 96.7425 62.9574 94.4076 66.4618L57.9864 121.076L19.8089 178.321L104.318 71.2058L240.072 57.5977Z" fill="#747EBF"/>
<path d="M251.475 169.359L247.928 171.303L186.224 58.7208L190.785 58.6257L251.475 169.359Z" fill="#CC3B98"/>
<path d="M248.843 163.648L244.529 166.012C243.789 166.418 242.852 166.144 242.446 165.404C242.041 164.664 242.314 163.727 243.054 163.321L247.368 160.957C248.108 160.551 249.046 160.825 249.451 161.565C249.857 162.305 249.583 163.242 248.843 163.648Z" fill="#F285A7"/>
<path d="M250.319 166.34L246.005 168.705C245.265 169.11 244.327 168.837 243.922 168.097C243.516 167.357 243.79 166.42 244.53 166.014L248.844 163.649C249.584 163.244 250.521 163.517 250.927 164.257C251.332 164.997 251.059 165.935 250.319 166.34Z" fill="#F285A7"/>
<path d="M249.543 165.626C249.399 165.587 249.255 165.574 249.106 165.591C248.905 165.371 248.606 165.236 248.277 165.223C247.883 165.21 247.513 165.367 247.269 165.652C247.201 165.678 247.119 165.723 247.073 165.76C246.704 165.811 246.366 166.041 246.167 166.379C246 166.662 245.951 166.987 246.032 167.276C245.937 167.392 245.87 167.521 245.825 167.663C242.719 177.655 247.49 187.109 253.092 196.718C253.34 197.145 253.704 197.39 254.088 197.388C254.376 197.388 254.642 197.238 254.786 196.984C254.968 196.664 254.933 196.243 254.69 195.826C252.093 191.367 249.554 186.593 248.203 181.569C249.273 183.919 250.573 186.221 251.839 188.471C253.384 191.213 254.843 193.801 255.91 196.438C256.146 197.019 256.514 197.155 256.712 197.181C256.989 197.221 257.26 197.103 257.449 196.869C257.698 196.551 257.734 196.077 257.543 195.608C256.568 193.2 255.263 190.802 253.882 188.261C251.753 184.35 249.566 180.326 248.608 176.179C249.893 179.407 251.752 182.468 253.564 185.449C255.618 188.83 257.741 192.324 258.991 196.012C259.163 196.519 259.52 196.874 259.948 196.959C260.242 197.017 260.523 196.93 260.707 196.727C260.833 196.585 261.011 196.263 260.816 195.693C259.612 192.135 257.62 188.692 255.697 185.361C253.332 181.269 250.897 177.05 249.856 172.542C253.587 180.099 257.762 187.333 262.284 194.073C262.728 194.737 263.356 194.819 263.768 194.56C264.114 194.328 264.292 193.79 263.866 193.156C260.097 187.534 256.576 181.205 252.545 172.789C255.229 175.905 257.218 179.74 259.15 183.464C260.922 186.883 262.756 190.414 265.106 193.347C265.481 193.817 265.851 193.839 266.036 193.811C266.119 193.798 266.199 193.771 266.271 193.731C266.435 193.642 266.565 193.49 266.641 193.297C266.799 192.891 266.692 192.399 266.358 191.982C263.921 188.943 262.118 185.274 260.374 181.724C258.837 178.592 257.257 175.378 255.225 172.559C258.206 175.6 260.421 179.606 262.572 183.505C263.971 186.036 265.289 188.428 266.796 190.543C267.089 190.957 267.507 191.18 267.91 191.143C268.206 191.113 268.452 190.945 268.569 190.69C268.653 190.506 268.739 190.124 268.374 189.614C266.724 187.294 265.327 184.672 263.848 181.896C262.636 179.619 261.392 177.284 259.987 175.118C263.495 178.959 266.152 183.669 268.514 188.256C268.735 188.684 269.072 188.941 269.439 188.96C269.731 188.975 269.996 188.832 270.155 188.589C270.366 188.265 270.353 187.828 270.127 187.389C265.04 177.491 259.637 168.385 249.543 165.626Z" fill="#F285A7"/>
</svg>
