<svg width="32" height="32" viewBox="0 0 32 32" fill="none" xmlns="http://www.w3.org/2000/svg">
  <path d="M3.09912 23.2553C1.23469 20.2756 0.581756 16.7531 1.26291 13.3492C1.94407 9.94539 3.91247 6.89437 6.79849 4.76909C9.6845 2.6438 13.2896 1.59045 16.9368 1.80683C20.5841 2.02321 24.0225 3.49444 26.6066 5.94424C29.1906 8.39405 30.7424 11.6539 30.9707 15.1117C31.1989 18.5695 30.0879 21.9874 27.8462 24.7235C25.6045 27.4596 22.3863 29.3258 18.796 29.9716C15.2057 30.6174 11.4902 29.9984 8.34721 28.2308L8.34725 28.2306L3.16437 29.6345C2.94994 29.6926 2.72302 29.6953 2.50714 29.6423C2.29125 29.5892 2.09426 29.4824 1.93656 29.3329C1.77887 29.1834 1.66621 28.9966 1.61027 28.792C1.55433 28.5873 1.55714 28.3722 1.61841 28.1689L3.09923 23.2552L3.09912 23.2553Z" fill="currentColor" stroke="currentColor" stroke-width="2" stroke-linecap="round" stroke-linejoin="round"/>
</svg>
