<svg viewBox="0 0 63 63" xmlns="http://www.w3.org/2000/svg">
    <path
      d="M13.1347 12.4569L20.2836 15.6C18.8662 17.6953 18.1266 20.0989 18.1266 22.6256C18.1266 29.528 23.7348 35.1978 30.6989 35.1978C37.6629 35.1978 43.2711 29.5896 43.2711 22.6256C43.2711 20.1605 42.5315 17.6953 41.1757 15.6616L47.4618 12.7034V24.6594L45.5513 28.7268C45.4281 29.035 45.4281 29.3431 45.6129 29.5896C45.7978 29.8362 46.106 30.021 46.4141 30.021H50.0502C50.3583 30.021 50.6665 29.8978 50.7897 29.5896C50.9746 29.3431 50.9746 29.035 50.8514 28.7268L49.1874 24.6594V11.9023C49.1874 11.4092 49.1258 11.0395 48.263 10.6697C48.0781 10.6081 31.1303 3.08939 31.1303 3.08939C30.8837 2.96613 30.6372 2.96613 30.3907 3.08939L13.1347 10.7313C12.8266 10.8546 12.5801 11.2244 12.5801 11.5941C12.5801 11.9639 12.765 12.272 13.1347 12.4569ZM41.3606 22.6256C41.3606 28.542 36.5536 33.349 30.6372 33.349C24.7209 33.349 19.9139 28.542 19.9139 22.6256C19.9139 20.3454 20.6534 18.1884 21.9476 16.3395L30.3291 20.0989C30.4523 20.1605 30.5756 20.1605 30.6989 20.1605C30.8221 20.1605 30.9454 20.1605 31.0686 20.0989L39.3268 16.4011C40.6827 18.25 41.3606 20.407 41.3606 22.6256ZM47.8316 28.1722L48.263 27.2478L48.6327 28.1722H47.8316ZM30.7605 4.93825L45.7362 11.5941L30.7605 18.25L15.7848 11.5941L30.7605 4.93825Z"
    />
    <path
      d="M31.0069 37.4167C18.9894 37.4167 9.19043 47.2157 9.19043 59.2332C9.19043 59.7263 9.62183 60.1577 10.1149 60.1577H51.899C52.392 60.1577 52.8234 59.7263 52.8234 59.2332C52.8234 47.2157 43.0245 37.4167 31.0069 37.4167ZM11.1009 58.3088C11.5939 47.7087 20.3452 39.2656 31.0685 39.2656C41.7919 39.2656 50.4815 47.7703 50.9745 58.3088H11.1009Z"
    />
</svg>
