<svg width="32" height="32" viewBox="0 0 32 32" fill="none" xmlns="http://www.w3.org/2000/svg">
<g clip-path="url(#clip0_1500_2622)">
<path d="M22.4237 11.3367L14.3092 17.9694L13.9274 18.2821C13.8435 18.3486 13.7887 18.4451 13.7747 18.5512L13.6892 19.2567L13.4547 21.2385C13.4568 21.2626 13.4493 21.2866 13.4338 21.3052C13.4183 21.3237 13.396 21.3354 13.3719 21.3376C13.3478 21.3397 13.3238 21.3322 13.3053 21.3167C13.2867 21.3012 13.275 21.2789 13.2728 21.2548L12.6128 19.273L11.931 17.2457C11.9019 17.1549 11.9057 17.0567 11.9415 16.9683C11.9774 16.88 12.0432 16.807 12.1274 16.7621L20.571 11.9221L22.1601 11.013C22.391 10.8785 22.6274 11.1694 22.4237 11.3367Z" fill="white"/>
<path d="M27.6364 0H4.36364C3.20633 0 2.09642 0.459739 1.27808 1.27808C0.459739 2.09642 0 3.20633 0 4.36364L0 27.6364C0 28.7937 0.459739 29.9036 1.27808 30.7219C2.09642 31.5403 3.20633 32 4.36364 32H27.6364C28.7937 32 29.9036 31.5403 30.7219 30.7219C31.5403 29.9036 32 28.7937 32 27.6364V4.36364C32 3.20633 31.5403 2.09642 30.7219 1.27808C29.9036 0.459739 28.7937 0 27.6364 0ZM25.98 9.26182L22.8564 23.0636C22.7091 23.7109 21.8873 24.0036 21.3109 23.6091L16.5945 20.4091L14.1927 22.68C14.0948 22.7719 13.9759 22.8385 13.8464 22.8741C13.7169 22.9096 13.5807 22.913 13.4495 22.884C13.3184 22.855 13.1963 22.7944 13.0939 22.7075C12.9915 22.6207 12.9118 22.5101 12.8618 22.3855L11.9945 19.84L11.1273 17.2945L6.47818 16.0218C6.34819 15.9934 6.23122 15.9229 6.14546 15.8212C6.05969 15.7195 6.00993 15.5923 6.00392 15.4594C5.9979 15.3264 6.03597 15.1953 6.1122 15.0862C6.18844 14.9772 6.29856 14.8964 6.42545 14.8564L24.3855 8.38545L24.7164 8.26727C25.4127 8.02364 26.1327 8.58727 25.98 9.26182Z" fill="white"/>
</g>
<defs>
<clipPath id="clip0_1500_2622">
<rect width="32" height="32" fill="white"/>
</clipPath>
</defs>
</svg>
