<svg width="32" height="32" viewBox="0 0 32 32" fill="none" xmlns="http://www.w3.org/2000/svg">
<path d="M11.0003 16.8589L22.24 26.7498C22.37 26.8642 22.5276 26.9429 22.6972 26.9781C22.8668 27.0134 23.0426 27.004 23.2075 26.9508C23.3724 26.8976 23.5206 26.8025 23.6377 26.6749C23.7547 26.5472 23.8366 26.3913 23.8753 26.2224L28.577 5.70586C28.6177 5.52847 28.6092 5.34335 28.5524 5.17045C28.4956 4.99756 28.3927 4.84343 28.2548 4.72469C28.1169 4.60594 27.9492 4.52708 27.7698 4.49661C27.5904 4.46613 27.406 4.48519 27.2367 4.55173L4.16706 13.6148C3.96601 13.6938 3.79593 13.8357 3.68229 14.0194C3.56864 14.2032 3.51754 14.4187 3.53663 14.6339C3.55571 14.8491 3.64396 15.0523 3.78816 15.2131C3.93237 15.3739 4.12478 15.4838 4.3366 15.5261L11.0003 16.8589ZM11.0003 16.8589V24.9978C11.0003 25.1956 11.059 25.3889 11.1689 25.5534C11.2787 25.7178 11.4349 25.846 11.6176 25.9217C11.8004 25.9974 12.0014 26.0172 12.1954 25.9786C12.3894 25.94 12.5676 25.8448 12.7074 25.7049L16.6137 21.7986M11.0003 16.8589L28.0143 4.57096" stroke="currentColor" stroke-width="2" stroke-linecap="round" stroke-linejoin="round"/>
</svg>
