<svg width="32" height="32" viewBox="0 0 32 32" fill="none" xmlns="http://www.w3.org/2000/svg">
<path d="M19.1554 6.2796C18.6238 6.42937 18.3143 6.98173 18.464 7.51331C18.6138 8.0449 19.1662 8.35442 19.6978 8.20465L19.1554 6.2796ZM21.1903 20L21.1895 19C20.6374 19.0004 20.19 19.4483 20.1903 20.0004C20.1905 20.5526 20.6382 21.0001 21.1904 21L21.1903 20ZM29.3719 25.2485C29.6892 25.7005 30.3129 25.8097 30.7649 25.4923C31.2169 25.175 31.3261 24.5513 31.0087 24.0993L29.3719 25.2485ZM1.18144 24.0995C0.863813 24.5513 0.972584 25.175 1.42439 25.4927C1.8762 25.8103 2.49995 25.7015 2.81758 25.2497L1.18144 24.0995ZM19.1821 25.2491C19.4997 25.7009 20.1235 25.8096 20.5753 25.4919C21.027 25.1743 21.1358 24.5505 20.8181 24.0987L19.1821 25.2491ZM16.5 13.5C16.5 16.5376 14.0376 19 11 19V21C15.1422 21 18.5 17.6421 18.5 13.5H16.5ZM11 19C7.96247 19 5.50004 16.5376 5.50004 13.5H3.50004C3.50004 17.6421 6.8579 21 11 21V19ZM5.50004 13.5C5.50004 10.4624 7.96247 8 11 8V6C6.8579 6 3.50004 9.35786 3.50004 13.5H5.50004ZM11 8C14.0376 8 16.5 10.4624 16.5 13.5H18.5C18.5 9.35786 15.1422 6 11 6V8ZM19.6978 8.20465C20.4543 7.99151 21.2476 7.94295 22.0245 8.06225L22.3281 6.08543C21.2688 5.92275 20.1869 5.98896 19.1554 6.2796L19.6978 8.20465ZM22.0245 8.06225C22.8013 8.18155 23.5436 8.46594 24.2013 8.89627L25.2963 7.22268C24.3995 6.6359 23.3874 6.24811 22.3281 6.08543L22.0245 8.06225ZM24.2013 8.89627C24.8589 9.32659 25.4168 9.89286 25.8372 10.5569L27.527 9.48712C26.9538 8.58162 26.1931 7.80946 25.2963 7.22268L24.2013 8.89627ZM25.8372 10.5569C26.2576 11.221 26.5308 11.9674 26.6384 12.746L28.6196 12.4721C28.4728 11.4105 28.1003 10.3926 27.527 9.48712L25.8372 10.5569ZM26.6384 12.746C26.7461 13.5245 26.6856 14.3171 26.4611 15.0703L28.3778 15.6415C28.6839 14.6145 28.7663 13.5337 28.6196 12.4721L26.6384 12.746ZM26.4611 15.0703C26.2367 15.8235 25.8534 16.5199 25.3371 17.1125L26.8451 18.4262C27.5491 17.6182 28.0717 16.6686 28.3778 15.6415L26.4611 15.0703ZM25.3371 17.1125C24.8208 17.7051 24.1836 18.1802 23.4682 18.5058L24.2968 20.3261C25.2722 19.8822 26.1412 19.2343 26.8451 18.4262L25.3371 17.1125ZM23.4682 18.5058C22.7529 18.8314 21.9761 18.9999 21.1901 19L21.1904 21C22.2621 20.9999 23.3213 20.7701 24.2968 20.3261L23.4682 18.5058ZM21.191 21C22.7956 20.9988 24.3769 21.3843 25.8009 22.1239L26.7227 20.349C25.0135 19.4613 23.1155 18.9986 21.1895 19L21.191 21ZM25.8009 22.1239C27.225 22.8634 28.4499 23.9352 29.3719 25.2485L31.0087 24.0993C29.9021 22.523 28.4319 21.2366 26.7227 20.349L25.8009 22.1239ZM2.81758 25.2497C3.74048 23.937 4.96568 22.8655 6.38975 22.1259L5.4679 20.351C3.75907 21.2385 2.28888 22.5242 1.18144 24.0995L2.81758 25.2497ZM6.38975 22.1259C7.81379 21.3862 9.39534 21.0001 11.0001 21L11 19C9.07447 19.0001 7.17675 19.4634 5.4679 20.351L6.38975 22.1259ZM11.0001 21C12.6047 20.9999 14.1855 21.386 15.6096 22.1255L16.5314 20.3506C14.8225 19.4632 12.9256 18.9999 11 19L11.0001 21ZM15.6096 22.1255C17.0338 22.8651 18.2591 23.9364 19.1821 25.2491L20.8181 24.0987C19.7105 22.5236 18.2403 21.238 16.5314 20.3506L15.6096 22.1255Z" fill="white"/>
</svg>
