<svg xmlns="http://www.w3.org/2000/svg" viewBox="0 0 20 19" fill="none">
  <path
    d="M0.255863 17.8739C0.0486524 18.2326 0.171426 18.6913 0.530086 18.8985C0.888745 19.1057 1.34747 18.983 1.55468 18.6243L0.255863 17.8739ZM18.4455 18.6245C18.6527 18.9831 19.1115 19.1059 19.4701 18.8987C19.8288 18.6915 19.9516 18.2328 19.7444 17.8741L18.4455 18.6245ZM1.55468 18.6243C2.41093 17.1422 3.64212 15.9116 5.12457 15.056L4.37476 13.7568C2.66433 14.744 1.24379 16.1639 0.255863 17.8739L1.55468 18.6243ZM5.12457 15.056C6.60702 14.2004 8.28852 13.75 10.0002 13.75L10.0002 12.25C8.0253 12.25 6.0852 12.7697 4.37476 13.7568L5.12457 15.056ZM10.0002 13.75C11.7118 13.75 13.3933 14.2005 14.8757 15.0561L15.6255 13.757C13.9151 12.7697 11.975 12.25 10.0002 12.25L10.0002 13.75ZM14.8757 15.0561C16.3581 15.9117 17.5893 17.1424 18.4455 18.6245L19.7444 17.8741C18.7565 16.1641 17.336 14.7442 15.6255 13.757L14.8757 15.0561ZM15.2501 7C15.2501 9.89951 12.8996 12.25 10.0002 12.25V13.75C13.7281 13.75 16.7501 10.7279 16.7501 7H15.2501ZM10.0002 12.25C7.10065 12.25 4.75005 9.89948 4.75005 7H3.25005C3.25005 10.7279 6.27226 13.75 10.0002 13.75V12.25ZM4.75005 7C4.75005 4.1005 7.10056 1.75 10.0001 1.75V0.25C6.27213 0.25 3.25005 3.27208 3.25005 7H4.75005ZM10.0001 1.75C12.8995 1.75 15.2501 4.1005 15.2501 7H16.7501C16.7501 3.27208 13.728 0.25 10.0001 0.25V1.75Z"
    fill="currentColor"/>
</svg>
