<svg width="32" height="32" viewBox="0 0 32 32" fill="none" xmlns="http://www.w3.org/2000/svg">
<path d="M27.6364 0H4.36364C3.20633 0 2.09642 0.459739 1.27808 1.27808C0.459739 2.09642 0 3.20633 0 4.36364L0 27.6364C0 28.7937 0.459739 29.9036 1.27808 30.7219C2.09642 31.5403 3.20633 32 4.36364 32H27.6364C28.7937 32 29.9036 31.5403 30.7219 30.7219C31.5403 29.9036 32 28.7937 32 27.6364V4.36364C32 3.20633 31.5403 2.09642 30.7219 1.27808C29.9036 0.459739 28.7937 0 27.6364 0ZM25.2218 21.7164C24.7564 21.7818 22.48 21.7164 22.3618 21.7164C21.7733 21.7241 21.2056 21.4993 20.7818 21.0909C20.3018 20.6273 19.8727 20.1182 19.4036 19.6364C19.2654 19.4885 19.1152 19.3523 18.9545 19.2291C18.58 18.9418 18.2091 19.0055 18.0327 19.4491C17.895 19.9266 17.7989 20.415 17.7455 20.9091C17.7145 21.3564 17.4309 21.6364 16.9291 21.6673C16.6182 21.6836 16.3073 21.6909 16 21.6818C14.8801 21.6757 13.7776 21.4034 12.7836 20.8873C11.7078 20.2884 10.7705 19.4694 10.0327 18.4836C8.82 16.9345 7.85091 15.2327 6.98545 13.4782C6.94 13.3891 6.05273 11.5018 6.03091 11.4127C5.95091 11.1164 6.03091 10.8309 6.27636 10.7309C6.43273 10.6709 9.35636 10.7309 9.40545 10.7309C9.62297 10.7294 9.83531 10.7972 10.0118 10.9243C10.1883 11.0514 10.3198 11.2314 10.3873 11.4382C10.9282 12.8218 11.6681 14.1191 12.5836 15.2891C12.7119 15.4449 12.8619 15.5815 13.0291 15.6945C13.2673 15.8582 13.4927 15.8018 13.5909 15.5255C13.7074 15.1446 13.7758 14.7506 13.7945 14.3527C13.8109 13.5636 13.7945 13.0455 13.7509 12.2564C13.7218 11.7509 13.5436 11.3091 12.7982 11.1745C12.5691 11.1327 12.5491 10.9436 12.6964 10.7545C13.0036 10.3636 13.4236 10.3 13.8945 10.2764C14.5964 10.2364 15.2982 10.2636 16 10.2764H16.1527C16.4582 10.2753 16.7629 10.3063 17.0618 10.3691C17.2387 10.4052 17.3992 10.4974 17.5194 10.6321C17.6396 10.7667 17.7132 10.9366 17.7291 11.1164C17.7652 11.3154 17.7804 11.5178 17.7745 11.72C17.7564 12.58 17.7145 13.4418 17.7055 14.3018C17.697 14.6431 17.7281 14.9841 17.7982 15.3182C17.8982 15.7764 18.2127 15.8909 18.5255 15.56C18.9311 15.1303 19.3026 14.6695 19.6364 14.1818C20.2287 13.2987 20.7168 12.3499 21.0909 11.3545C21.2945 10.8436 21.4545 10.7309 22 10.7309H25.1018C25.2863 10.7277 25.4701 10.7522 25.6473 10.8036C25.71 10.8201 25.7686 10.8494 25.8195 10.8895C25.8703 10.9297 25.9124 10.98 25.9429 11.0372C25.9735 11.0943 25.9919 11.1572 25.997 11.2218C26.0022 11.2865 25.9939 11.3514 25.9727 11.4127C25.82 12.0927 25.4527 12.6727 25.0636 13.2309C24.4327 14.1236 23.7673 14.9945 23.1218 15.8764C23.0442 15.9904 22.9731 16.1087 22.9091 16.2309C22.6655 16.6709 22.6836 16.9164 23.0364 17.28C23.6 17.86 24.2018 18.4018 24.7455 18.9982C25.1442 19.4321 25.5043 19.8999 25.8218 20.3964C26.2091 21.0218 25.9636 21.6109 25.2218 21.7164Z" fill="white"/>
</svg>
