<svg width="32" height="32" fill="none" xmlns="http://www.w3.org/2000/svg"><path d="M5.679 22.125a11.995 11.995 0 1 1 4.196 4.196l-4.144 1.184a1 1 0 0 1-1.236-1.236l1.184-4.144Z" stroke="currentColor" stroke-width="2" stroke-linecap="round" stroke-linejoin="round"/><path d="M19.014 23A10 10 0 0 1 9 12.986 3.497 3.497 0 0 1 12.5 9.5a.861.861 0 0 1 .748.434l1.461 2.557a1 1 0 0 1-.01 1.011l-1.174 1.956a6.023 6.023 0 0 0 3.017 3.017l1.956-1.174a1 1 0 0 1 1.01-.01l2.558 1.46a.862.862 0 0 1 .434.749 3.51 3.51 0 0 1-3.486 3.5Z" stroke="currentColor" stroke-width="2" stroke-linecap="round" stroke-linejoin="round"/></svg>
