<svg width="32" height="32" viewBox="0 0 32 32" fill="none" xmlns="http://www.w3.org/2000/svg">
<g clip-path="url(#clip0_1500_2631)">
<path d="M13.8184 12.5166L19.4984 16.0002C17.5856 17.1748 15.7293 18.3184 13.8184 19.4839V12.5166Z" fill="white"/>
<path d="M26.2655 0H4.3125C1.93077 0 0 1.93077 0 4.3125V26.2655C0 27.7864 0.604174 29.245 1.67961 30.3204C2.75505 31.3958 4.21365 32 5.73455 32H27.6875C30.0692 32 32 30.0692 32 27.6875V5.73636C32.0002 4.98314 31.8521 4.23725 31.564 3.54129C31.2759 2.84533 30.8536 2.21295 30.321 1.68025C29.7885 1.14756 29.1563 0.724992 28.4604 0.43669C27.7645 0.148389 27.0187 -3.78591e-08 26.2655 0ZM24.6655 20.3745C24.3018 21.4927 23.0982 22.1709 21.9909 22.3273C18.0082 22.7509 13.9918 22.7509 10.0091 22.3273C8.90182 22.1709 7.69818 21.4927 7.33455 20.3745C6.76727 17.4864 6.76727 14.5154 7.33455 11.6273C7.69818 10.5073 8.90182 9.83091 10.0091 9.67455C13.9918 9.25091 18.0082 9.25091 21.9909 9.67455C23.0982 9.83091 24.3018 10.5073 24.6655 11.6273C25.2327 14.5154 25.2327 17.4864 24.6655 20.3745Z" fill="white"/>
</g>
<defs>
<clipPath id="clip0_1500_2631">
<rect width="32" height="32" fill="white"/>
</clipPath>
</defs>
</svg>
