<svg width="32" height="32" fill="none" xmlns="http://www.w3.org/2000/svg"><path d="m20 16-6-4v8l6-4Z" stroke="currentColor" stroke-width="2" stroke-linecap="round" stroke-linejoin="round"/><path d="M3 16c0 3.72.384 5.902.676 7.023a1.99 1.99 0 0 0 1.204 1.362C9.065 25.993 16 25.95 16 25.95s6.935.044 11.12-1.564a1.99 1.99 0 0 0 1.204-1.362C28.616 21.902 29 19.72 29 16c0-3.72-.384-5.902-.676-7.023a1.99 1.99 0 0 0-1.205-1.362C22.935 6.007 16 6.05 16 6.05S9.065 6.007 4.88 7.615a1.99 1.99 0 0 0-1.204 1.362C3.384 10.098 3 12.28 3 16Z" stroke="currentColor" stroke-width="2" stroke-linecap="round" stroke-linejoin="round"/></svg>
