<svg xmlns="http://www.w3.org/2000/svg" width="64" height="64"><path fill="#000" d="M22.6066 21.3934c-.3905-.3905-1.0237-.3905-1.4142 0-.3905.3905-.3905 1.0237 0 1.4142l1.4142-1.4142Zm18.3848 21.2132c.3905.3905 1.0237.3905 1.4142 0 .3905-.3905.3905-1.0237 0-1.4142l-1.4142 1.4142Zm-19.799-1.4142c-.3905.3905-.3905 1.0237 0 1.4142.3905.3905 1.0237.3905 1.4142 0l-1.4142-1.4142Zm21.2132-18.3848c.3905-.3905.3905-1.0237 0-1.4142-.3905-.3905-1.0237-.3905-1.4142 0l1.4142 1.4142Zm-21.2132 0 19.799 19.799 1.4142-1.4142-19.799-19.799-1.4142 1.4142Zm1.4142 19.799 19.799-19.799-1.4142-1.4142-19.799 19.799 1.4142 1.4142Z"/></svg>
